G04 #@! TF.GenerationSoftware,KiCad,Pcbnew,5.0.0-fee4fd1~66~ubuntu18.04.1*
G04 #@! TF.CreationDate,2018-08-15T18:58:20-07:00*
G04 #@! TF.ProjectId,BreadboardPowerSupply_v2,4272656164626F617264506F77657253,2*
G04 #@! TF.SameCoordinates,Original*
G04 #@! TF.FileFunction,Soldermask,Top*
G04 #@! TF.FilePolarity,Negative*
%FSLAX46Y46*%
G04 Gerber Fmt 4.6, Leading zero omitted, Abs format (unit mm)*
G04 Created by KiCad (PCBNEW 5.0.0-fee4fd1~66~ubuntu18.04.1) date Wed Aug 15 18:58:20 2018*
%MOMM*%
%LPD*%
G01*
G04 APERTURE LIST*
%ADD10R,2.000000X2.000000*%
%ADD11C,2.000000*%
%ADD12R,2.600000X2.600000*%
%ADD13O,2.600000X2.600000*%
%ADD14C,2.200000*%
%ADD15R,2.200000X2.200000*%
%ADD16R,3.000000X3.000000*%
%ADD17C,3.000000*%
%ADD18O,2.100000X2.100000*%
%ADD19R,2.100000X2.100000*%
%ADD20O,2.000000X2.000000*%
%ADD21R,2.300000X2.300000*%
%ADD22C,2.300000*%
%ADD23R,2.305000X2.400000*%
%ADD24O,2.305000X2.400000*%
%ADD25R,2.400000X2.400000*%
%ADD26C,2.400000*%
G04 APERTURE END LIST*
D10*
G04 #@! TO.C,C2*
X54229000Y-112014000D03*
D11*
X54229000Y-114514000D03*
G04 #@! TD*
D12*
G04 #@! TO.C,D1*
X39116000Y-144653000D03*
D13*
X49276000Y-144653000D03*
G04 #@! TD*
G04 #@! TO.C,D2*
X49276000Y-139911666D03*
D12*
X39116000Y-139911666D03*
G04 #@! TD*
G04 #@! TO.C,D3*
X39116000Y-135170333D03*
D13*
X49276000Y-135170333D03*
G04 #@! TD*
G04 #@! TO.C,D4*
X49276000Y-130429000D03*
D12*
X39116000Y-130429000D03*
G04 #@! TD*
D14*
G04 #@! TO.C,D5*
X57531000Y-141986000D03*
D15*
X54991000Y-141986000D03*
G04 #@! TD*
G04 #@! TO.C,D6*
X54991000Y-121793000D03*
D14*
X57531000Y-121793000D03*
G04 #@! TD*
D16*
G04 #@! TO.C,J1*
X51435000Y-152654000D03*
D17*
X45435000Y-152654000D03*
X48435000Y-157354000D03*
G04 #@! TD*
D18*
G04 #@! TO.C,J2*
X62484000Y-154686000D03*
X65024000Y-154686000D03*
X62484000Y-157226000D03*
D19*
X65024000Y-157226000D03*
G04 #@! TD*
G04 #@! TO.C,J3*
X65024000Y-112268000D03*
D18*
X62484000Y-112268000D03*
X65024000Y-109728000D03*
X62484000Y-109728000D03*
G04 #@! TD*
D11*
G04 #@! TO.C,R1*
X56769000Y-156464000D03*
D20*
X56769000Y-148844000D03*
G04 #@! TD*
G04 #@! TO.C,R2*
X50800000Y-127254000D03*
D11*
X50800000Y-119634000D03*
G04 #@! TD*
D21*
G04 #@! TO.C,SW1*
X56261000Y-134239000D03*
D22*
X56261000Y-131739000D03*
X56261000Y-129239000D03*
G04 #@! TD*
D23*
G04 #@! TO.C,U1*
X40640000Y-123698000D03*
D24*
X43180000Y-123698000D03*
X45720000Y-123698000D03*
G04 #@! TD*
D25*
G04 #@! TO.C,C1*
X43307000Y-110617000D03*
D26*
X43307000Y-115617000D03*
G04 #@! TD*
M02*
