G04 #@! TF.GenerationSoftware,KiCad,Pcbnew,5.0.0-fee4fd1~66~ubuntu18.04.1*
G04 #@! TF.CreationDate,2018-08-15T18:58:20-07:00*
G04 #@! TF.ProjectId,BreadboardPowerSupply_v2,4272656164626F617264506F77657253,2*
G04 #@! TF.SameCoordinates,Original*
G04 #@! TF.FileFunction,Legend,Top*
G04 #@! TF.FilePolarity,Positive*
%FSLAX46Y46*%
G04 Gerber Fmt 4.6, Leading zero omitted, Abs format (unit mm)*
G04 Created by KiCad (PCBNEW 5.0.0-fee4fd1~66~ubuntu18.04.1) date Wed Aug 15 18:58:20 2018*
%MOMM*%
%LPD*%
G01*
G04 APERTURE LIST*
%ADD10C,0.200000*%
%ADD11C,0.120000*%
%ADD12C,0.100000*%
%ADD13C,0.010000*%
%ADD14C,0.150000*%
G04 APERTURE END LIST*
D10*
X38379571Y-118169571D02*
X38379571Y-119169571D01*
X38189095Y-117598142D02*
X37998619Y-118669571D01*
X38493857Y-118669571D01*
X38722428Y-117669571D02*
X39255761Y-117669571D01*
X38912904Y-119169571D01*
X39712904Y-117669571D02*
X39789095Y-117669571D01*
X39865285Y-117741000D01*
X39903380Y-117812428D01*
X39941476Y-117955285D01*
X39979571Y-118241000D01*
X39979571Y-118598142D01*
X39941476Y-118883857D01*
X39903380Y-119026714D01*
X39865285Y-119098142D01*
X39789095Y-119169571D01*
X39712904Y-119169571D01*
X39636714Y-119098142D01*
X39598619Y-119026714D01*
X39560523Y-118883857D01*
X39522428Y-118598142D01*
X39522428Y-118241000D01*
X39560523Y-117955285D01*
X39598619Y-117812428D01*
X39636714Y-117741000D01*
X39712904Y-117669571D01*
X40322428Y-118169571D02*
X40322428Y-119669571D01*
X40703380Y-118955285D02*
X40741476Y-119098142D01*
X40817666Y-119169571D01*
X40322428Y-118955285D02*
X40360523Y-119098142D01*
X40436714Y-119169571D01*
X40589095Y-119169571D01*
X40665285Y-119098142D01*
X40703380Y-118955285D01*
X40703380Y-118169571D01*
X41427190Y-118383857D02*
X41160523Y-118383857D01*
X41160523Y-119169571D02*
X41160523Y-117669571D01*
X41541476Y-117669571D01*
X49978571Y-124802714D02*
X49978571Y-124307476D01*
X50550000Y-124574142D01*
X50550000Y-124459857D01*
X50621428Y-124383666D01*
X50692857Y-124345571D01*
X50835714Y-124307476D01*
X51192857Y-124307476D01*
X51335714Y-124345571D01*
X51407142Y-124383666D01*
X51478571Y-124459857D01*
X51478571Y-124688428D01*
X51407142Y-124764619D01*
X51335714Y-124802714D01*
X49978571Y-124040809D02*
X49978571Y-123545571D01*
X50550000Y-123812238D01*
X50550000Y-123697952D01*
X50621428Y-123621761D01*
X50692857Y-123583666D01*
X50835714Y-123545571D01*
X51192857Y-123545571D01*
X51335714Y-123583666D01*
X51407142Y-123621761D01*
X51478571Y-123697952D01*
X51478571Y-123926523D01*
X51407142Y-124002714D01*
X51335714Y-124040809D01*
X49978571Y-123050333D02*
X49978571Y-122974142D01*
X50050000Y-122897952D01*
X50121428Y-122859857D01*
X50264285Y-122821761D01*
X50550000Y-122783666D01*
X50907142Y-122783666D01*
X51192857Y-122821761D01*
X51335714Y-122859857D01*
X51407142Y-122897952D01*
X51478571Y-122974142D01*
X51478571Y-123050333D01*
X51407142Y-123126523D01*
X51335714Y-123164619D01*
X51192857Y-123202714D01*
X50907142Y-123240809D01*
X50550000Y-123240809D01*
X50264285Y-123202714D01*
X50121428Y-123164619D01*
X50050000Y-123126523D01*
X49978571Y-123050333D01*
X51478571Y-122478904D02*
X51478571Y-122288428D01*
X51192857Y-122288428D01*
X51121428Y-122364619D01*
X50978571Y-122440809D01*
X50764285Y-122478904D01*
X50407142Y-122478904D01*
X50192857Y-122440809D01*
X50050000Y-122364619D01*
X49978571Y-122250333D01*
X49978571Y-122097952D01*
X50050000Y-121983666D01*
X50192857Y-121907476D01*
X50407142Y-121869380D01*
X50764285Y-121869380D01*
X50978571Y-121907476D01*
X51121428Y-121983666D01*
X51192857Y-122059857D01*
X51478571Y-122059857D01*
X51478571Y-121869380D01*
X49809523Y-116391571D02*
X49809523Y-117391571D01*
X49619047Y-115820142D02*
X49428571Y-116891571D01*
X49923809Y-116891571D01*
X50152380Y-115891571D02*
X50685714Y-115891571D01*
X50342857Y-117391571D01*
X50990476Y-116391571D02*
X50990476Y-117891571D01*
X51371428Y-117177285D02*
X51409523Y-117320142D01*
X51485714Y-117391571D01*
X50990476Y-117177285D02*
X51028571Y-117320142D01*
X51104761Y-117391571D01*
X51257142Y-117391571D01*
X51333333Y-117320142D01*
X51371428Y-117177285D01*
X51371428Y-116391571D01*
X52095238Y-116605857D02*
X51828571Y-116605857D01*
X51828571Y-117391571D02*
X51828571Y-115891571D01*
X52209523Y-115891571D01*
X56074571Y-153885714D02*
X56074571Y-153390476D01*
X56646000Y-153657142D01*
X56646000Y-153542857D01*
X56717428Y-153466666D01*
X56788857Y-153428571D01*
X56931714Y-153390476D01*
X57288857Y-153390476D01*
X57431714Y-153428571D01*
X57503142Y-153466666D01*
X57574571Y-153542857D01*
X57574571Y-153771428D01*
X57503142Y-153847619D01*
X57431714Y-153885714D01*
X56074571Y-153123809D02*
X56074571Y-152628571D01*
X56646000Y-152895238D01*
X56646000Y-152780952D01*
X56717428Y-152704761D01*
X56788857Y-152666666D01*
X56931714Y-152628571D01*
X57288857Y-152628571D01*
X57431714Y-152666666D01*
X57503142Y-152704761D01*
X57574571Y-152780952D01*
X57574571Y-153009523D01*
X57503142Y-153085714D01*
X57431714Y-153123809D01*
X56074571Y-152133333D02*
X56074571Y-152057142D01*
X56146000Y-151980952D01*
X56217428Y-151942857D01*
X56360285Y-151904761D01*
X56646000Y-151866666D01*
X57003142Y-151866666D01*
X57288857Y-151904761D01*
X57431714Y-151942857D01*
X57503142Y-151980952D01*
X57574571Y-152057142D01*
X57574571Y-152133333D01*
X57503142Y-152209523D01*
X57431714Y-152247619D01*
X57288857Y-152285714D01*
X57003142Y-152323809D01*
X56646000Y-152323809D01*
X56360285Y-152285714D01*
X56217428Y-152247619D01*
X56146000Y-152209523D01*
X56074571Y-152133333D01*
X57574571Y-151561904D02*
X57574571Y-151371428D01*
X57288857Y-151371428D01*
X57217428Y-151447619D01*
X57074571Y-151523809D01*
X56860285Y-151561904D01*
X56503142Y-151561904D01*
X56288857Y-151523809D01*
X56146000Y-151447619D01*
X56074571Y-151333333D01*
X56074571Y-151180952D01*
X56146000Y-151066666D01*
X56288857Y-150990476D01*
X56503142Y-150952380D01*
X56860285Y-150952380D01*
X57074571Y-150990476D01*
X57217428Y-151066666D01*
X57288857Y-151142857D01*
X57574571Y-151142857D01*
X57574571Y-150952380D01*
D11*
G04 #@! TO.C,C2*
X57499000Y-113264000D02*
G75*
G03X57499000Y-113264000I-3270000J0D01*
G01*
X57459000Y-113264000D02*
X50999000Y-113264000D01*
X57459000Y-113304000D02*
X50999000Y-113304000D01*
X57459000Y-113344000D02*
X50999000Y-113344000D01*
X57457000Y-113384000D02*
X51001000Y-113384000D01*
X57456000Y-113424000D02*
X51002000Y-113424000D01*
X57453000Y-113464000D02*
X51005000Y-113464000D01*
X57451000Y-113504000D02*
X55269000Y-113504000D01*
X53189000Y-113504000D02*
X51007000Y-113504000D01*
X57447000Y-113544000D02*
X55269000Y-113544000D01*
X53189000Y-113544000D02*
X51011000Y-113544000D01*
X57444000Y-113584000D02*
X55269000Y-113584000D01*
X53189000Y-113584000D02*
X51014000Y-113584000D01*
X57440000Y-113624000D02*
X55269000Y-113624000D01*
X53189000Y-113624000D02*
X51018000Y-113624000D01*
X57435000Y-113664000D02*
X55269000Y-113664000D01*
X53189000Y-113664000D02*
X51023000Y-113664000D01*
X57430000Y-113704000D02*
X55269000Y-113704000D01*
X53189000Y-113704000D02*
X51028000Y-113704000D01*
X57424000Y-113744000D02*
X55269000Y-113744000D01*
X53189000Y-113744000D02*
X51034000Y-113744000D01*
X57418000Y-113784000D02*
X55269000Y-113784000D01*
X53189000Y-113784000D02*
X51040000Y-113784000D01*
X57411000Y-113824000D02*
X55269000Y-113824000D01*
X53189000Y-113824000D02*
X51047000Y-113824000D01*
X57404000Y-113864000D02*
X55269000Y-113864000D01*
X53189000Y-113864000D02*
X51054000Y-113864000D01*
X57396000Y-113904000D02*
X55269000Y-113904000D01*
X53189000Y-113904000D02*
X51062000Y-113904000D01*
X57388000Y-113944000D02*
X55269000Y-113944000D01*
X53189000Y-113944000D02*
X51070000Y-113944000D01*
X57379000Y-113985000D02*
X55269000Y-113985000D01*
X53189000Y-113985000D02*
X51079000Y-113985000D01*
X57370000Y-114025000D02*
X55269000Y-114025000D01*
X53189000Y-114025000D02*
X51088000Y-114025000D01*
X57360000Y-114065000D02*
X55269000Y-114065000D01*
X53189000Y-114065000D02*
X51098000Y-114065000D01*
X57350000Y-114105000D02*
X55269000Y-114105000D01*
X53189000Y-114105000D02*
X51108000Y-114105000D01*
X57339000Y-114145000D02*
X55269000Y-114145000D01*
X53189000Y-114145000D02*
X51119000Y-114145000D01*
X57327000Y-114185000D02*
X55269000Y-114185000D01*
X53189000Y-114185000D02*
X51131000Y-114185000D01*
X57315000Y-114225000D02*
X55269000Y-114225000D01*
X53189000Y-114225000D02*
X51143000Y-114225000D01*
X57303000Y-114265000D02*
X55269000Y-114265000D01*
X53189000Y-114265000D02*
X51155000Y-114265000D01*
X57290000Y-114305000D02*
X55269000Y-114305000D01*
X53189000Y-114305000D02*
X51168000Y-114305000D01*
X57276000Y-114345000D02*
X55269000Y-114345000D01*
X53189000Y-114345000D02*
X51182000Y-114345000D01*
X57262000Y-114385000D02*
X55269000Y-114385000D01*
X53189000Y-114385000D02*
X51196000Y-114385000D01*
X57247000Y-114425000D02*
X55269000Y-114425000D01*
X53189000Y-114425000D02*
X51211000Y-114425000D01*
X57231000Y-114465000D02*
X55269000Y-114465000D01*
X53189000Y-114465000D02*
X51227000Y-114465000D01*
X57215000Y-114505000D02*
X55269000Y-114505000D01*
X53189000Y-114505000D02*
X51243000Y-114505000D01*
X57199000Y-114545000D02*
X55269000Y-114545000D01*
X53189000Y-114545000D02*
X51259000Y-114545000D01*
X57181000Y-114585000D02*
X55269000Y-114585000D01*
X53189000Y-114585000D02*
X51277000Y-114585000D01*
X57163000Y-114625000D02*
X55269000Y-114625000D01*
X53189000Y-114625000D02*
X51295000Y-114625000D01*
X57145000Y-114665000D02*
X55269000Y-114665000D01*
X53189000Y-114665000D02*
X51313000Y-114665000D01*
X57125000Y-114705000D02*
X55269000Y-114705000D01*
X53189000Y-114705000D02*
X51333000Y-114705000D01*
X57105000Y-114745000D02*
X55269000Y-114745000D01*
X53189000Y-114745000D02*
X51353000Y-114745000D01*
X57085000Y-114785000D02*
X55269000Y-114785000D01*
X53189000Y-114785000D02*
X51373000Y-114785000D01*
X57063000Y-114825000D02*
X55269000Y-114825000D01*
X53189000Y-114825000D02*
X51395000Y-114825000D01*
X57041000Y-114865000D02*
X55269000Y-114865000D01*
X53189000Y-114865000D02*
X51417000Y-114865000D01*
X57019000Y-114905000D02*
X55269000Y-114905000D01*
X53189000Y-114905000D02*
X51439000Y-114905000D01*
X56995000Y-114945000D02*
X55269000Y-114945000D01*
X53189000Y-114945000D02*
X51463000Y-114945000D01*
X56971000Y-114985000D02*
X55269000Y-114985000D01*
X53189000Y-114985000D02*
X51487000Y-114985000D01*
X56945000Y-115025000D02*
X55269000Y-115025000D01*
X53189000Y-115025000D02*
X51513000Y-115025000D01*
X56919000Y-115065000D02*
X55269000Y-115065000D01*
X53189000Y-115065000D02*
X51539000Y-115065000D01*
X56893000Y-115105000D02*
X55269000Y-115105000D01*
X53189000Y-115105000D02*
X51565000Y-115105000D01*
X56865000Y-115145000D02*
X55269000Y-115145000D01*
X53189000Y-115145000D02*
X51593000Y-115145000D01*
X56836000Y-115185000D02*
X55269000Y-115185000D01*
X53189000Y-115185000D02*
X51622000Y-115185000D01*
X56807000Y-115225000D02*
X55269000Y-115225000D01*
X53189000Y-115225000D02*
X51651000Y-115225000D01*
X56777000Y-115265000D02*
X55269000Y-115265000D01*
X53189000Y-115265000D02*
X51681000Y-115265000D01*
X56745000Y-115305000D02*
X55269000Y-115305000D01*
X53189000Y-115305000D02*
X51713000Y-115305000D01*
X56713000Y-115345000D02*
X55269000Y-115345000D01*
X53189000Y-115345000D02*
X51745000Y-115345000D01*
X56679000Y-115385000D02*
X55269000Y-115385000D01*
X53189000Y-115385000D02*
X51779000Y-115385000D01*
X56645000Y-115425000D02*
X55269000Y-115425000D01*
X53189000Y-115425000D02*
X51813000Y-115425000D01*
X56609000Y-115465000D02*
X55269000Y-115465000D01*
X53189000Y-115465000D02*
X51849000Y-115465000D01*
X56572000Y-115505000D02*
X55269000Y-115505000D01*
X53189000Y-115505000D02*
X51886000Y-115505000D01*
X56534000Y-115545000D02*
X55269000Y-115545000D01*
X53189000Y-115545000D02*
X51924000Y-115545000D01*
X56494000Y-115585000D02*
X51964000Y-115585000D01*
X56453000Y-115625000D02*
X52005000Y-115625000D01*
X56411000Y-115665000D02*
X52047000Y-115665000D01*
X56366000Y-115705000D02*
X52092000Y-115705000D01*
X56321000Y-115745000D02*
X52137000Y-115745000D01*
X56273000Y-115785000D02*
X52185000Y-115785000D01*
X56224000Y-115825000D02*
X52234000Y-115825000D01*
X56173000Y-115865000D02*
X52285000Y-115865000D01*
X56119000Y-115905000D02*
X52339000Y-115905000D01*
X56063000Y-115945000D02*
X52395000Y-115945000D01*
X56005000Y-115985000D02*
X52453000Y-115985000D01*
X55943000Y-116025000D02*
X52515000Y-116025000D01*
X55879000Y-116065000D02*
X52579000Y-116065000D01*
X55810000Y-116105000D02*
X52648000Y-116105000D01*
X55738000Y-116145000D02*
X52720000Y-116145000D01*
X55661000Y-116185000D02*
X52797000Y-116185000D01*
X55579000Y-116225000D02*
X52879000Y-116225000D01*
X55491000Y-116265000D02*
X52967000Y-116265000D01*
X55394000Y-116305000D02*
X53064000Y-116305000D01*
X55288000Y-116345000D02*
X53170000Y-116345000D01*
X55169000Y-116385000D02*
X53289000Y-116385000D01*
X55031000Y-116425000D02*
X53427000Y-116425000D01*
X54862000Y-116465000D02*
X53596000Y-116465000D01*
X54631000Y-116505000D02*
X53827000Y-116505000D01*
X56068000Y-109763759D02*
X56068000Y-110393759D01*
X56383000Y-110078759D02*
X55753000Y-110078759D01*
G04 #@! TO.C,D1*
X41476000Y-143183000D02*
X41476000Y-146123000D01*
X41476000Y-146123000D02*
X46916000Y-146123000D01*
X46916000Y-146123000D02*
X46916000Y-143183000D01*
X46916000Y-143183000D02*
X41476000Y-143183000D01*
X40456000Y-144653000D02*
X41476000Y-144653000D01*
X47936000Y-144653000D02*
X46916000Y-144653000D01*
X42376000Y-143183000D02*
X42376000Y-146123000D01*
X42496000Y-143183000D02*
X42496000Y-146123000D01*
X42256000Y-143183000D02*
X42256000Y-146123000D01*
G04 #@! TO.C,D2*
X42256000Y-138441666D02*
X42256000Y-141381666D01*
X42496000Y-138441666D02*
X42496000Y-141381666D01*
X42376000Y-138441666D02*
X42376000Y-141381666D01*
X47936000Y-139911666D02*
X46916000Y-139911666D01*
X40456000Y-139911666D02*
X41476000Y-139911666D01*
X46916000Y-138441666D02*
X41476000Y-138441666D01*
X46916000Y-141381666D02*
X46916000Y-138441666D01*
X41476000Y-141381666D02*
X46916000Y-141381666D01*
X41476000Y-138441666D02*
X41476000Y-141381666D01*
G04 #@! TO.C,D3*
X41476000Y-133700333D02*
X41476000Y-136640333D01*
X41476000Y-136640333D02*
X46916000Y-136640333D01*
X46916000Y-136640333D02*
X46916000Y-133700333D01*
X46916000Y-133700333D02*
X41476000Y-133700333D01*
X40456000Y-135170333D02*
X41476000Y-135170333D01*
X47936000Y-135170333D02*
X46916000Y-135170333D01*
X42376000Y-133700333D02*
X42376000Y-136640333D01*
X42496000Y-133700333D02*
X42496000Y-136640333D01*
X42256000Y-133700333D02*
X42256000Y-136640333D01*
G04 #@! TO.C,D4*
X42256000Y-128959000D02*
X42256000Y-131899000D01*
X42496000Y-128959000D02*
X42496000Y-131899000D01*
X42376000Y-128959000D02*
X42376000Y-131899000D01*
X47936000Y-130429000D02*
X46916000Y-130429000D01*
X40456000Y-130429000D02*
X41476000Y-130429000D01*
X46916000Y-128959000D02*
X41476000Y-128959000D01*
X46916000Y-131899000D02*
X46916000Y-128959000D01*
X41476000Y-131899000D02*
X46916000Y-131899000D01*
X41476000Y-128959000D02*
X41476000Y-131899000D01*
G04 #@! TO.C,D5*
X53701000Y-140441000D02*
X53701000Y-143531000D01*
X58761000Y-141986000D02*
G75*
G03X58761000Y-141986000I-2500000J0D01*
G01*
X59251000Y-141985538D02*
G75*
G02X53701000Y-143530830I-2990000J-462D01*
G01*
X59251000Y-141986462D02*
G75*
G03X53701000Y-140441170I-2990000J462D01*
G01*
G04 #@! TO.C,D6*
X59251000Y-121793462D02*
G75*
G03X53701000Y-120248170I-2990000J462D01*
G01*
X59251000Y-121792538D02*
G75*
G02X53701000Y-123337830I-2990000J-462D01*
G01*
X58761000Y-121793000D02*
G75*
G03X58761000Y-121793000I-2500000J0D01*
G01*
X53701000Y-120248000D02*
X53701000Y-123338000D01*
G04 #@! TO.C,J1*
X46635000Y-157254000D02*
X37635000Y-157254000D01*
X37635000Y-157254000D02*
X37635000Y-148054000D01*
X37635000Y-148054000D02*
X52235000Y-148054000D01*
X52235000Y-148054000D02*
X52235000Y-150854000D01*
X52235000Y-154454000D02*
X52235000Y-157254000D01*
X52235000Y-157254000D02*
X50235000Y-157254000D01*
X50735000Y-147814000D02*
X52475000Y-147814000D01*
X52475000Y-147814000D02*
X52475000Y-149554000D01*
G04 #@! TO.C,J2*
X66354000Y-158556000D02*
X65024000Y-158556000D01*
X66354000Y-157226000D02*
X66354000Y-158556000D01*
X63754000Y-158556000D02*
X61154000Y-158556000D01*
X63754000Y-155956000D02*
X63754000Y-158556000D01*
X66354000Y-155956000D02*
X63754000Y-155956000D01*
X61154000Y-158556000D02*
X61154000Y-153356000D01*
X66354000Y-155956000D02*
X66354000Y-153356000D01*
X66354000Y-153356000D02*
X61154000Y-153356000D01*
G04 #@! TO.C,J3*
X66354000Y-108398000D02*
X61154000Y-108398000D01*
X66354000Y-110998000D02*
X66354000Y-108398000D01*
X61154000Y-113598000D02*
X61154000Y-108398000D01*
X66354000Y-110998000D02*
X63754000Y-110998000D01*
X63754000Y-110998000D02*
X63754000Y-113598000D01*
X63754000Y-113598000D02*
X61154000Y-113598000D01*
X66354000Y-112268000D02*
X66354000Y-113598000D01*
X66354000Y-113598000D02*
X65024000Y-113598000D01*
G04 #@! TO.C,R1*
X55729000Y-155924000D02*
X55399000Y-155924000D01*
X55399000Y-155924000D02*
X55399000Y-149384000D01*
X55399000Y-149384000D02*
X55729000Y-149384000D01*
X57809000Y-155924000D02*
X58139000Y-155924000D01*
X58139000Y-155924000D02*
X58139000Y-149384000D01*
X58139000Y-149384000D02*
X57809000Y-149384000D01*
G04 #@! TO.C,R2*
X49430000Y-126714000D02*
X49760000Y-126714000D01*
X49430000Y-120174000D02*
X49430000Y-126714000D01*
X49760000Y-120174000D02*
X49430000Y-120174000D01*
X52170000Y-126714000D02*
X51840000Y-126714000D01*
X52170000Y-120174000D02*
X52170000Y-126714000D01*
X51840000Y-120174000D02*
X52170000Y-120174000D01*
D12*
G04 #@! TO.C,SW1*
X58361000Y-125939000D02*
X58361000Y-126439000D01*
X58361000Y-125939000D02*
X57861000Y-125939000D01*
X58361000Y-137839000D02*
X58361000Y-137339000D01*
X58361000Y-137839000D02*
X57861000Y-137839000D01*
X54161000Y-137839000D02*
X54161000Y-137339000D01*
X54161000Y-137839000D02*
X54661000Y-137839000D01*
X54161000Y-125939000D02*
X54661000Y-125939000D01*
X54161000Y-125939000D02*
X54161000Y-126439000D01*
D11*
G04 #@! TO.C,U1*
X38060000Y-120428000D02*
X48300000Y-120428000D01*
X38060000Y-125069000D02*
X48300000Y-125069000D01*
X38060000Y-120428000D02*
X38060000Y-125069000D01*
X48300000Y-120428000D02*
X48300000Y-125069000D01*
X38060000Y-121938000D02*
X48300000Y-121938000D01*
X41330000Y-120428000D02*
X41330000Y-121938000D01*
X45031000Y-120428000D02*
X45031000Y-121938000D01*
G04 #@! TO.C,C1*
X48427000Y-113117000D02*
G75*
G03X48427000Y-113117000I-5120000J0D01*
G01*
X48387000Y-113117000D02*
X38227000Y-113117000D01*
X48387000Y-113157000D02*
X38227000Y-113157000D01*
X48387000Y-113197000D02*
X38227000Y-113197000D01*
X48386000Y-113237000D02*
X38228000Y-113237000D01*
X48385000Y-113277000D02*
X38229000Y-113277000D01*
X48384000Y-113317000D02*
X38230000Y-113317000D01*
X48382000Y-113357000D02*
X38232000Y-113357000D01*
X48380000Y-113397000D02*
X38234000Y-113397000D01*
X48377000Y-113437000D02*
X38237000Y-113437000D01*
X48375000Y-113477000D02*
X38239000Y-113477000D01*
X48372000Y-113517000D02*
X38242000Y-113517000D01*
X48369000Y-113557000D02*
X38245000Y-113557000D01*
X48365000Y-113597000D02*
X38249000Y-113597000D01*
X48361000Y-113637000D02*
X38253000Y-113637000D01*
X48357000Y-113677000D02*
X38257000Y-113677000D01*
X48352000Y-113717000D02*
X38262000Y-113717000D01*
X48347000Y-113757000D02*
X38267000Y-113757000D01*
X48342000Y-113797000D02*
X38272000Y-113797000D01*
X48337000Y-113838000D02*
X38277000Y-113838000D01*
X48331000Y-113878000D02*
X38283000Y-113878000D01*
X48325000Y-113918000D02*
X38289000Y-113918000D01*
X48318000Y-113958000D02*
X38296000Y-113958000D01*
X48311000Y-113998000D02*
X38303000Y-113998000D01*
X48304000Y-114038000D02*
X38310000Y-114038000D01*
X48297000Y-114078000D02*
X38317000Y-114078000D01*
X48289000Y-114118000D02*
X38325000Y-114118000D01*
X48281000Y-114158000D02*
X38333000Y-114158000D01*
X48272000Y-114198000D02*
X38342000Y-114198000D01*
X48263000Y-114238000D02*
X38351000Y-114238000D01*
X48254000Y-114278000D02*
X38360000Y-114278000D01*
X48245000Y-114318000D02*
X38369000Y-114318000D01*
X48235000Y-114358000D02*
X38379000Y-114358000D01*
X48225000Y-114398000D02*
X44548000Y-114398000D01*
X42066000Y-114398000D02*
X38389000Y-114398000D01*
X48214000Y-114438000D02*
X44548000Y-114438000D01*
X42066000Y-114438000D02*
X38400000Y-114438000D01*
X48204000Y-114478000D02*
X44548000Y-114478000D01*
X42066000Y-114478000D02*
X38410000Y-114478000D01*
X48192000Y-114518000D02*
X44548000Y-114518000D01*
X42066000Y-114518000D02*
X38422000Y-114518000D01*
X48181000Y-114558000D02*
X44548000Y-114558000D01*
X42066000Y-114558000D02*
X38433000Y-114558000D01*
X48169000Y-114598000D02*
X44548000Y-114598000D01*
X42066000Y-114598000D02*
X38445000Y-114598000D01*
X48157000Y-114638000D02*
X44548000Y-114638000D01*
X42066000Y-114638000D02*
X38457000Y-114638000D01*
X48144000Y-114678000D02*
X44548000Y-114678000D01*
X42066000Y-114678000D02*
X38470000Y-114678000D01*
X48131000Y-114718000D02*
X44548000Y-114718000D01*
X42066000Y-114718000D02*
X38483000Y-114718000D01*
X48118000Y-114758000D02*
X44548000Y-114758000D01*
X42066000Y-114758000D02*
X38496000Y-114758000D01*
X48104000Y-114798000D02*
X44548000Y-114798000D01*
X42066000Y-114798000D02*
X38510000Y-114798000D01*
X48090000Y-114838000D02*
X44548000Y-114838000D01*
X42066000Y-114838000D02*
X38524000Y-114838000D01*
X48075000Y-114878000D02*
X44548000Y-114878000D01*
X42066000Y-114878000D02*
X38539000Y-114878000D01*
X48061000Y-114918000D02*
X44548000Y-114918000D01*
X42066000Y-114918000D02*
X38553000Y-114918000D01*
X48045000Y-114958000D02*
X44548000Y-114958000D01*
X42066000Y-114958000D02*
X38569000Y-114958000D01*
X48030000Y-114998000D02*
X44548000Y-114998000D01*
X42066000Y-114998000D02*
X38584000Y-114998000D01*
X48014000Y-115038000D02*
X44548000Y-115038000D01*
X42066000Y-115038000D02*
X38600000Y-115038000D01*
X47997000Y-115078000D02*
X44548000Y-115078000D01*
X42066000Y-115078000D02*
X38617000Y-115078000D01*
X47981000Y-115118000D02*
X44548000Y-115118000D01*
X42066000Y-115118000D02*
X38633000Y-115118000D01*
X47964000Y-115158000D02*
X44548000Y-115158000D01*
X42066000Y-115158000D02*
X38650000Y-115158000D01*
X47946000Y-115198000D02*
X44548000Y-115198000D01*
X42066000Y-115198000D02*
X38668000Y-115198000D01*
X47928000Y-115238000D02*
X44548000Y-115238000D01*
X42066000Y-115238000D02*
X38686000Y-115238000D01*
X47910000Y-115278000D02*
X44548000Y-115278000D01*
X42066000Y-115278000D02*
X38704000Y-115278000D01*
X47891000Y-115318000D02*
X44548000Y-115318000D01*
X42066000Y-115318000D02*
X38723000Y-115318000D01*
X47871000Y-115358000D02*
X44548000Y-115358000D01*
X42066000Y-115358000D02*
X38743000Y-115358000D01*
X47852000Y-115398000D02*
X44548000Y-115398000D01*
X42066000Y-115398000D02*
X38762000Y-115398000D01*
X47832000Y-115438000D02*
X44548000Y-115438000D01*
X42066000Y-115438000D02*
X38782000Y-115438000D01*
X47811000Y-115478000D02*
X44548000Y-115478000D01*
X42066000Y-115478000D02*
X38803000Y-115478000D01*
X47790000Y-115518000D02*
X44548000Y-115518000D01*
X42066000Y-115518000D02*
X38824000Y-115518000D01*
X47769000Y-115558000D02*
X44548000Y-115558000D01*
X42066000Y-115558000D02*
X38845000Y-115558000D01*
X47747000Y-115598000D02*
X44548000Y-115598000D01*
X42066000Y-115598000D02*
X38867000Y-115598000D01*
X47724000Y-115638000D02*
X44548000Y-115638000D01*
X42066000Y-115638000D02*
X38890000Y-115638000D01*
X47702000Y-115678000D02*
X44548000Y-115678000D01*
X42066000Y-115678000D02*
X38912000Y-115678000D01*
X47678000Y-115718000D02*
X44548000Y-115718000D01*
X42066000Y-115718000D02*
X38936000Y-115718000D01*
X47654000Y-115758000D02*
X44548000Y-115758000D01*
X42066000Y-115758000D02*
X38960000Y-115758000D01*
X47630000Y-115798000D02*
X44548000Y-115798000D01*
X42066000Y-115798000D02*
X38984000Y-115798000D01*
X47605000Y-115838000D02*
X44548000Y-115838000D01*
X42066000Y-115838000D02*
X39009000Y-115838000D01*
X47580000Y-115878000D02*
X44548000Y-115878000D01*
X42066000Y-115878000D02*
X39034000Y-115878000D01*
X47554000Y-115918000D02*
X44548000Y-115918000D01*
X42066000Y-115918000D02*
X39060000Y-115918000D01*
X47528000Y-115958000D02*
X44548000Y-115958000D01*
X42066000Y-115958000D02*
X39086000Y-115958000D01*
X47501000Y-115998000D02*
X44548000Y-115998000D01*
X42066000Y-115998000D02*
X39113000Y-115998000D01*
X47473000Y-116038000D02*
X44548000Y-116038000D01*
X42066000Y-116038000D02*
X39141000Y-116038000D01*
X47445000Y-116078000D02*
X44548000Y-116078000D01*
X42066000Y-116078000D02*
X39169000Y-116078000D01*
X47417000Y-116118000D02*
X44548000Y-116118000D01*
X42066000Y-116118000D02*
X39197000Y-116118000D01*
X47387000Y-116158000D02*
X44548000Y-116158000D01*
X42066000Y-116158000D02*
X39227000Y-116158000D01*
X47357000Y-116198000D02*
X44548000Y-116198000D01*
X42066000Y-116198000D02*
X39257000Y-116198000D01*
X47327000Y-116238000D02*
X44548000Y-116238000D01*
X42066000Y-116238000D02*
X39287000Y-116238000D01*
X47296000Y-116278000D02*
X44548000Y-116278000D01*
X42066000Y-116278000D02*
X39318000Y-116278000D01*
X47264000Y-116318000D02*
X44548000Y-116318000D01*
X42066000Y-116318000D02*
X39350000Y-116318000D01*
X47232000Y-116358000D02*
X44548000Y-116358000D01*
X42066000Y-116358000D02*
X39382000Y-116358000D01*
X47199000Y-116398000D02*
X44548000Y-116398000D01*
X42066000Y-116398000D02*
X39415000Y-116398000D01*
X47165000Y-116438000D02*
X44548000Y-116438000D01*
X42066000Y-116438000D02*
X39449000Y-116438000D01*
X47131000Y-116478000D02*
X44548000Y-116478000D01*
X42066000Y-116478000D02*
X39483000Y-116478000D01*
X47096000Y-116518000D02*
X44548000Y-116518000D01*
X42066000Y-116518000D02*
X39518000Y-116518000D01*
X47060000Y-116558000D02*
X44548000Y-116558000D01*
X42066000Y-116558000D02*
X39554000Y-116558000D01*
X47023000Y-116598000D02*
X44548000Y-116598000D01*
X42066000Y-116598000D02*
X39591000Y-116598000D01*
X46986000Y-116638000D02*
X44548000Y-116638000D01*
X42066000Y-116638000D02*
X39628000Y-116638000D01*
X46947000Y-116678000D02*
X44548000Y-116678000D01*
X42066000Y-116678000D02*
X39667000Y-116678000D01*
X46908000Y-116718000D02*
X44548000Y-116718000D01*
X42066000Y-116718000D02*
X39706000Y-116718000D01*
X46868000Y-116758000D02*
X44548000Y-116758000D01*
X42066000Y-116758000D02*
X39746000Y-116758000D01*
X46827000Y-116798000D02*
X44548000Y-116798000D01*
X42066000Y-116798000D02*
X39787000Y-116798000D01*
X46785000Y-116838000D02*
X44548000Y-116838000D01*
X42066000Y-116838000D02*
X39829000Y-116838000D01*
X46743000Y-116878000D02*
X39871000Y-116878000D01*
X46699000Y-116918000D02*
X39915000Y-116918000D01*
X46654000Y-116958000D02*
X39960000Y-116958000D01*
X46608000Y-116998000D02*
X40006000Y-116998000D01*
X46561000Y-117038000D02*
X40053000Y-117038000D01*
X46513000Y-117078000D02*
X40101000Y-117078000D01*
X46463000Y-117118000D02*
X40151000Y-117118000D01*
X46413000Y-117158000D02*
X40201000Y-117158000D01*
X46361000Y-117198000D02*
X40253000Y-117198000D01*
X46307000Y-117238000D02*
X40307000Y-117238000D01*
X46252000Y-117278000D02*
X40362000Y-117278000D01*
X46196000Y-117318000D02*
X40418000Y-117318000D01*
X46137000Y-117358000D02*
X40477000Y-117358000D01*
X46077000Y-117398000D02*
X40537000Y-117398000D01*
X46016000Y-117438000D02*
X40598000Y-117438000D01*
X45952000Y-117478000D02*
X40662000Y-117478000D01*
X45886000Y-117518000D02*
X40728000Y-117518000D01*
X45817000Y-117558000D02*
X40797000Y-117558000D01*
X45746000Y-117598000D02*
X40868000Y-117598000D01*
X45672000Y-117638000D02*
X40942000Y-117638000D01*
X45596000Y-117678000D02*
X41018000Y-117678000D01*
X45516000Y-117718000D02*
X41098000Y-117718000D01*
X45432000Y-117758000D02*
X41182000Y-117758000D01*
X45344000Y-117798000D02*
X41270000Y-117798000D01*
X45251000Y-117838000D02*
X41363000Y-117838000D01*
X45153000Y-117878000D02*
X41461000Y-117878000D01*
X45049000Y-117918000D02*
X41565000Y-117918000D01*
X44937000Y-117958000D02*
X41677000Y-117958000D01*
X44817000Y-117998000D02*
X41797000Y-117998000D01*
X44685000Y-118038000D02*
X41929000Y-118038000D01*
X44537000Y-118078000D02*
X42077000Y-118078000D01*
X44369000Y-118118000D02*
X42245000Y-118118000D01*
X44169000Y-118158000D02*
X42445000Y-118158000D01*
X43906000Y-118198000D02*
X42708000Y-118198000D01*
X46182000Y-107637354D02*
X46182000Y-108637354D01*
X46682000Y-108137354D02*
X45682000Y-108137354D01*
D13*
G04 #@! TO.C,G\002A\002A\002A*
G36*
X52159958Y-108200503D02*
X52187051Y-108201126D01*
X52207180Y-108201893D01*
X52221845Y-108202985D01*
X52232549Y-108204584D01*
X52240794Y-108206870D01*
X52248080Y-108210025D01*
X52250887Y-108211478D01*
X52266891Y-108223055D01*
X52277043Y-108238329D01*
X52282094Y-108258767D01*
X52282990Y-108274226D01*
X52280705Y-108298791D01*
X52272937Y-108317275D01*
X52259103Y-108330497D01*
X52238621Y-108339281D01*
X52236446Y-108339878D01*
X52218743Y-108344560D01*
X52286091Y-108454158D01*
X52257556Y-108452904D01*
X52229020Y-108451650D01*
X52199432Y-108399791D01*
X52169843Y-108347933D01*
X52137733Y-108347933D01*
X52137733Y-108453766D01*
X52086933Y-108453766D01*
X52086933Y-108305600D01*
X52137377Y-108305600D01*
X52169029Y-108305600D01*
X52186350Y-108305000D01*
X52201830Y-108303424D01*
X52212228Y-108301207D01*
X52212513Y-108301102D01*
X52223388Y-108295473D01*
X52228925Y-108287508D01*
X52230741Y-108274525D01*
X52230801Y-108270772D01*
X52229142Y-108258598D01*
X52223316Y-108250086D01*
X52212229Y-108244646D01*
X52194786Y-108241688D01*
X52174999Y-108240702D01*
X52139850Y-108239983D01*
X52138613Y-108272792D01*
X52137377Y-108305600D01*
X52086933Y-108305600D01*
X52086933Y-108199067D01*
X52159958Y-108200503D01*
X52159958Y-108200503D01*
G37*
X52159958Y-108200503D02*
X52187051Y-108201126D01*
X52207180Y-108201893D01*
X52221845Y-108202985D01*
X52232549Y-108204584D01*
X52240794Y-108206870D01*
X52248080Y-108210025D01*
X52250887Y-108211478D01*
X52266891Y-108223055D01*
X52277043Y-108238329D01*
X52282094Y-108258767D01*
X52282990Y-108274226D01*
X52280705Y-108298791D01*
X52272937Y-108317275D01*
X52259103Y-108330497D01*
X52238621Y-108339281D01*
X52236446Y-108339878D01*
X52218743Y-108344560D01*
X52286091Y-108454158D01*
X52257556Y-108452904D01*
X52229020Y-108451650D01*
X52199432Y-108399791D01*
X52169843Y-108347933D01*
X52137733Y-108347933D01*
X52137733Y-108453766D01*
X52086933Y-108453766D01*
X52086933Y-108305600D01*
X52137377Y-108305600D01*
X52169029Y-108305600D01*
X52186350Y-108305000D01*
X52201830Y-108303424D01*
X52212228Y-108301207D01*
X52212513Y-108301102D01*
X52223388Y-108295473D01*
X52228925Y-108287508D01*
X52230741Y-108274525D01*
X52230801Y-108270772D01*
X52229142Y-108258598D01*
X52223316Y-108250086D01*
X52212229Y-108244646D01*
X52194786Y-108241688D01*
X52174999Y-108240702D01*
X52139850Y-108239983D01*
X52138613Y-108272792D01*
X52137377Y-108305600D01*
X52086933Y-108305600D01*
X52086933Y-108199067D01*
X52159958Y-108200503D01*
G36*
X52223660Y-108104410D02*
X52265683Y-108115439D01*
X52303491Y-108133053D01*
X52336558Y-108156622D01*
X52364358Y-108185518D01*
X52386364Y-108219112D01*
X52402048Y-108256775D01*
X52410885Y-108297877D01*
X52412347Y-108341791D01*
X52408371Y-108375731D01*
X52397378Y-108413583D01*
X52379024Y-108448934D01*
X52354279Y-108480793D01*
X52324113Y-108508169D01*
X52289496Y-108530071D01*
X52251399Y-108545508D01*
X52238896Y-108548858D01*
X52213243Y-108552995D01*
X52183876Y-108554725D01*
X52154185Y-108554054D01*
X52127556Y-108550990D01*
X52116566Y-108548595D01*
X52074866Y-108533430D01*
X52037932Y-108511877D01*
X52006308Y-108484697D01*
X51980535Y-108452648D01*
X51961156Y-108416490D01*
X51948714Y-108376982D01*
X51943751Y-108334884D01*
X51943887Y-108330840D01*
X52007563Y-108330840D01*
X52009964Y-108357019D01*
X52020368Y-108395425D01*
X52037118Y-108428919D01*
X52059453Y-108456996D01*
X52086614Y-108479152D01*
X52117841Y-108494882D01*
X52152374Y-108503682D01*
X52189453Y-108505047D01*
X52224516Y-108499467D01*
X52256733Y-108487249D01*
X52284889Y-108468449D01*
X52308516Y-108444153D01*
X52327142Y-108415446D01*
X52340300Y-108383414D01*
X52347519Y-108349141D01*
X52348330Y-108313715D01*
X52342263Y-108278220D01*
X52332170Y-108250563D01*
X52315599Y-108222590D01*
X52293564Y-108197109D01*
X52268086Y-108176090D01*
X52241184Y-108161505D01*
X52240675Y-108161305D01*
X52213231Y-108153979D01*
X52182010Y-108151151D01*
X52150379Y-108152822D01*
X52121706Y-108158994D01*
X52115361Y-108161253D01*
X52084847Y-108177588D01*
X52058437Y-108200395D01*
X52036817Y-108228398D01*
X52020674Y-108260323D01*
X52010694Y-108294895D01*
X52007563Y-108330840D01*
X51943887Y-108330840D01*
X51944659Y-108307913D01*
X51952559Y-108264075D01*
X51967554Y-108224331D01*
X51989064Y-108189194D01*
X52016512Y-108159180D01*
X52049319Y-108134801D01*
X52086908Y-108116572D01*
X52128698Y-108105007D01*
X52174113Y-108100619D01*
X52177950Y-108100593D01*
X52223660Y-108104410D01*
X52223660Y-108104410D01*
G37*
X52223660Y-108104410D02*
X52265683Y-108115439D01*
X52303491Y-108133053D01*
X52336558Y-108156622D01*
X52364358Y-108185518D01*
X52386364Y-108219112D01*
X52402048Y-108256775D01*
X52410885Y-108297877D01*
X52412347Y-108341791D01*
X52408371Y-108375731D01*
X52397378Y-108413583D01*
X52379024Y-108448934D01*
X52354279Y-108480793D01*
X52324113Y-108508169D01*
X52289496Y-108530071D01*
X52251399Y-108545508D01*
X52238896Y-108548858D01*
X52213243Y-108552995D01*
X52183876Y-108554725D01*
X52154185Y-108554054D01*
X52127556Y-108550990D01*
X52116566Y-108548595D01*
X52074866Y-108533430D01*
X52037932Y-108511877D01*
X52006308Y-108484697D01*
X51980535Y-108452648D01*
X51961156Y-108416490D01*
X51948714Y-108376982D01*
X51943751Y-108334884D01*
X51943887Y-108330840D01*
X52007563Y-108330840D01*
X52009964Y-108357019D01*
X52020368Y-108395425D01*
X52037118Y-108428919D01*
X52059453Y-108456996D01*
X52086614Y-108479152D01*
X52117841Y-108494882D01*
X52152374Y-108503682D01*
X52189453Y-108505047D01*
X52224516Y-108499467D01*
X52256733Y-108487249D01*
X52284889Y-108468449D01*
X52308516Y-108444153D01*
X52327142Y-108415446D01*
X52340300Y-108383414D01*
X52347519Y-108349141D01*
X52348330Y-108313715D01*
X52342263Y-108278220D01*
X52332170Y-108250563D01*
X52315599Y-108222590D01*
X52293564Y-108197109D01*
X52268086Y-108176090D01*
X52241184Y-108161505D01*
X52240675Y-108161305D01*
X52213231Y-108153979D01*
X52182010Y-108151151D01*
X52150379Y-108152822D01*
X52121706Y-108158994D01*
X52115361Y-108161253D01*
X52084847Y-108177588D01*
X52058437Y-108200395D01*
X52036817Y-108228398D01*
X52020674Y-108260323D01*
X52010694Y-108294895D01*
X52007563Y-108330840D01*
X51943887Y-108330840D01*
X51944659Y-108307913D01*
X51952559Y-108264075D01*
X51967554Y-108224331D01*
X51989064Y-108189194D01*
X52016512Y-108159180D01*
X52049319Y-108134801D01*
X52086908Y-108116572D01*
X52128698Y-108105007D01*
X52174113Y-108100619D01*
X52177950Y-108100593D01*
X52223660Y-108104410D01*
G36*
X51358800Y-108652833D02*
X51390821Y-108621122D01*
X51436559Y-108581224D01*
X51485033Y-108549303D01*
X51536022Y-108525421D01*
X51589306Y-108509638D01*
X51644662Y-108502014D01*
X51701871Y-108502611D01*
X51760710Y-108511489D01*
X51776206Y-108515151D01*
X51817608Y-108528132D01*
X51853163Y-108545024D01*
X51885050Y-108567036D01*
X51909245Y-108589006D01*
X51936785Y-108621195D01*
X51959088Y-108657556D01*
X51976524Y-108698954D01*
X51989460Y-108746252D01*
X51997809Y-108796555D01*
X51998673Y-108808005D01*
X51999454Y-108827578D01*
X52000147Y-108854930D01*
X52000750Y-108889718D01*
X52001258Y-108931599D01*
X52001667Y-108980229D01*
X52001973Y-109035265D01*
X52002173Y-109096364D01*
X52002262Y-109163182D01*
X52002266Y-109182847D01*
X52002266Y-109533267D01*
X51824903Y-109533267D01*
X51823342Y-109172375D01*
X51823053Y-109105973D01*
X51822773Y-109047465D01*
X51822463Y-108996281D01*
X51822087Y-108951847D01*
X51821608Y-108913592D01*
X51820987Y-108880944D01*
X51820187Y-108853331D01*
X51819172Y-108830181D01*
X51817904Y-108810923D01*
X51816345Y-108794984D01*
X51814458Y-108781792D01*
X51812206Y-108770776D01*
X51809552Y-108761364D01*
X51806457Y-108752983D01*
X51802885Y-108745062D01*
X51798799Y-108737029D01*
X51794367Y-108728700D01*
X51776112Y-108701596D01*
X51753164Y-108680587D01*
X51724781Y-108665193D01*
X51690220Y-108654934D01*
X51676487Y-108652462D01*
X51631188Y-108649690D01*
X51585767Y-108655327D01*
X51540350Y-108669319D01*
X51495063Y-108691609D01*
X51450032Y-108722145D01*
X51405382Y-108760871D01*
X51389491Y-108776739D01*
X51358800Y-108808464D01*
X51358800Y-109533267D01*
X51181000Y-109533267D01*
X51181000Y-108140500D01*
X51358800Y-108140500D01*
X51358800Y-108652833D01*
X51358800Y-108652833D01*
G37*
X51358800Y-108652833D02*
X51390821Y-108621122D01*
X51436559Y-108581224D01*
X51485033Y-108549303D01*
X51536022Y-108525421D01*
X51589306Y-108509638D01*
X51644662Y-108502014D01*
X51701871Y-108502611D01*
X51760710Y-108511489D01*
X51776206Y-108515151D01*
X51817608Y-108528132D01*
X51853163Y-108545024D01*
X51885050Y-108567036D01*
X51909245Y-108589006D01*
X51936785Y-108621195D01*
X51959088Y-108657556D01*
X51976524Y-108698954D01*
X51989460Y-108746252D01*
X51997809Y-108796555D01*
X51998673Y-108808005D01*
X51999454Y-108827578D01*
X52000147Y-108854930D01*
X52000750Y-108889718D01*
X52001258Y-108931599D01*
X52001667Y-108980229D01*
X52001973Y-109035265D01*
X52002173Y-109096364D01*
X52002262Y-109163182D01*
X52002266Y-109182847D01*
X52002266Y-109533267D01*
X51824903Y-109533267D01*
X51823342Y-109172375D01*
X51823053Y-109105973D01*
X51822773Y-109047465D01*
X51822463Y-108996281D01*
X51822087Y-108951847D01*
X51821608Y-108913592D01*
X51820987Y-108880944D01*
X51820187Y-108853331D01*
X51819172Y-108830181D01*
X51817904Y-108810923D01*
X51816345Y-108794984D01*
X51814458Y-108781792D01*
X51812206Y-108770776D01*
X51809552Y-108761364D01*
X51806457Y-108752983D01*
X51802885Y-108745062D01*
X51798799Y-108737029D01*
X51794367Y-108728700D01*
X51776112Y-108701596D01*
X51753164Y-108680587D01*
X51724781Y-108665193D01*
X51690220Y-108654934D01*
X51676487Y-108652462D01*
X51631188Y-108649690D01*
X51585767Y-108655327D01*
X51540350Y-108669319D01*
X51495063Y-108691609D01*
X51450032Y-108722145D01*
X51405382Y-108760871D01*
X51389491Y-108776739D01*
X51358800Y-108808464D01*
X51358800Y-109533267D01*
X51181000Y-109533267D01*
X51181000Y-108140500D01*
X51358800Y-108140500D01*
X51358800Y-108652833D01*
G36*
X49149000Y-108305600D02*
X48687566Y-108305600D01*
X48687566Y-109533267D01*
X48501300Y-109533267D01*
X48501300Y-108305600D01*
X48044099Y-108305600D01*
X48044099Y-108140500D01*
X49149000Y-108140500D01*
X49149000Y-108305600D01*
X49149000Y-108305600D01*
G37*
X49149000Y-108305600D02*
X48687566Y-108305600D01*
X48687566Y-109533267D01*
X48501300Y-109533267D01*
X48501300Y-108305600D01*
X48044099Y-108305600D01*
X48044099Y-108140500D01*
X49149000Y-108140500D01*
X49149000Y-108305600D01*
G36*
X50745382Y-108504977D02*
X50801918Y-108514311D01*
X50854626Y-108529550D01*
X50872191Y-108536411D01*
X50919764Y-108560776D01*
X50962987Y-108591684D01*
X51000940Y-108628288D01*
X51032705Y-108669739D01*
X51050883Y-108701417D01*
X51059054Y-108720092D01*
X51067736Y-108743722D01*
X51075852Y-108768996D01*
X51082327Y-108792606D01*
X51085642Y-108808308D01*
X51088610Y-108826300D01*
X50907275Y-108826300D01*
X50900105Y-108792937D01*
X50887955Y-108755594D01*
X50868708Y-108722670D01*
X50842785Y-108694690D01*
X50810607Y-108672176D01*
X50797883Y-108665656D01*
X50772505Y-108655070D01*
X50747981Y-108648053D01*
X50721612Y-108644091D01*
X50690698Y-108642669D01*
X50677233Y-108642688D01*
X50632986Y-108645767D01*
X50593899Y-108654273D01*
X50558263Y-108668683D01*
X50534493Y-108682515D01*
X50500413Y-108709833D01*
X50470378Y-108744150D01*
X50444718Y-108784855D01*
X50423764Y-108831339D01*
X50407848Y-108882991D01*
X50397980Y-108934250D01*
X50395707Y-108957279D01*
X50394337Y-108986342D01*
X50393848Y-109019057D01*
X50394217Y-109053042D01*
X50395421Y-109085914D01*
X50397437Y-109115291D01*
X50399905Y-109136618D01*
X50411545Y-109192555D01*
X50428651Y-109243155D01*
X50450953Y-109288075D01*
X50478179Y-109326973D01*
X50510058Y-109359507D01*
X50546318Y-109385333D01*
X50586690Y-109404109D01*
X50618892Y-109413230D01*
X50641190Y-109416404D01*
X50668013Y-109417831D01*
X50696642Y-109417593D01*
X50724360Y-109415767D01*
X50748449Y-109412432D01*
X50762320Y-109409047D01*
X50801399Y-109392746D01*
X50835145Y-109370827D01*
X50862958Y-109343918D01*
X50884236Y-109312646D01*
X50898379Y-109277640D01*
X50901776Y-109263392D01*
X50906934Y-109236933D01*
X51088610Y-109236933D01*
X51085642Y-109254925D01*
X51079984Y-109280311D01*
X51071243Y-109309218D01*
X51060680Y-109337964D01*
X51049557Y-109362869D01*
X51046942Y-109367869D01*
X51018984Y-109412107D01*
X50986359Y-109450078D01*
X50948527Y-109482183D01*
X50904949Y-109508821D01*
X50855086Y-109530393D01*
X50808466Y-109544756D01*
X50790980Y-109548968D01*
X50774363Y-109552016D01*
X50756486Y-109554128D01*
X50735218Y-109555532D01*
X50708429Y-109556454D01*
X50696283Y-109556727D01*
X50670221Y-109556987D01*
X50645058Y-109556758D01*
X50622896Y-109556092D01*
X50605834Y-109555042D01*
X50598916Y-109554250D01*
X50539866Y-109541236D01*
X50483744Y-109521192D01*
X50431414Y-109494614D01*
X50383744Y-109461999D01*
X50341597Y-109423845D01*
X50312723Y-109390041D01*
X50293931Y-109362164D01*
X50275132Y-109328800D01*
X50257761Y-109292805D01*
X50243255Y-109257035D01*
X50237853Y-109241167D01*
X50222191Y-109179990D01*
X50212309Y-109114968D01*
X50208160Y-109047788D01*
X50209700Y-108980137D01*
X50216883Y-108913702D01*
X50229666Y-108850170D01*
X50248002Y-108791228D01*
X50249971Y-108786083D01*
X50276445Y-108728514D01*
X50308580Y-108677183D01*
X50346299Y-108632167D01*
X50389522Y-108593542D01*
X50438170Y-108561386D01*
X50492163Y-108535777D01*
X50514798Y-108527531D01*
X50569728Y-108512825D01*
X50627596Y-108504192D01*
X50686711Y-108501590D01*
X50745382Y-108504977D01*
X50745382Y-108504977D01*
G37*
X50745382Y-108504977D02*
X50801918Y-108514311D01*
X50854626Y-108529550D01*
X50872191Y-108536411D01*
X50919764Y-108560776D01*
X50962987Y-108591684D01*
X51000940Y-108628288D01*
X51032705Y-108669739D01*
X51050883Y-108701417D01*
X51059054Y-108720092D01*
X51067736Y-108743722D01*
X51075852Y-108768996D01*
X51082327Y-108792606D01*
X51085642Y-108808308D01*
X51088610Y-108826300D01*
X50907275Y-108826300D01*
X50900105Y-108792937D01*
X50887955Y-108755594D01*
X50868708Y-108722670D01*
X50842785Y-108694690D01*
X50810607Y-108672176D01*
X50797883Y-108665656D01*
X50772505Y-108655070D01*
X50747981Y-108648053D01*
X50721612Y-108644091D01*
X50690698Y-108642669D01*
X50677233Y-108642688D01*
X50632986Y-108645767D01*
X50593899Y-108654273D01*
X50558263Y-108668683D01*
X50534493Y-108682515D01*
X50500413Y-108709833D01*
X50470378Y-108744150D01*
X50444718Y-108784855D01*
X50423764Y-108831339D01*
X50407848Y-108882991D01*
X50397980Y-108934250D01*
X50395707Y-108957279D01*
X50394337Y-108986342D01*
X50393848Y-109019057D01*
X50394217Y-109053042D01*
X50395421Y-109085914D01*
X50397437Y-109115291D01*
X50399905Y-109136618D01*
X50411545Y-109192555D01*
X50428651Y-109243155D01*
X50450953Y-109288075D01*
X50478179Y-109326973D01*
X50510058Y-109359507D01*
X50546318Y-109385333D01*
X50586690Y-109404109D01*
X50618892Y-109413230D01*
X50641190Y-109416404D01*
X50668013Y-109417831D01*
X50696642Y-109417593D01*
X50724360Y-109415767D01*
X50748449Y-109412432D01*
X50762320Y-109409047D01*
X50801399Y-109392746D01*
X50835145Y-109370827D01*
X50862958Y-109343918D01*
X50884236Y-109312646D01*
X50898379Y-109277640D01*
X50901776Y-109263392D01*
X50906934Y-109236933D01*
X51088610Y-109236933D01*
X51085642Y-109254925D01*
X51079984Y-109280311D01*
X51071243Y-109309218D01*
X51060680Y-109337964D01*
X51049557Y-109362869D01*
X51046942Y-109367869D01*
X51018984Y-109412107D01*
X50986359Y-109450078D01*
X50948527Y-109482183D01*
X50904949Y-109508821D01*
X50855086Y-109530393D01*
X50808466Y-109544756D01*
X50790980Y-109548968D01*
X50774363Y-109552016D01*
X50756486Y-109554128D01*
X50735218Y-109555532D01*
X50708429Y-109556454D01*
X50696283Y-109556727D01*
X50670221Y-109556987D01*
X50645058Y-109556758D01*
X50622896Y-109556092D01*
X50605834Y-109555042D01*
X50598916Y-109554250D01*
X50539866Y-109541236D01*
X50483744Y-109521192D01*
X50431414Y-109494614D01*
X50383744Y-109461999D01*
X50341597Y-109423845D01*
X50312723Y-109390041D01*
X50293931Y-109362164D01*
X50275132Y-109328800D01*
X50257761Y-109292805D01*
X50243255Y-109257035D01*
X50237853Y-109241167D01*
X50222191Y-109179990D01*
X50212309Y-109114968D01*
X50208160Y-109047788D01*
X50209700Y-108980137D01*
X50216883Y-108913702D01*
X50229666Y-108850170D01*
X50248002Y-108791228D01*
X50249971Y-108786083D01*
X50276445Y-108728514D01*
X50308580Y-108677183D01*
X50346299Y-108632167D01*
X50389522Y-108593542D01*
X50438170Y-108561386D01*
X50492163Y-108535777D01*
X50514798Y-108527531D01*
X50569728Y-108512825D01*
X50627596Y-108504192D01*
X50686711Y-108501590D01*
X50745382Y-108504977D01*
G36*
X49726798Y-108505354D02*
X49776313Y-108512037D01*
X49822405Y-108523360D01*
X49859092Y-108536367D01*
X49912300Y-108562210D01*
X49960342Y-108594597D01*
X50003054Y-108633246D01*
X50040274Y-108677869D01*
X50071838Y-108728182D01*
X50097583Y-108783900D01*
X50117346Y-108844739D01*
X50130964Y-108910411D01*
X50138273Y-108980634D01*
X50139565Y-109026325D01*
X50139599Y-109071833D01*
X49376768Y-109071833D01*
X49379828Y-109098193D01*
X49389727Y-109158664D01*
X49404701Y-109212583D01*
X49424893Y-109260284D01*
X49450450Y-109302100D01*
X49481517Y-109338366D01*
X49486888Y-109343561D01*
X49510902Y-109364649D01*
X49533544Y-109380589D01*
X49558036Y-109393343D01*
X49587601Y-109404875D01*
X49587615Y-109404879D01*
X49601766Y-109409564D01*
X49614148Y-109412807D01*
X49626899Y-109414877D01*
X49642158Y-109416038D01*
X49662060Y-109416558D01*
X49682399Y-109416690D01*
X49708322Y-109416572D01*
X49727942Y-109415911D01*
X49743419Y-109414480D01*
X49756912Y-109412053D01*
X49770577Y-109408404D01*
X49775384Y-109406927D01*
X49818854Y-109390100D01*
X49856061Y-109369046D01*
X49886616Y-109344124D01*
X49910132Y-109315690D01*
X49926223Y-109284104D01*
X49932674Y-109261275D01*
X49937501Y-109236933D01*
X50121573Y-109236933D01*
X50117845Y-109257042D01*
X50104280Y-109307608D01*
X50083212Y-109354911D01*
X50055142Y-109398454D01*
X50020569Y-109437744D01*
X49979992Y-109472285D01*
X49933909Y-109501581D01*
X49882821Y-109525137D01*
X49831042Y-109541513D01*
X49782164Y-109551121D01*
X49728814Y-109556844D01*
X49674109Y-109558545D01*
X49621170Y-109556086D01*
X49589266Y-109552204D01*
X49526557Y-109538325D01*
X49467623Y-109516908D01*
X49412186Y-109487847D01*
X49400575Y-109480511D01*
X49354071Y-109445210D01*
X49313082Y-109403673D01*
X49277770Y-109356223D01*
X49248294Y-109303182D01*
X49224816Y-109244872D01*
X49207497Y-109181616D01*
X49196496Y-109113737D01*
X49192630Y-109063367D01*
X49192765Y-108990743D01*
X49198489Y-108932133D01*
X49380742Y-108932133D01*
X49949099Y-108932133D01*
X49949099Y-108922227D01*
X49947776Y-108910839D01*
X49944212Y-108893771D01*
X49939020Y-108873318D01*
X49932811Y-108851772D01*
X49926198Y-108831426D01*
X49921480Y-108818685D01*
X49900835Y-108776866D01*
X49874061Y-108738684D01*
X49850175Y-108713152D01*
X49826229Y-108692471D01*
X49803151Y-108676773D01*
X49777668Y-108664100D01*
X49751784Y-108654284D01*
X49735057Y-108648964D01*
X49720217Y-108645548D01*
X49704399Y-108643628D01*
X49684734Y-108642800D01*
X49669699Y-108642656D01*
X49633510Y-108643850D01*
X49602494Y-108648081D01*
X49573706Y-108655983D01*
X49544200Y-108668188D01*
X49538772Y-108670799D01*
X49513845Y-108686086D01*
X49488026Y-108707290D01*
X49463355Y-108732386D01*
X49441872Y-108759350D01*
X49428996Y-108779733D01*
X49416798Y-108804568D01*
X49405104Y-108833335D01*
X49394929Y-108863109D01*
X49387292Y-108890963D01*
X49383642Y-108910276D01*
X49380742Y-108932133D01*
X49198489Y-108932133D01*
X49199510Y-108921681D01*
X49212644Y-108856549D01*
X49231950Y-108795718D01*
X49257208Y-108739559D01*
X49288200Y-108688441D01*
X49324706Y-108642736D01*
X49366509Y-108602813D01*
X49413389Y-108569042D01*
X49465127Y-108541794D01*
X49510949Y-108524602D01*
X49543822Y-108515308D01*
X49574932Y-108508876D01*
X49607002Y-108504941D01*
X49642754Y-108503135D01*
X49671816Y-108502945D01*
X49726798Y-108505354D01*
X49726798Y-108505354D01*
G37*
X49726798Y-108505354D02*
X49776313Y-108512037D01*
X49822405Y-108523360D01*
X49859092Y-108536367D01*
X49912300Y-108562210D01*
X49960342Y-108594597D01*
X50003054Y-108633246D01*
X50040274Y-108677869D01*
X50071838Y-108728182D01*
X50097583Y-108783900D01*
X50117346Y-108844739D01*
X50130964Y-108910411D01*
X50138273Y-108980634D01*
X50139565Y-109026325D01*
X50139599Y-109071833D01*
X49376768Y-109071833D01*
X49379828Y-109098193D01*
X49389727Y-109158664D01*
X49404701Y-109212583D01*
X49424893Y-109260284D01*
X49450450Y-109302100D01*
X49481517Y-109338366D01*
X49486888Y-109343561D01*
X49510902Y-109364649D01*
X49533544Y-109380589D01*
X49558036Y-109393343D01*
X49587601Y-109404875D01*
X49587615Y-109404879D01*
X49601766Y-109409564D01*
X49614148Y-109412807D01*
X49626899Y-109414877D01*
X49642158Y-109416038D01*
X49662060Y-109416558D01*
X49682399Y-109416690D01*
X49708322Y-109416572D01*
X49727942Y-109415911D01*
X49743419Y-109414480D01*
X49756912Y-109412053D01*
X49770577Y-109408404D01*
X49775384Y-109406927D01*
X49818854Y-109390100D01*
X49856061Y-109369046D01*
X49886616Y-109344124D01*
X49910132Y-109315690D01*
X49926223Y-109284104D01*
X49932674Y-109261275D01*
X49937501Y-109236933D01*
X50121573Y-109236933D01*
X50117845Y-109257042D01*
X50104280Y-109307608D01*
X50083212Y-109354911D01*
X50055142Y-109398454D01*
X50020569Y-109437744D01*
X49979992Y-109472285D01*
X49933909Y-109501581D01*
X49882821Y-109525137D01*
X49831042Y-109541513D01*
X49782164Y-109551121D01*
X49728814Y-109556844D01*
X49674109Y-109558545D01*
X49621170Y-109556086D01*
X49589266Y-109552204D01*
X49526557Y-109538325D01*
X49467623Y-109516908D01*
X49412186Y-109487847D01*
X49400575Y-109480511D01*
X49354071Y-109445210D01*
X49313082Y-109403673D01*
X49277770Y-109356223D01*
X49248294Y-109303182D01*
X49224816Y-109244872D01*
X49207497Y-109181616D01*
X49196496Y-109113737D01*
X49192630Y-109063367D01*
X49192765Y-108990743D01*
X49198489Y-108932133D01*
X49380742Y-108932133D01*
X49949099Y-108932133D01*
X49949099Y-108922227D01*
X49947776Y-108910839D01*
X49944212Y-108893771D01*
X49939020Y-108873318D01*
X49932811Y-108851772D01*
X49926198Y-108831426D01*
X49921480Y-108818685D01*
X49900835Y-108776866D01*
X49874061Y-108738684D01*
X49850175Y-108713152D01*
X49826229Y-108692471D01*
X49803151Y-108676773D01*
X49777668Y-108664100D01*
X49751784Y-108654284D01*
X49735057Y-108648964D01*
X49720217Y-108645548D01*
X49704399Y-108643628D01*
X49684734Y-108642800D01*
X49669699Y-108642656D01*
X49633510Y-108643850D01*
X49602494Y-108648081D01*
X49573706Y-108655983D01*
X49544200Y-108668188D01*
X49538772Y-108670799D01*
X49513845Y-108686086D01*
X49488026Y-108707290D01*
X49463355Y-108732386D01*
X49441872Y-108759350D01*
X49428996Y-108779733D01*
X49416798Y-108804568D01*
X49405104Y-108833335D01*
X49394929Y-108863109D01*
X49387292Y-108890963D01*
X49383642Y-108910276D01*
X49380742Y-108932133D01*
X49198489Y-108932133D01*
X49199510Y-108921681D01*
X49212644Y-108856549D01*
X49231950Y-108795718D01*
X49257208Y-108739559D01*
X49288200Y-108688441D01*
X49324706Y-108642736D01*
X49366509Y-108602813D01*
X49413389Y-108569042D01*
X49465127Y-108541794D01*
X49510949Y-108524602D01*
X49543822Y-108515308D01*
X49574932Y-108508876D01*
X49607002Y-108504941D01*
X49642754Y-108503135D01*
X49671816Y-108502945D01*
X49726798Y-108505354D01*
G36*
X55266166Y-109838066D02*
X55088366Y-109838066D01*
X55088366Y-109643333D01*
X55266166Y-109643333D01*
X55266166Y-109838066D01*
X55266166Y-109838066D01*
G37*
X55266166Y-109838066D02*
X55088366Y-109838066D01*
X55088366Y-109643333D01*
X55266166Y-109643333D01*
X55266166Y-109838066D01*
G36*
X57024554Y-110010667D02*
X57077633Y-110020148D01*
X57125071Y-110035918D01*
X57166853Y-110057969D01*
X57202965Y-110086291D01*
X57233390Y-110120875D01*
X57258116Y-110161711D01*
X57275068Y-110202581D01*
X57279162Y-110214622D01*
X57282770Y-110225659D01*
X57285926Y-110236286D01*
X57288663Y-110247097D01*
X57291015Y-110258686D01*
X57293015Y-110271647D01*
X57294694Y-110286572D01*
X57296088Y-110304057D01*
X57297228Y-110324694D01*
X57298148Y-110349078D01*
X57298882Y-110377802D01*
X57299461Y-110411460D01*
X57299920Y-110450645D01*
X57300291Y-110495952D01*
X57300607Y-110547974D01*
X57300902Y-110607305D01*
X57301193Y-110670975D01*
X57302867Y-111040333D01*
X57120759Y-111040333D01*
X57119349Y-110675208D01*
X57119100Y-110609818D01*
X57118868Y-110552313D01*
X57118620Y-110502114D01*
X57118322Y-110458640D01*
X57117943Y-110421309D01*
X57117448Y-110389543D01*
X57116805Y-110362760D01*
X57115981Y-110340379D01*
X57114942Y-110321820D01*
X57113656Y-110306503D01*
X57112090Y-110293846D01*
X57110210Y-110283270D01*
X57107983Y-110274193D01*
X57105377Y-110266035D01*
X57102359Y-110258216D01*
X57098895Y-110250155D01*
X57094952Y-110241272D01*
X57094611Y-110240498D01*
X57082733Y-110220492D01*
X57065796Y-110200620D01*
X57046618Y-110183887D01*
X57034192Y-110176069D01*
X57014768Y-110168365D01*
X56990122Y-110161960D01*
X56963473Y-110157523D01*
X56938042Y-110155724D01*
X56936216Y-110155714D01*
X56893479Y-110159376D01*
X56851262Y-110170494D01*
X56809175Y-110189265D01*
X56766828Y-110215886D01*
X56723831Y-110250552D01*
X56695975Y-110276870D01*
X56654700Y-110318000D01*
X56654700Y-111040333D01*
X56476900Y-111040333D01*
X56476900Y-110032800D01*
X56654700Y-110032800D01*
X56654700Y-110156488D01*
X56690474Y-110122625D01*
X56733267Y-110085573D01*
X56775555Y-110056325D01*
X56818520Y-110034386D01*
X56863343Y-110019263D01*
X56911205Y-110010463D01*
X56963288Y-110007490D01*
X56965850Y-110007485D01*
X57024554Y-110010667D01*
X57024554Y-110010667D01*
G37*
X57024554Y-110010667D02*
X57077633Y-110020148D01*
X57125071Y-110035918D01*
X57166853Y-110057969D01*
X57202965Y-110086291D01*
X57233390Y-110120875D01*
X57258116Y-110161711D01*
X57275068Y-110202581D01*
X57279162Y-110214622D01*
X57282770Y-110225659D01*
X57285926Y-110236286D01*
X57288663Y-110247097D01*
X57291015Y-110258686D01*
X57293015Y-110271647D01*
X57294694Y-110286572D01*
X57296088Y-110304057D01*
X57297228Y-110324694D01*
X57298148Y-110349078D01*
X57298882Y-110377802D01*
X57299461Y-110411460D01*
X57299920Y-110450645D01*
X57300291Y-110495952D01*
X57300607Y-110547974D01*
X57300902Y-110607305D01*
X57301193Y-110670975D01*
X57302867Y-111040333D01*
X57120759Y-111040333D01*
X57119349Y-110675208D01*
X57119100Y-110609818D01*
X57118868Y-110552313D01*
X57118620Y-110502114D01*
X57118322Y-110458640D01*
X57117943Y-110421309D01*
X57117448Y-110389543D01*
X57116805Y-110362760D01*
X57115981Y-110340379D01*
X57114942Y-110321820D01*
X57113656Y-110306503D01*
X57112090Y-110293846D01*
X57110210Y-110283270D01*
X57107983Y-110274193D01*
X57105377Y-110266035D01*
X57102359Y-110258216D01*
X57098895Y-110250155D01*
X57094952Y-110241272D01*
X57094611Y-110240498D01*
X57082733Y-110220492D01*
X57065796Y-110200620D01*
X57046618Y-110183887D01*
X57034192Y-110176069D01*
X57014768Y-110168365D01*
X56990122Y-110161960D01*
X56963473Y-110157523D01*
X56938042Y-110155724D01*
X56936216Y-110155714D01*
X56893479Y-110159376D01*
X56851262Y-110170494D01*
X56809175Y-110189265D01*
X56766828Y-110215886D01*
X56723831Y-110250552D01*
X56695975Y-110276870D01*
X56654700Y-110318000D01*
X56654700Y-111040333D01*
X56476900Y-111040333D01*
X56476900Y-110032800D01*
X56654700Y-110032800D01*
X56654700Y-110156488D01*
X56690474Y-110122625D01*
X56733267Y-110085573D01*
X56775555Y-110056325D01*
X56818520Y-110034386D01*
X56863343Y-110019263D01*
X56911205Y-110010463D01*
X56963288Y-110007490D01*
X56965850Y-110007485D01*
X57024554Y-110010667D01*
G36*
X55266166Y-111040333D02*
X55088366Y-111040333D01*
X55088366Y-110032800D01*
X55266166Y-110032800D01*
X55266166Y-111040333D01*
X55266166Y-111040333D01*
G37*
X55266166Y-111040333D02*
X55088366Y-111040333D01*
X55088366Y-110032800D01*
X55266166Y-110032800D01*
X55266166Y-111040333D01*
G36*
X53493148Y-110007869D02*
X53511042Y-110009317D01*
X53538966Y-110012307D01*
X53538966Y-110103440D01*
X53538913Y-110133554D01*
X53538703Y-110156196D01*
X53538260Y-110172360D01*
X53537508Y-110183041D01*
X53536371Y-110189233D01*
X53534773Y-110191929D01*
X53532637Y-110192126D01*
X53532196Y-110191975D01*
X53521361Y-110189325D01*
X53504405Y-110186862D01*
X53483674Y-110184766D01*
X53461513Y-110183219D01*
X53440267Y-110182400D01*
X53422284Y-110182491D01*
X53414999Y-110182957D01*
X53368882Y-110191440D01*
X53325714Y-110207713D01*
X53285333Y-110231869D01*
X53247579Y-110263999D01*
X53220326Y-110294073D01*
X53196066Y-110323726D01*
X53196066Y-111040333D01*
X53014033Y-111040333D01*
X53014033Y-110032800D01*
X53195851Y-110032800D01*
X53198183Y-110164550D01*
X53213800Y-110144060D01*
X53244786Y-110108018D01*
X53279473Y-110075772D01*
X53316213Y-110048629D01*
X53353357Y-110027899D01*
X53368105Y-110021639D01*
X53393301Y-110014486D01*
X53424203Y-110009663D01*
X53458316Y-110007385D01*
X53493148Y-110007869D01*
X53493148Y-110007869D01*
G37*
X53493148Y-110007869D02*
X53511042Y-110009317D01*
X53538966Y-110012307D01*
X53538966Y-110103440D01*
X53538913Y-110133554D01*
X53538703Y-110156196D01*
X53538260Y-110172360D01*
X53537508Y-110183041D01*
X53536371Y-110189233D01*
X53534773Y-110191929D01*
X53532637Y-110192126D01*
X53532196Y-110191975D01*
X53521361Y-110189325D01*
X53504405Y-110186862D01*
X53483674Y-110184766D01*
X53461513Y-110183219D01*
X53440267Y-110182400D01*
X53422284Y-110182491D01*
X53414999Y-110182957D01*
X53368882Y-110191440D01*
X53325714Y-110207713D01*
X53285333Y-110231869D01*
X53247579Y-110263999D01*
X53220326Y-110294073D01*
X53196066Y-110323726D01*
X53196066Y-111040333D01*
X53014033Y-111040333D01*
X53014033Y-110032800D01*
X53195851Y-110032800D01*
X53198183Y-110164550D01*
X53213800Y-110144060D01*
X53244786Y-110108018D01*
X53279473Y-110075772D01*
X53316213Y-110048629D01*
X53353357Y-110027899D01*
X53368105Y-110021639D01*
X53393301Y-110014486D01*
X53424203Y-110009663D01*
X53458316Y-110007385D01*
X53493148Y-110007869D01*
G36*
X51803300Y-111040333D02*
X51625500Y-111040333D01*
X51625500Y-109643333D01*
X51803300Y-109643333D01*
X51803300Y-111040333D01*
X51803300Y-111040333D01*
G37*
X51803300Y-111040333D02*
X51625500Y-111040333D01*
X51625500Y-109643333D01*
X51803300Y-109643333D01*
X51803300Y-111040333D01*
G36*
X50364574Y-110033567D02*
X50390054Y-110033785D01*
X50498553Y-110034916D01*
X50329897Y-110271983D01*
X50301564Y-110311883D01*
X50274718Y-110349836D01*
X50249758Y-110385267D01*
X50227082Y-110417604D01*
X50207091Y-110446273D01*
X50190182Y-110470700D01*
X50176755Y-110490313D01*
X50167210Y-110504538D01*
X50161944Y-110512802D01*
X50161003Y-110514675D01*
X50163358Y-110518971D01*
X50170243Y-110529599D01*
X50181270Y-110545998D01*
X50196051Y-110567609D01*
X50214197Y-110593872D01*
X50235322Y-110624228D01*
X50259036Y-110658115D01*
X50284951Y-110694975D01*
X50312679Y-110734247D01*
X50337078Y-110768675D01*
X50366245Y-110809766D01*
X50394129Y-110849055D01*
X50420318Y-110885961D01*
X50444403Y-110919906D01*
X50465971Y-110950310D01*
X50484613Y-110976594D01*
X50499916Y-110998179D01*
X50511471Y-111014484D01*
X50518866Y-111024932D01*
X50521516Y-111028692D01*
X50529643Y-111040333D01*
X50305958Y-111040333D01*
X50182009Y-110845431D01*
X50158682Y-110808870D01*
X50136662Y-110774587D01*
X50116373Y-110743226D01*
X50098239Y-110715432D01*
X50082683Y-110691848D01*
X50070129Y-110673118D01*
X50061000Y-110659887D01*
X50055722Y-110652799D01*
X50054592Y-110651756D01*
X50051733Y-110655465D01*
X50044785Y-110665676D01*
X50034175Y-110681731D01*
X50020329Y-110702969D01*
X50003675Y-110728733D01*
X49984640Y-110758362D01*
X49963650Y-110791197D01*
X49941132Y-110826580D01*
X49929066Y-110845600D01*
X49807009Y-111038217D01*
X49695487Y-111039346D01*
X49583966Y-111040476D01*
X49591596Y-111028763D01*
X49595263Y-111023432D01*
X49603419Y-111011777D01*
X49615654Y-110994378D01*
X49631557Y-110971816D01*
X49650718Y-110944671D01*
X49672728Y-110913525D01*
X49697175Y-110878958D01*
X49723650Y-110841550D01*
X49751743Y-110801884D01*
X49774762Y-110769400D01*
X49803643Y-110728594D01*
X49831056Y-110689746D01*
X49856610Y-110653417D01*
X49879915Y-110620166D01*
X49900582Y-110590552D01*
X49918221Y-110565137D01*
X49932441Y-110544480D01*
X49942853Y-110529140D01*
X49949068Y-110519678D01*
X49950757Y-110516695D01*
X49948445Y-110512474D01*
X49941614Y-110501933D01*
X49930664Y-110485647D01*
X49915990Y-110464188D01*
X49897991Y-110438132D01*
X49877063Y-110408053D01*
X49853605Y-110374523D01*
X49828013Y-110338118D01*
X49800686Y-110299411D01*
X49783999Y-110275853D01*
X49755812Y-110236082D01*
X49729075Y-110198312D01*
X49704192Y-110163114D01*
X49681564Y-110131059D01*
X49661594Y-110102718D01*
X49644683Y-110078661D01*
X49631233Y-110059460D01*
X49621646Y-110045684D01*
X49616324Y-110037905D01*
X49615348Y-110036361D01*
X49619001Y-110035391D01*
X49630095Y-110034607D01*
X49647606Y-110034034D01*
X49670510Y-110033696D01*
X49697784Y-110033618D01*
X49725052Y-110033787D01*
X49836192Y-110034916D01*
X49944504Y-110207299D01*
X49966168Y-110241713D01*
X49986474Y-110273842D01*
X50004978Y-110302994D01*
X50021236Y-110328474D01*
X50034803Y-110349588D01*
X50045235Y-110365642D01*
X50052088Y-110375943D01*
X50054917Y-110379797D01*
X50054946Y-110379808D01*
X50057551Y-110376359D01*
X50064197Y-110366422D01*
X50074439Y-110350692D01*
X50087833Y-110329862D01*
X50103934Y-110304627D01*
X50122299Y-110275680D01*
X50142483Y-110243716D01*
X50164041Y-110209428D01*
X50164960Y-110207965D01*
X50186642Y-110173509D01*
X50207047Y-110141289D01*
X50225721Y-110112007D01*
X50242207Y-110086369D01*
X50256050Y-110065079D01*
X50266795Y-110048841D01*
X50273987Y-110038359D01*
X50277171Y-110034338D01*
X50277199Y-110034324D01*
X50282463Y-110033914D01*
X50295012Y-110033627D01*
X50313667Y-110033470D01*
X50337248Y-110033448D01*
X50364574Y-110033567D01*
X50364574Y-110033567D01*
G37*
X50364574Y-110033567D02*
X50390054Y-110033785D01*
X50498553Y-110034916D01*
X50329897Y-110271983D01*
X50301564Y-110311883D01*
X50274718Y-110349836D01*
X50249758Y-110385267D01*
X50227082Y-110417604D01*
X50207091Y-110446273D01*
X50190182Y-110470700D01*
X50176755Y-110490313D01*
X50167210Y-110504538D01*
X50161944Y-110512802D01*
X50161003Y-110514675D01*
X50163358Y-110518971D01*
X50170243Y-110529599D01*
X50181270Y-110545998D01*
X50196051Y-110567609D01*
X50214197Y-110593872D01*
X50235322Y-110624228D01*
X50259036Y-110658115D01*
X50284951Y-110694975D01*
X50312679Y-110734247D01*
X50337078Y-110768675D01*
X50366245Y-110809766D01*
X50394129Y-110849055D01*
X50420318Y-110885961D01*
X50444403Y-110919906D01*
X50465971Y-110950310D01*
X50484613Y-110976594D01*
X50499916Y-110998179D01*
X50511471Y-111014484D01*
X50518866Y-111024932D01*
X50521516Y-111028692D01*
X50529643Y-111040333D01*
X50305958Y-111040333D01*
X50182009Y-110845431D01*
X50158682Y-110808870D01*
X50136662Y-110774587D01*
X50116373Y-110743226D01*
X50098239Y-110715432D01*
X50082683Y-110691848D01*
X50070129Y-110673118D01*
X50061000Y-110659887D01*
X50055722Y-110652799D01*
X50054592Y-110651756D01*
X50051733Y-110655465D01*
X50044785Y-110665676D01*
X50034175Y-110681731D01*
X50020329Y-110702969D01*
X50003675Y-110728733D01*
X49984640Y-110758362D01*
X49963650Y-110791197D01*
X49941132Y-110826580D01*
X49929066Y-110845600D01*
X49807009Y-111038217D01*
X49695487Y-111039346D01*
X49583966Y-111040476D01*
X49591596Y-111028763D01*
X49595263Y-111023432D01*
X49603419Y-111011777D01*
X49615654Y-110994378D01*
X49631557Y-110971816D01*
X49650718Y-110944671D01*
X49672728Y-110913525D01*
X49697175Y-110878958D01*
X49723650Y-110841550D01*
X49751743Y-110801884D01*
X49774762Y-110769400D01*
X49803643Y-110728594D01*
X49831056Y-110689746D01*
X49856610Y-110653417D01*
X49879915Y-110620166D01*
X49900582Y-110590552D01*
X49918221Y-110565137D01*
X49932441Y-110544480D01*
X49942853Y-110529140D01*
X49949068Y-110519678D01*
X49950757Y-110516695D01*
X49948445Y-110512474D01*
X49941614Y-110501933D01*
X49930664Y-110485647D01*
X49915990Y-110464188D01*
X49897991Y-110438132D01*
X49877063Y-110408053D01*
X49853605Y-110374523D01*
X49828013Y-110338118D01*
X49800686Y-110299411D01*
X49783999Y-110275853D01*
X49755812Y-110236082D01*
X49729075Y-110198312D01*
X49704192Y-110163114D01*
X49681564Y-110131059D01*
X49661594Y-110102718D01*
X49644683Y-110078661D01*
X49631233Y-110059460D01*
X49621646Y-110045684D01*
X49616324Y-110037905D01*
X49615348Y-110036361D01*
X49619001Y-110035391D01*
X49630095Y-110034607D01*
X49647606Y-110034034D01*
X49670510Y-110033696D01*
X49697784Y-110033618D01*
X49725052Y-110033787D01*
X49836192Y-110034916D01*
X49944504Y-110207299D01*
X49966168Y-110241713D01*
X49986474Y-110273842D01*
X50004978Y-110302994D01*
X50021236Y-110328474D01*
X50034803Y-110349588D01*
X50045235Y-110365642D01*
X50052088Y-110375943D01*
X50054917Y-110379797D01*
X50054946Y-110379808D01*
X50057551Y-110376359D01*
X50064197Y-110366422D01*
X50074439Y-110350692D01*
X50087833Y-110329862D01*
X50103934Y-110304627D01*
X50122299Y-110275680D01*
X50142483Y-110243716D01*
X50164041Y-110209428D01*
X50164960Y-110207965D01*
X50186642Y-110173509D01*
X50207047Y-110141289D01*
X50225721Y-110112007D01*
X50242207Y-110086369D01*
X50256050Y-110065079D01*
X50266795Y-110048841D01*
X50273987Y-110038359D01*
X50277171Y-110034338D01*
X50277199Y-110034324D01*
X50282463Y-110033914D01*
X50295012Y-110033627D01*
X50313667Y-110033470D01*
X50337248Y-110033448D01*
X50364574Y-110033567D01*
G36*
X49500366Y-109812666D02*
X48674866Y-109812666D01*
X48674866Y-110236000D01*
X49449566Y-110236000D01*
X49449566Y-110401100D01*
X48674866Y-110401100D01*
X48674866Y-110875233D01*
X49534233Y-110875233D01*
X49534233Y-111040333D01*
X48488574Y-111040333D01*
X48489645Y-110342892D01*
X48490716Y-109645450D01*
X48995541Y-109644374D01*
X49500366Y-109643299D01*
X49500366Y-109812666D01*
X49500366Y-109812666D01*
G37*
X49500366Y-109812666D02*
X48674866Y-109812666D01*
X48674866Y-110236000D01*
X49449566Y-110236000D01*
X49449566Y-110401100D01*
X48674866Y-110401100D01*
X48674866Y-110875233D01*
X49534233Y-110875233D01*
X49534233Y-111040333D01*
X48488574Y-111040333D01*
X48489645Y-110342892D01*
X48490716Y-109645450D01*
X48995541Y-109644374D01*
X49500366Y-109643299D01*
X49500366Y-109812666D01*
G36*
X54817433Y-110032800D02*
X54982533Y-110032800D01*
X54982533Y-110172500D01*
X54817091Y-110172500D01*
X54818419Y-110501642D01*
X54818673Y-110564771D01*
X54818924Y-110620011D01*
X54819213Y-110667940D01*
X54819585Y-110709134D01*
X54820082Y-110744172D01*
X54820747Y-110773630D01*
X54821624Y-110798086D01*
X54822756Y-110818118D01*
X54824186Y-110834303D01*
X54825957Y-110847219D01*
X54828113Y-110857442D01*
X54830697Y-110865551D01*
X54833751Y-110872122D01*
X54837320Y-110877734D01*
X54841445Y-110882964D01*
X54846172Y-110888388D01*
X54847459Y-110889851D01*
X54856979Y-110899243D01*
X54867460Y-110905913D01*
X54880407Y-110910198D01*
X54897322Y-110912434D01*
X54919708Y-110912955D01*
X54947372Y-110912171D01*
X55003700Y-110909809D01*
X55003700Y-111043662D01*
X54977241Y-111048454D01*
X54957685Y-111051092D01*
X54932671Y-111053158D01*
X54904633Y-111054583D01*
X54876006Y-111055295D01*
X54849223Y-111055226D01*
X54826718Y-111054305D01*
X54814842Y-111053120D01*
X54773148Y-111044613D01*
X54738303Y-111031731D01*
X54709693Y-111014095D01*
X54686703Y-110991327D01*
X54668810Y-110963230D01*
X54663334Y-110951678D01*
X54658486Y-110939636D01*
X54654227Y-110926546D01*
X54650521Y-110911846D01*
X54647330Y-110894977D01*
X54644617Y-110875379D01*
X54642343Y-110852492D01*
X54640472Y-110825755D01*
X54638966Y-110794608D01*
X54637788Y-110758492D01*
X54636899Y-110716846D01*
X54636263Y-110669111D01*
X54635842Y-110614726D01*
X54635599Y-110553131D01*
X54635495Y-110483766D01*
X54635487Y-110465658D01*
X54635400Y-110172500D01*
X54512633Y-110172500D01*
X54512633Y-110032800D01*
X54635400Y-110032800D01*
X54635400Y-109778800D01*
X54817433Y-109778800D01*
X54817433Y-110032800D01*
X54817433Y-110032800D01*
G37*
X54817433Y-110032800D02*
X54982533Y-110032800D01*
X54982533Y-110172500D01*
X54817091Y-110172500D01*
X54818419Y-110501642D01*
X54818673Y-110564771D01*
X54818924Y-110620011D01*
X54819213Y-110667940D01*
X54819585Y-110709134D01*
X54820082Y-110744172D01*
X54820747Y-110773630D01*
X54821624Y-110798086D01*
X54822756Y-110818118D01*
X54824186Y-110834303D01*
X54825957Y-110847219D01*
X54828113Y-110857442D01*
X54830697Y-110865551D01*
X54833751Y-110872122D01*
X54837320Y-110877734D01*
X54841445Y-110882964D01*
X54846172Y-110888388D01*
X54847459Y-110889851D01*
X54856979Y-110899243D01*
X54867460Y-110905913D01*
X54880407Y-110910198D01*
X54897322Y-110912434D01*
X54919708Y-110912955D01*
X54947372Y-110912171D01*
X55003700Y-110909809D01*
X55003700Y-111043662D01*
X54977241Y-111048454D01*
X54957685Y-111051092D01*
X54932671Y-111053158D01*
X54904633Y-111054583D01*
X54876006Y-111055295D01*
X54849223Y-111055226D01*
X54826718Y-111054305D01*
X54814842Y-111053120D01*
X54773148Y-111044613D01*
X54738303Y-111031731D01*
X54709693Y-111014095D01*
X54686703Y-110991327D01*
X54668810Y-110963230D01*
X54663334Y-110951678D01*
X54658486Y-110939636D01*
X54654227Y-110926546D01*
X54650521Y-110911846D01*
X54647330Y-110894977D01*
X54644617Y-110875379D01*
X54642343Y-110852492D01*
X54640472Y-110825755D01*
X54638966Y-110794608D01*
X54637788Y-110758492D01*
X54636899Y-110716846D01*
X54636263Y-110669111D01*
X54635842Y-110614726D01*
X54635599Y-110553131D01*
X54635495Y-110483766D01*
X54635487Y-110465658D01*
X54635400Y-110172500D01*
X54512633Y-110172500D01*
X54512633Y-110032800D01*
X54635400Y-110032800D01*
X54635400Y-109778800D01*
X54817433Y-109778800D01*
X54817433Y-110032800D01*
G36*
X57876902Y-110008101D02*
X57907397Y-110009575D01*
X57927965Y-110011545D01*
X57988169Y-110021834D01*
X58041352Y-110036758D01*
X58087628Y-110056399D01*
X58127116Y-110080842D01*
X58159932Y-110110170D01*
X58186193Y-110144467D01*
X58206017Y-110183815D01*
X58217088Y-110218078D01*
X58221182Y-110236857D01*
X58224116Y-110255599D01*
X58225266Y-110270308D01*
X58225266Y-110291033D01*
X58048617Y-110291033D01*
X58046009Y-110272009D01*
X58038201Y-110244101D01*
X58023389Y-110217520D01*
X58003014Y-110194219D01*
X57978517Y-110176148D01*
X57973129Y-110173273D01*
X57951647Y-110163919D01*
X57929098Y-110157196D01*
X57903645Y-110152784D01*
X57873453Y-110150361D01*
X57837916Y-110149606D01*
X57803149Y-110150171D01*
X57774698Y-110152264D01*
X57750490Y-110156280D01*
X57728451Y-110162615D01*
X57706506Y-110171665D01*
X57696369Y-110176597D01*
X57676745Y-110188902D01*
X57658144Y-110204800D01*
X57642489Y-110222287D01*
X57631702Y-110239360D01*
X57628743Y-110247082D01*
X57626096Y-110261080D01*
X57624437Y-110278424D01*
X57624156Y-110287583D01*
X57624901Y-110304180D01*
X57627552Y-110318912D01*
X57632687Y-110332098D01*
X57640883Y-110344056D01*
X57652717Y-110355106D01*
X57668764Y-110365566D01*
X57689601Y-110375755D01*
X57715806Y-110385993D01*
X57747955Y-110396597D01*
X57786624Y-110407887D01*
X57832390Y-110420182D01*
X57885830Y-110433801D01*
X57890833Y-110435052D01*
X57954590Y-110451734D01*
X58010459Y-110468097D01*
X58058994Y-110484470D01*
X58100750Y-110501187D01*
X58136280Y-110518577D01*
X58166139Y-110536972D01*
X58190880Y-110556702D01*
X58211057Y-110578100D01*
X58227225Y-110601495D01*
X58239937Y-110627220D01*
X58247536Y-110648242D01*
X58251317Y-110661386D01*
X58253944Y-110674015D01*
X58255606Y-110688106D01*
X58256496Y-110705633D01*
X58256804Y-110728574D01*
X58256795Y-110744000D01*
X58256628Y-110769342D01*
X58256150Y-110788179D01*
X58255098Y-110802476D01*
X58253211Y-110814194D01*
X58250227Y-110825295D01*
X58245885Y-110837744D01*
X58243417Y-110844309D01*
X58221447Y-110890796D01*
X58192833Y-110932143D01*
X58157755Y-110968220D01*
X58116395Y-110998898D01*
X58068933Y-111024047D01*
X58015551Y-111043537D01*
X57956427Y-111057240D01*
X57943204Y-111059385D01*
X57920901Y-111061861D01*
X57892865Y-111063666D01*
X57861809Y-111064740D01*
X57830446Y-111065028D01*
X57801486Y-111064472D01*
X57777644Y-111063015D01*
X57776533Y-111062907D01*
X57711386Y-111053588D01*
X57652986Y-111039201D01*
X57601253Y-111019686D01*
X57556107Y-110994981D01*
X57517466Y-110965025D01*
X57485249Y-110929756D01*
X57459377Y-110889114D01*
X57439768Y-110843036D01*
X57427618Y-110797889D01*
X57424353Y-110780428D01*
X57421972Y-110764547D01*
X57420943Y-110753416D01*
X57420933Y-110752645D01*
X57420933Y-110739767D01*
X57601807Y-110739767D01*
X57603978Y-110766814D01*
X57610850Y-110801179D01*
X57625246Y-110833031D01*
X57646295Y-110860928D01*
X57673127Y-110883424D01*
X57674933Y-110884590D01*
X57701290Y-110897921D01*
X57734033Y-110908919D01*
X57771275Y-110917060D01*
X57807343Y-110921529D01*
X57860154Y-110923242D01*
X57908211Y-110919663D01*
X57951146Y-110910989D01*
X57988590Y-110897420D01*
X58020177Y-110879155D01*
X58045539Y-110856391D01*
X58064308Y-110829327D01*
X58076116Y-110798164D01*
X58080038Y-110774095D01*
X58079781Y-110742308D01*
X58073474Y-110715164D01*
X58061332Y-110693374D01*
X58052899Y-110684495D01*
X58042951Y-110676617D01*
X58031161Y-110669089D01*
X58016802Y-110661656D01*
X57999147Y-110654063D01*
X57977470Y-110646056D01*
X57951044Y-110637380D01*
X57919141Y-110627780D01*
X57881035Y-110617001D01*
X57836000Y-110604789D01*
X57793466Y-110593546D01*
X57744305Y-110580454D01*
X57702479Y-110568813D01*
X57667046Y-110558292D01*
X57637064Y-110548562D01*
X57611590Y-110539290D01*
X57589683Y-110530146D01*
X57570400Y-110520801D01*
X57552799Y-110510922D01*
X57545798Y-110506608D01*
X57511788Y-110480821D01*
X57485062Y-110450864D01*
X57465307Y-110416301D01*
X57452235Y-110376796D01*
X57448484Y-110353391D01*
X57446661Y-110325361D01*
X57446669Y-110295117D01*
X57448411Y-110265069D01*
X57451791Y-110237629D01*
X57456713Y-110215208D01*
X57458975Y-110208483D01*
X57480066Y-110165277D01*
X57508164Y-110126604D01*
X57542987Y-110092691D01*
X57584253Y-110063766D01*
X57631678Y-110040055D01*
X57684979Y-110021787D01*
X57693983Y-110019398D01*
X57714728Y-110015443D01*
X57741966Y-110012230D01*
X57773749Y-110009824D01*
X57808131Y-110008290D01*
X57843164Y-110007694D01*
X57876902Y-110008101D01*
X57876902Y-110008101D01*
G37*
X57876902Y-110008101D02*
X57907397Y-110009575D01*
X57927965Y-110011545D01*
X57988169Y-110021834D01*
X58041352Y-110036758D01*
X58087628Y-110056399D01*
X58127116Y-110080842D01*
X58159932Y-110110170D01*
X58186193Y-110144467D01*
X58206017Y-110183815D01*
X58217088Y-110218078D01*
X58221182Y-110236857D01*
X58224116Y-110255599D01*
X58225266Y-110270308D01*
X58225266Y-110291033D01*
X58048617Y-110291033D01*
X58046009Y-110272009D01*
X58038201Y-110244101D01*
X58023389Y-110217520D01*
X58003014Y-110194219D01*
X57978517Y-110176148D01*
X57973129Y-110173273D01*
X57951647Y-110163919D01*
X57929098Y-110157196D01*
X57903645Y-110152784D01*
X57873453Y-110150361D01*
X57837916Y-110149606D01*
X57803149Y-110150171D01*
X57774698Y-110152264D01*
X57750490Y-110156280D01*
X57728451Y-110162615D01*
X57706506Y-110171665D01*
X57696369Y-110176597D01*
X57676745Y-110188902D01*
X57658144Y-110204800D01*
X57642489Y-110222287D01*
X57631702Y-110239360D01*
X57628743Y-110247082D01*
X57626096Y-110261080D01*
X57624437Y-110278424D01*
X57624156Y-110287583D01*
X57624901Y-110304180D01*
X57627552Y-110318912D01*
X57632687Y-110332098D01*
X57640883Y-110344056D01*
X57652717Y-110355106D01*
X57668764Y-110365566D01*
X57689601Y-110375755D01*
X57715806Y-110385993D01*
X57747955Y-110396597D01*
X57786624Y-110407887D01*
X57832390Y-110420182D01*
X57885830Y-110433801D01*
X57890833Y-110435052D01*
X57954590Y-110451734D01*
X58010459Y-110468097D01*
X58058994Y-110484470D01*
X58100750Y-110501187D01*
X58136280Y-110518577D01*
X58166139Y-110536972D01*
X58190880Y-110556702D01*
X58211057Y-110578100D01*
X58227225Y-110601495D01*
X58239937Y-110627220D01*
X58247536Y-110648242D01*
X58251317Y-110661386D01*
X58253944Y-110674015D01*
X58255606Y-110688106D01*
X58256496Y-110705633D01*
X58256804Y-110728574D01*
X58256795Y-110744000D01*
X58256628Y-110769342D01*
X58256150Y-110788179D01*
X58255098Y-110802476D01*
X58253211Y-110814194D01*
X58250227Y-110825295D01*
X58245885Y-110837744D01*
X58243417Y-110844309D01*
X58221447Y-110890796D01*
X58192833Y-110932143D01*
X58157755Y-110968220D01*
X58116395Y-110998898D01*
X58068933Y-111024047D01*
X58015551Y-111043537D01*
X57956427Y-111057240D01*
X57943204Y-111059385D01*
X57920901Y-111061861D01*
X57892865Y-111063666D01*
X57861809Y-111064740D01*
X57830446Y-111065028D01*
X57801486Y-111064472D01*
X57777644Y-111063015D01*
X57776533Y-111062907D01*
X57711386Y-111053588D01*
X57652986Y-111039201D01*
X57601253Y-111019686D01*
X57556107Y-110994981D01*
X57517466Y-110965025D01*
X57485249Y-110929756D01*
X57459377Y-110889114D01*
X57439768Y-110843036D01*
X57427618Y-110797889D01*
X57424353Y-110780428D01*
X57421972Y-110764547D01*
X57420943Y-110753416D01*
X57420933Y-110752645D01*
X57420933Y-110739767D01*
X57601807Y-110739767D01*
X57603978Y-110766814D01*
X57610850Y-110801179D01*
X57625246Y-110833031D01*
X57646295Y-110860928D01*
X57673127Y-110883424D01*
X57674933Y-110884590D01*
X57701290Y-110897921D01*
X57734033Y-110908919D01*
X57771275Y-110917060D01*
X57807343Y-110921529D01*
X57860154Y-110923242D01*
X57908211Y-110919663D01*
X57951146Y-110910989D01*
X57988590Y-110897420D01*
X58020177Y-110879155D01*
X58045539Y-110856391D01*
X58064308Y-110829327D01*
X58076116Y-110798164D01*
X58080038Y-110774095D01*
X58079781Y-110742308D01*
X58073474Y-110715164D01*
X58061332Y-110693374D01*
X58052899Y-110684495D01*
X58042951Y-110676617D01*
X58031161Y-110669089D01*
X58016802Y-110661656D01*
X57999147Y-110654063D01*
X57977470Y-110646056D01*
X57951044Y-110637380D01*
X57919141Y-110627780D01*
X57881035Y-110617001D01*
X57836000Y-110604789D01*
X57793466Y-110593546D01*
X57744305Y-110580454D01*
X57702479Y-110568813D01*
X57667046Y-110558292D01*
X57637064Y-110548562D01*
X57611590Y-110539290D01*
X57589683Y-110530146D01*
X57570400Y-110520801D01*
X57552799Y-110510922D01*
X57545798Y-110506608D01*
X57511788Y-110480821D01*
X57485062Y-110450864D01*
X57465307Y-110416301D01*
X57452235Y-110376796D01*
X57448484Y-110353391D01*
X57446661Y-110325361D01*
X57446669Y-110295117D01*
X57448411Y-110265069D01*
X57451791Y-110237629D01*
X57456713Y-110215208D01*
X57458975Y-110208483D01*
X57480066Y-110165277D01*
X57508164Y-110126604D01*
X57542987Y-110092691D01*
X57584253Y-110063766D01*
X57631678Y-110040055D01*
X57684979Y-110021787D01*
X57693983Y-110019398D01*
X57714728Y-110015443D01*
X57741966Y-110012230D01*
X57773749Y-110009824D01*
X57808131Y-110008290D01*
X57843164Y-110007694D01*
X57876902Y-110008101D01*
G36*
X55890583Y-110008541D02*
X55920692Y-110009526D01*
X55944355Y-110010806D01*
X55963589Y-110012601D01*
X55980416Y-110015133D01*
X55996853Y-110018623D01*
X56007871Y-110021401D01*
X56066481Y-110040900D01*
X56120001Y-110067128D01*
X56168276Y-110099936D01*
X56211156Y-110139175D01*
X56248486Y-110184697D01*
X56280116Y-110236354D01*
X56305892Y-110293996D01*
X56315225Y-110320855D01*
X56325981Y-110358272D01*
X56333960Y-110395370D01*
X56339547Y-110434590D01*
X56343127Y-110478373D01*
X56344383Y-110505332D01*
X56343970Y-110580846D01*
X56337148Y-110651811D01*
X56324078Y-110717995D01*
X56304923Y-110779166D01*
X56279845Y-110835092D01*
X56249008Y-110885541D01*
X56212574Y-110930280D01*
X56170705Y-110969079D01*
X56123563Y-111001704D01*
X56071312Y-111027924D01*
X56014114Y-111047506D01*
X55956217Y-111059618D01*
X55919314Y-111063492D01*
X55877950Y-111065034D01*
X55835801Y-111064256D01*
X55796542Y-111061165D01*
X55781724Y-111059169D01*
X55721191Y-111045665D01*
X55664572Y-111024768D01*
X55612265Y-110996767D01*
X55564671Y-110961954D01*
X55522190Y-110920620D01*
X55485222Y-110873056D01*
X55455085Y-110821397D01*
X55433131Y-110769919D01*
X55415603Y-110712138D01*
X55409365Y-110684884D01*
X55404948Y-110657384D01*
X55401556Y-110623640D01*
X55399236Y-110585820D01*
X55398552Y-110563096D01*
X55584225Y-110563096D01*
X55585480Y-110597579D01*
X55588063Y-110627300D01*
X55589366Y-110636643D01*
X55601627Y-110695324D01*
X55618766Y-110747182D01*
X55640847Y-110792358D01*
X55667930Y-110830990D01*
X55682936Y-110847463D01*
X55718474Y-110877476D01*
X55757930Y-110900179D01*
X55800679Y-110915409D01*
X55846097Y-110923003D01*
X55893563Y-110922799D01*
X55940906Y-110915009D01*
X55975686Y-110904051D01*
X56006631Y-110888432D01*
X56035999Y-110866840D01*
X56056168Y-110848132D01*
X56073698Y-110829872D01*
X56086796Y-110813946D01*
X56097619Y-110797370D01*
X56108322Y-110777160D01*
X56110195Y-110773331D01*
X56129860Y-110724618D01*
X56144590Y-110670416D01*
X56154220Y-110612229D01*
X56158586Y-110551564D01*
X56157522Y-110489925D01*
X56150865Y-110428818D01*
X56149068Y-110418033D01*
X56137240Y-110367578D01*
X56120340Y-110320424D01*
X56098979Y-110277876D01*
X56073768Y-110241242D01*
X56058088Y-110223686D01*
X56035797Y-110202847D01*
X56014302Y-110186953D01*
X55990651Y-110174163D01*
X55961889Y-110162636D01*
X55957851Y-110161215D01*
X55942288Y-110156139D01*
X55928652Y-110152778D01*
X55914402Y-110150785D01*
X55896997Y-110149817D01*
X55873893Y-110149529D01*
X55871533Y-110149525D01*
X55827892Y-110151571D01*
X55790106Y-110158248D01*
X55756564Y-110170188D01*
X55725659Y-110188024D01*
X55695781Y-110212388D01*
X55685028Y-110222817D01*
X55657062Y-110254896D01*
X55634226Y-110290071D01*
X55615770Y-110329803D01*
X55600942Y-110375550D01*
X55595806Y-110396083D01*
X55591305Y-110421447D01*
X55587837Y-110453026D01*
X55585462Y-110488624D01*
X55584238Y-110526046D01*
X55584225Y-110563096D01*
X55398552Y-110563096D01*
X55398040Y-110546090D01*
X55398016Y-110506617D01*
X55399213Y-110469567D01*
X55401681Y-110437107D01*
X55403408Y-110423262D01*
X55416848Y-110355652D01*
X55436453Y-110293327D01*
X55462062Y-110236496D01*
X55493515Y-110185370D01*
X55530653Y-110140160D01*
X55573315Y-110101076D01*
X55621343Y-110068328D01*
X55674574Y-110042128D01*
X55700566Y-110032399D01*
X55731623Y-110022749D01*
X55761133Y-110015755D01*
X55791213Y-110011150D01*
X55823980Y-110008670D01*
X55861554Y-110008048D01*
X55890583Y-110008541D01*
X55890583Y-110008541D01*
G37*
X55890583Y-110008541D02*
X55920692Y-110009526D01*
X55944355Y-110010806D01*
X55963589Y-110012601D01*
X55980416Y-110015133D01*
X55996853Y-110018623D01*
X56007871Y-110021401D01*
X56066481Y-110040900D01*
X56120001Y-110067128D01*
X56168276Y-110099936D01*
X56211156Y-110139175D01*
X56248486Y-110184697D01*
X56280116Y-110236354D01*
X56305892Y-110293996D01*
X56315225Y-110320855D01*
X56325981Y-110358272D01*
X56333960Y-110395370D01*
X56339547Y-110434590D01*
X56343127Y-110478373D01*
X56344383Y-110505332D01*
X56343970Y-110580846D01*
X56337148Y-110651811D01*
X56324078Y-110717995D01*
X56304923Y-110779166D01*
X56279845Y-110835092D01*
X56249008Y-110885541D01*
X56212574Y-110930280D01*
X56170705Y-110969079D01*
X56123563Y-111001704D01*
X56071312Y-111027924D01*
X56014114Y-111047506D01*
X55956217Y-111059618D01*
X55919314Y-111063492D01*
X55877950Y-111065034D01*
X55835801Y-111064256D01*
X55796542Y-111061165D01*
X55781724Y-111059169D01*
X55721191Y-111045665D01*
X55664572Y-111024768D01*
X55612265Y-110996767D01*
X55564671Y-110961954D01*
X55522190Y-110920620D01*
X55485222Y-110873056D01*
X55455085Y-110821397D01*
X55433131Y-110769919D01*
X55415603Y-110712138D01*
X55409365Y-110684884D01*
X55404948Y-110657384D01*
X55401556Y-110623640D01*
X55399236Y-110585820D01*
X55398552Y-110563096D01*
X55584225Y-110563096D01*
X55585480Y-110597579D01*
X55588063Y-110627300D01*
X55589366Y-110636643D01*
X55601627Y-110695324D01*
X55618766Y-110747182D01*
X55640847Y-110792358D01*
X55667930Y-110830990D01*
X55682936Y-110847463D01*
X55718474Y-110877476D01*
X55757930Y-110900179D01*
X55800679Y-110915409D01*
X55846097Y-110923003D01*
X55893563Y-110922799D01*
X55940906Y-110915009D01*
X55975686Y-110904051D01*
X56006631Y-110888432D01*
X56035999Y-110866840D01*
X56056168Y-110848132D01*
X56073698Y-110829872D01*
X56086796Y-110813946D01*
X56097619Y-110797370D01*
X56108322Y-110777160D01*
X56110195Y-110773331D01*
X56129860Y-110724618D01*
X56144590Y-110670416D01*
X56154220Y-110612229D01*
X56158586Y-110551564D01*
X56157522Y-110489925D01*
X56150865Y-110428818D01*
X56149068Y-110418033D01*
X56137240Y-110367578D01*
X56120340Y-110320424D01*
X56098979Y-110277876D01*
X56073768Y-110241242D01*
X56058088Y-110223686D01*
X56035797Y-110202847D01*
X56014302Y-110186953D01*
X55990651Y-110174163D01*
X55961889Y-110162636D01*
X55957851Y-110161215D01*
X55942288Y-110156139D01*
X55928652Y-110152778D01*
X55914402Y-110150785D01*
X55896997Y-110149817D01*
X55873893Y-110149529D01*
X55871533Y-110149525D01*
X55827892Y-110151571D01*
X55790106Y-110158248D01*
X55756564Y-110170188D01*
X55725659Y-110188024D01*
X55695781Y-110212388D01*
X55685028Y-110222817D01*
X55657062Y-110254896D01*
X55634226Y-110290071D01*
X55615770Y-110329803D01*
X55600942Y-110375550D01*
X55595806Y-110396083D01*
X55591305Y-110421447D01*
X55587837Y-110453026D01*
X55585462Y-110488624D01*
X55584238Y-110526046D01*
X55584225Y-110563096D01*
X55398552Y-110563096D01*
X55398040Y-110546090D01*
X55398016Y-110506617D01*
X55399213Y-110469567D01*
X55401681Y-110437107D01*
X55403408Y-110423262D01*
X55416848Y-110355652D01*
X55436453Y-110293327D01*
X55462062Y-110236496D01*
X55493515Y-110185370D01*
X55530653Y-110140160D01*
X55573315Y-110101076D01*
X55621343Y-110068328D01*
X55674574Y-110042128D01*
X55700566Y-110032399D01*
X55731623Y-110022749D01*
X55761133Y-110015755D01*
X55791213Y-110011150D01*
X55823980Y-110008670D01*
X55861554Y-110008048D01*
X55890583Y-110008541D01*
G36*
X54040160Y-110007794D02*
X54073828Y-110008843D01*
X54102992Y-110010681D01*
X54116816Y-110012093D01*
X54174354Y-110022128D01*
X54225306Y-110037425D01*
X54269850Y-110058155D01*
X54308166Y-110084489D01*
X54340432Y-110116597D01*
X54366828Y-110154651D01*
X54387533Y-110198823D01*
X54402725Y-110249282D01*
X54410868Y-110293150D01*
X54411617Y-110302738D01*
X54412310Y-110320317D01*
X54412941Y-110345414D01*
X54413505Y-110377553D01*
X54413996Y-110416259D01*
X54414410Y-110461059D01*
X54414741Y-110511476D01*
X54414984Y-110567037D01*
X54415133Y-110627266D01*
X54415182Y-110681558D01*
X54415266Y-111040333D01*
X54237735Y-111040333D01*
X54236542Y-110991624D01*
X54235349Y-110942914D01*
X54204089Y-110966442D01*
X54156848Y-110997182D01*
X54103966Y-111022930D01*
X54047055Y-111043062D01*
X53987728Y-111056952D01*
X53960183Y-111061059D01*
X53932789Y-111063513D01*
X53902073Y-111064821D01*
X53870882Y-111064974D01*
X53842061Y-111063965D01*
X53818457Y-111061784D01*
X53816249Y-111061465D01*
X53765387Y-111050404D01*
X53717808Y-111033438D01*
X53674398Y-111011121D01*
X53636039Y-110984009D01*
X53603615Y-110952657D01*
X53578008Y-110917621D01*
X53572807Y-110908410D01*
X53558722Y-110879390D01*
X53549247Y-110852714D01*
X53543453Y-110824972D01*
X53540414Y-110792755D01*
X53540192Y-110788450D01*
X53540829Y-110754692D01*
X53721575Y-110754692D01*
X53723515Y-110786721D01*
X53730854Y-110817181D01*
X53743142Y-110843846D01*
X53752541Y-110856909D01*
X53777852Y-110880181D01*
X53809381Y-110898700D01*
X53846192Y-110912244D01*
X53887350Y-110920590D01*
X53931921Y-110923515D01*
X53978967Y-110920797D01*
X54004633Y-110916983D01*
X54052856Y-110904714D01*
X54102464Y-110884909D01*
X54120996Y-110875793D01*
X54141985Y-110864052D01*
X54160742Y-110851208D01*
X54179889Y-110835305D01*
X54198260Y-110818083D01*
X54237477Y-110779983D01*
X54237471Y-110666742D01*
X54237466Y-110553500D01*
X54131850Y-110553500D01*
X54079688Y-110553984D01*
X54034665Y-110555518D01*
X53995507Y-110558227D01*
X53960937Y-110562236D01*
X53929678Y-110567668D01*
X53900455Y-110574649D01*
X53892772Y-110576808D01*
X53845803Y-110593495D01*
X53806301Y-110614170D01*
X53774263Y-110638836D01*
X53749686Y-110667494D01*
X53732569Y-110700148D01*
X53725486Y-110723319D01*
X53721575Y-110754692D01*
X53540829Y-110754692D01*
X53541200Y-110735101D01*
X53549561Y-110685915D01*
X53565280Y-110640889D01*
X53588358Y-110600019D01*
X53618801Y-110563303D01*
X53656612Y-110530737D01*
X53701794Y-110502318D01*
X53754351Y-110478043D01*
X53814287Y-110457909D01*
X53881606Y-110441914D01*
X53956310Y-110430052D01*
X53966533Y-110428818D01*
X53987622Y-110426774D01*
X54015085Y-110424737D01*
X54046829Y-110422828D01*
X54080762Y-110421166D01*
X54114791Y-110419870D01*
X54130574Y-110419414D01*
X54237466Y-110416678D01*
X54237391Y-110380314D01*
X54235802Y-110331683D01*
X54230987Y-110290371D01*
X54222549Y-110255718D01*
X54210091Y-110227062D01*
X54193215Y-110203743D01*
X54171524Y-110185100D01*
X54144622Y-110170473D01*
X54112110Y-110159199D01*
X54103058Y-110156827D01*
X54083576Y-110153441D01*
X54057842Y-110151042D01*
X54027981Y-110149629D01*
X53996119Y-110149200D01*
X53964382Y-110149755D01*
X53934896Y-110151294D01*
X53909786Y-110153815D01*
X53892723Y-110156913D01*
X53851487Y-110170647D01*
X53816908Y-110189454D01*
X53789072Y-110213248D01*
X53768067Y-110241943D01*
X53753980Y-110275453D01*
X53748429Y-110300725D01*
X53745438Y-110320667D01*
X53564528Y-110320667D01*
X53566915Y-110300558D01*
X53576556Y-110248365D01*
X53592403Y-110201085D01*
X53614255Y-110159191D01*
X53641908Y-110123160D01*
X53643469Y-110121489D01*
X53675945Y-110091579D01*
X53712572Y-110066635D01*
X53754177Y-110046278D01*
X53801587Y-110030134D01*
X53855628Y-110017824D01*
X53879749Y-110013820D01*
X53903584Y-110011164D01*
X53933699Y-110009217D01*
X53967938Y-110007996D01*
X54004144Y-110007517D01*
X54040160Y-110007794D01*
X54040160Y-110007794D01*
G37*
X54040160Y-110007794D02*
X54073828Y-110008843D01*
X54102992Y-110010681D01*
X54116816Y-110012093D01*
X54174354Y-110022128D01*
X54225306Y-110037425D01*
X54269850Y-110058155D01*
X54308166Y-110084489D01*
X54340432Y-110116597D01*
X54366828Y-110154651D01*
X54387533Y-110198823D01*
X54402725Y-110249282D01*
X54410868Y-110293150D01*
X54411617Y-110302738D01*
X54412310Y-110320317D01*
X54412941Y-110345414D01*
X54413505Y-110377553D01*
X54413996Y-110416259D01*
X54414410Y-110461059D01*
X54414741Y-110511476D01*
X54414984Y-110567037D01*
X54415133Y-110627266D01*
X54415182Y-110681558D01*
X54415266Y-111040333D01*
X54237735Y-111040333D01*
X54236542Y-110991624D01*
X54235349Y-110942914D01*
X54204089Y-110966442D01*
X54156848Y-110997182D01*
X54103966Y-111022930D01*
X54047055Y-111043062D01*
X53987728Y-111056952D01*
X53960183Y-111061059D01*
X53932789Y-111063513D01*
X53902073Y-111064821D01*
X53870882Y-111064974D01*
X53842061Y-111063965D01*
X53818457Y-111061784D01*
X53816249Y-111061465D01*
X53765387Y-111050404D01*
X53717808Y-111033438D01*
X53674398Y-111011121D01*
X53636039Y-110984009D01*
X53603615Y-110952657D01*
X53578008Y-110917621D01*
X53572807Y-110908410D01*
X53558722Y-110879390D01*
X53549247Y-110852714D01*
X53543453Y-110824972D01*
X53540414Y-110792755D01*
X53540192Y-110788450D01*
X53540829Y-110754692D01*
X53721575Y-110754692D01*
X53723515Y-110786721D01*
X53730854Y-110817181D01*
X53743142Y-110843846D01*
X53752541Y-110856909D01*
X53777852Y-110880181D01*
X53809381Y-110898700D01*
X53846192Y-110912244D01*
X53887350Y-110920590D01*
X53931921Y-110923515D01*
X53978967Y-110920797D01*
X54004633Y-110916983D01*
X54052856Y-110904714D01*
X54102464Y-110884909D01*
X54120996Y-110875793D01*
X54141985Y-110864052D01*
X54160742Y-110851208D01*
X54179889Y-110835305D01*
X54198260Y-110818083D01*
X54237477Y-110779983D01*
X54237471Y-110666742D01*
X54237466Y-110553500D01*
X54131850Y-110553500D01*
X54079688Y-110553984D01*
X54034665Y-110555518D01*
X53995507Y-110558227D01*
X53960937Y-110562236D01*
X53929678Y-110567668D01*
X53900455Y-110574649D01*
X53892772Y-110576808D01*
X53845803Y-110593495D01*
X53806301Y-110614170D01*
X53774263Y-110638836D01*
X53749686Y-110667494D01*
X53732569Y-110700148D01*
X53725486Y-110723319D01*
X53721575Y-110754692D01*
X53540829Y-110754692D01*
X53541200Y-110735101D01*
X53549561Y-110685915D01*
X53565280Y-110640889D01*
X53588358Y-110600019D01*
X53618801Y-110563303D01*
X53656612Y-110530737D01*
X53701794Y-110502318D01*
X53754351Y-110478043D01*
X53814287Y-110457909D01*
X53881606Y-110441914D01*
X53956310Y-110430052D01*
X53966533Y-110428818D01*
X53987622Y-110426774D01*
X54015085Y-110424737D01*
X54046829Y-110422828D01*
X54080762Y-110421166D01*
X54114791Y-110419870D01*
X54130574Y-110419414D01*
X54237466Y-110416678D01*
X54237391Y-110380314D01*
X54235802Y-110331683D01*
X54230987Y-110290371D01*
X54222549Y-110255718D01*
X54210091Y-110227062D01*
X54193215Y-110203743D01*
X54171524Y-110185100D01*
X54144622Y-110170473D01*
X54112110Y-110159199D01*
X54103058Y-110156827D01*
X54083576Y-110153441D01*
X54057842Y-110151042D01*
X54027981Y-110149629D01*
X53996119Y-110149200D01*
X53964382Y-110149755D01*
X53934896Y-110151294D01*
X53909786Y-110153815D01*
X53892723Y-110156913D01*
X53851487Y-110170647D01*
X53816908Y-110189454D01*
X53789072Y-110213248D01*
X53768067Y-110241943D01*
X53753980Y-110275453D01*
X53748429Y-110300725D01*
X53745438Y-110320667D01*
X53564528Y-110320667D01*
X53566915Y-110300558D01*
X53576556Y-110248365D01*
X53592403Y-110201085D01*
X53614255Y-110159191D01*
X53641908Y-110123160D01*
X53643469Y-110121489D01*
X53675945Y-110091579D01*
X53712572Y-110066635D01*
X53754177Y-110046278D01*
X53801587Y-110030134D01*
X53855628Y-110017824D01*
X53879749Y-110013820D01*
X53903584Y-110011164D01*
X53933699Y-110009217D01*
X53967938Y-110007996D01*
X54004144Y-110007517D01*
X54040160Y-110007794D01*
G36*
X52399376Y-110008112D02*
X52425600Y-110008645D01*
X52455624Y-110009531D01*
X52479153Y-110010673D01*
X52498156Y-110012283D01*
X52514604Y-110014575D01*
X52530469Y-110017759D01*
X52546249Y-110021663D01*
X52604647Y-110041049D01*
X52657980Y-110067144D01*
X52706093Y-110099763D01*
X52748834Y-110138720D01*
X52786051Y-110183829D01*
X52817591Y-110234905D01*
X52843300Y-110291762D01*
X52863026Y-110354214D01*
X52876615Y-110422075D01*
X52876791Y-110423262D01*
X52879913Y-110452611D01*
X52881740Y-110487634D01*
X52882321Y-110526166D01*
X52881705Y-110566038D01*
X52879941Y-110605085D01*
X52877080Y-110641140D01*
X52873170Y-110672036D01*
X52870834Y-110684884D01*
X52853549Y-110750590D01*
X52830245Y-110810564D01*
X52801058Y-110864660D01*
X52766124Y-110912733D01*
X52725580Y-110954638D01*
X52679563Y-110990228D01*
X52628208Y-111019360D01*
X52571653Y-111041888D01*
X52522966Y-111055011D01*
X52503857Y-111058086D01*
X52478570Y-111060606D01*
X52449377Y-111062493D01*
X52418554Y-111063670D01*
X52388374Y-111064060D01*
X52361112Y-111063585D01*
X52339042Y-111062168D01*
X52333212Y-111061470D01*
X52270454Y-111048805D01*
X52212459Y-111029198D01*
X52159395Y-111002819D01*
X52111428Y-110969838D01*
X52068728Y-110930425D01*
X52031460Y-110884748D01*
X51999794Y-110832979D01*
X51973896Y-110775285D01*
X51953934Y-110711837D01*
X51944260Y-110667800D01*
X51940371Y-110639568D01*
X51937745Y-110605117D01*
X51936366Y-110566599D01*
X51936216Y-110526162D01*
X51936724Y-110506933D01*
X52122155Y-110506933D01*
X52122277Y-110577182D01*
X52128328Y-110641389D01*
X52140309Y-110699558D01*
X52158221Y-110751691D01*
X52182066Y-110797792D01*
X52211843Y-110837863D01*
X52226581Y-110853347D01*
X52261021Y-110881159D01*
X52299914Y-110902162D01*
X52342410Y-110916147D01*
X52387663Y-110922907D01*
X52434824Y-110922235D01*
X52478516Y-110915028D01*
X52521216Y-110900751D01*
X52559711Y-110879266D01*
X52593835Y-110850805D01*
X52623421Y-110815603D01*
X52648303Y-110773893D01*
X52668314Y-110725906D01*
X52683288Y-110671878D01*
X52692726Y-110614919D01*
X52694945Y-110586660D01*
X52695814Y-110553163D01*
X52695416Y-110516993D01*
X52693834Y-110480713D01*
X52691152Y-110446887D01*
X52687454Y-110418079D01*
X52686044Y-110410203D01*
X52671954Y-110355029D01*
X52652596Y-110305836D01*
X52628168Y-110262856D01*
X52598868Y-110226322D01*
X52564893Y-110196465D01*
X52526443Y-110173518D01*
X52483715Y-110157712D01*
X52467053Y-110153759D01*
X52418736Y-110147783D01*
X52371921Y-110149652D01*
X52327333Y-110159164D01*
X52285699Y-110176120D01*
X52247744Y-110200320D01*
X52224705Y-110220516D01*
X52194620Y-110255248D01*
X52169959Y-110294700D01*
X52150547Y-110339356D01*
X52136209Y-110389705D01*
X52126772Y-110446233D01*
X52122155Y-110506933D01*
X51936724Y-110506933D01*
X51937279Y-110485959D01*
X51939538Y-110448139D01*
X51942975Y-110414853D01*
X51946420Y-110393637D01*
X51963350Y-110326866D01*
X51986132Y-110266080D01*
X52014681Y-110211370D01*
X52048913Y-110162825D01*
X52088743Y-110120532D01*
X52134086Y-110084583D01*
X52184859Y-110055065D01*
X52240976Y-110032069D01*
X52302353Y-110015683D01*
X52304950Y-110015160D01*
X52322146Y-110012015D01*
X52338213Y-110009844D01*
X52355124Y-110008542D01*
X52374853Y-110007999D01*
X52399376Y-110008112D01*
X52399376Y-110008112D01*
G37*
X52399376Y-110008112D02*
X52425600Y-110008645D01*
X52455624Y-110009531D01*
X52479153Y-110010673D01*
X52498156Y-110012283D01*
X52514604Y-110014575D01*
X52530469Y-110017759D01*
X52546249Y-110021663D01*
X52604647Y-110041049D01*
X52657980Y-110067144D01*
X52706093Y-110099763D01*
X52748834Y-110138720D01*
X52786051Y-110183829D01*
X52817591Y-110234905D01*
X52843300Y-110291762D01*
X52863026Y-110354214D01*
X52876615Y-110422075D01*
X52876791Y-110423262D01*
X52879913Y-110452611D01*
X52881740Y-110487634D01*
X52882321Y-110526166D01*
X52881705Y-110566038D01*
X52879941Y-110605085D01*
X52877080Y-110641140D01*
X52873170Y-110672036D01*
X52870834Y-110684884D01*
X52853549Y-110750590D01*
X52830245Y-110810564D01*
X52801058Y-110864660D01*
X52766124Y-110912733D01*
X52725580Y-110954638D01*
X52679563Y-110990228D01*
X52628208Y-111019360D01*
X52571653Y-111041888D01*
X52522966Y-111055011D01*
X52503857Y-111058086D01*
X52478570Y-111060606D01*
X52449377Y-111062493D01*
X52418554Y-111063670D01*
X52388374Y-111064060D01*
X52361112Y-111063585D01*
X52339042Y-111062168D01*
X52333212Y-111061470D01*
X52270454Y-111048805D01*
X52212459Y-111029198D01*
X52159395Y-111002819D01*
X52111428Y-110969838D01*
X52068728Y-110930425D01*
X52031460Y-110884748D01*
X51999794Y-110832979D01*
X51973896Y-110775285D01*
X51953934Y-110711837D01*
X51944260Y-110667800D01*
X51940371Y-110639568D01*
X51937745Y-110605117D01*
X51936366Y-110566599D01*
X51936216Y-110526162D01*
X51936724Y-110506933D01*
X52122155Y-110506933D01*
X52122277Y-110577182D01*
X52128328Y-110641389D01*
X52140309Y-110699558D01*
X52158221Y-110751691D01*
X52182066Y-110797792D01*
X52211843Y-110837863D01*
X52226581Y-110853347D01*
X52261021Y-110881159D01*
X52299914Y-110902162D01*
X52342410Y-110916147D01*
X52387663Y-110922907D01*
X52434824Y-110922235D01*
X52478516Y-110915028D01*
X52521216Y-110900751D01*
X52559711Y-110879266D01*
X52593835Y-110850805D01*
X52623421Y-110815603D01*
X52648303Y-110773893D01*
X52668314Y-110725906D01*
X52683288Y-110671878D01*
X52692726Y-110614919D01*
X52694945Y-110586660D01*
X52695814Y-110553163D01*
X52695416Y-110516993D01*
X52693834Y-110480713D01*
X52691152Y-110446887D01*
X52687454Y-110418079D01*
X52686044Y-110410203D01*
X52671954Y-110355029D01*
X52652596Y-110305836D01*
X52628168Y-110262856D01*
X52598868Y-110226322D01*
X52564893Y-110196465D01*
X52526443Y-110173518D01*
X52483715Y-110157712D01*
X52467053Y-110153759D01*
X52418736Y-110147783D01*
X52371921Y-110149652D01*
X52327333Y-110159164D01*
X52285699Y-110176120D01*
X52247744Y-110200320D01*
X52224705Y-110220516D01*
X52194620Y-110255248D01*
X52169959Y-110294700D01*
X52150547Y-110339356D01*
X52136209Y-110389705D01*
X52126772Y-110446233D01*
X52122155Y-110506933D01*
X51936724Y-110506933D01*
X51937279Y-110485959D01*
X51939538Y-110448139D01*
X51942975Y-110414853D01*
X51946420Y-110393637D01*
X51963350Y-110326866D01*
X51986132Y-110266080D01*
X52014681Y-110211370D01*
X52048913Y-110162825D01*
X52088743Y-110120532D01*
X52134086Y-110084583D01*
X52184859Y-110055065D01*
X52240976Y-110032069D01*
X52302353Y-110015683D01*
X52304950Y-110015160D01*
X52322146Y-110012015D01*
X52338213Y-110009844D01*
X52355124Y-110008542D01*
X52374853Y-110007999D01*
X52399376Y-110008112D01*
G36*
X47319791Y-108129477D02*
X47342379Y-108132916D01*
X47362745Y-108136490D01*
X47393190Y-108142570D01*
X47416242Y-108148695D01*
X47432964Y-108155323D01*
X47444419Y-108162913D01*
X47451669Y-108171924D01*
X47453480Y-108175663D01*
X47457937Y-108190619D01*
X47461899Y-108211989D01*
X47465117Y-108237722D01*
X47467345Y-108265770D01*
X47468338Y-108294082D01*
X47468366Y-108299429D01*
X47471053Y-108339269D01*
X47479370Y-108373108D01*
X47493703Y-108401591D01*
X47514437Y-108425363D01*
X47541959Y-108445069D01*
X47561303Y-108454945D01*
X47581562Y-108462569D01*
X47602685Y-108468038D01*
X47613826Y-108469711D01*
X47621615Y-108470330D01*
X47628536Y-108470357D01*
X47635685Y-108469379D01*
X47644160Y-108466986D01*
X47655056Y-108462766D01*
X47669473Y-108456308D01*
X47688506Y-108447201D01*
X47713252Y-108435034D01*
X47734756Y-108424379D01*
X47830740Y-108376784D01*
X47849241Y-108381766D01*
X47857648Y-108384853D01*
X47866854Y-108390200D01*
X47878006Y-108398710D01*
X47892252Y-108411287D01*
X47910741Y-108428837D01*
X47918232Y-108436132D01*
X47935617Y-108453471D01*
X47951174Y-108469613D01*
X47963724Y-108483287D01*
X47972091Y-108493223D01*
X47974733Y-108497086D01*
X47976329Y-108500640D01*
X47976957Y-108504429D01*
X47976176Y-108509304D01*
X47973546Y-108516120D01*
X47968626Y-108525729D01*
X47960976Y-108538984D01*
X47950154Y-108556738D01*
X47935721Y-108579844D01*
X47917235Y-108609155D01*
X47915054Y-108612606D01*
X47898243Y-108639478D01*
X47883022Y-108664323D01*
X47869963Y-108686166D01*
X47859638Y-108704032D01*
X47852620Y-108716946D01*
X47849480Y-108723932D01*
X47849366Y-108724584D01*
X47851317Y-108732720D01*
X47856598Y-108746378D01*
X47864357Y-108763863D01*
X47873738Y-108783479D01*
X47883888Y-108803531D01*
X47893952Y-108822325D01*
X47903075Y-108838164D01*
X47910404Y-108849354D01*
X47914550Y-108853922D01*
X47922417Y-108856725D01*
X47938424Y-108860254D01*
X47962282Y-108864458D01*
X47993700Y-108869286D01*
X48032388Y-108874690D01*
X48043716Y-108876198D01*
X48162874Y-108891916D01*
X48166702Y-108906733D01*
X48168562Y-108916653D01*
X48170727Y-108932472D01*
X48173049Y-108952538D01*
X48175378Y-108975195D01*
X48177568Y-108998791D01*
X48179468Y-109021670D01*
X48180932Y-109042180D01*
X48181811Y-109058666D01*
X48181956Y-109069475D01*
X48181586Y-109072677D01*
X48177004Y-109076448D01*
X48165994Y-109082697D01*
X48149992Y-109090768D01*
X48130433Y-109100003D01*
X48108756Y-109109748D01*
X48086396Y-109119346D01*
X48064791Y-109128142D01*
X48045375Y-109135478D01*
X48039785Y-109137436D01*
X48012100Y-109147891D01*
X47990786Y-109158459D01*
X47973809Y-109170280D01*
X47962860Y-109180483D01*
X47955176Y-109188811D01*
X47949111Y-109196732D01*
X47944321Y-109205484D01*
X47940463Y-109216302D01*
X47937196Y-109230423D01*
X47934176Y-109249084D01*
X47931061Y-109273521D01*
X47927509Y-109304971D01*
X47926945Y-109310116D01*
X47926187Y-109324887D01*
X47926906Y-109338041D01*
X47927573Y-109341720D01*
X47931474Y-109348299D01*
X47940880Y-109360051D01*
X47955183Y-109376293D01*
X47973774Y-109396343D01*
X47996044Y-109419517D01*
X48006038Y-109429704D01*
X48032007Y-109456397D01*
X48053191Y-109478956D01*
X48069239Y-109496986D01*
X48079803Y-109510093D01*
X48084532Y-109517884D01*
X48084662Y-109518321D01*
X48084135Y-109529700D01*
X48078640Y-109547098D01*
X48068450Y-109569887D01*
X48053837Y-109597435D01*
X48040654Y-109619990D01*
X48024885Y-109644285D01*
X48011097Y-109661333D01*
X47998501Y-109671888D01*
X47986305Y-109676704D01*
X47980656Y-109677200D01*
X47967908Y-109676010D01*
X47947926Y-109672566D01*
X47921584Y-109667054D01*
X47889754Y-109659660D01*
X47853312Y-109650570D01*
X47841114Y-109647411D01*
X47804981Y-109640859D01*
X47772465Y-109641381D01*
X47742241Y-109649177D01*
X47712985Y-109664447D01*
X47708618Y-109667381D01*
X47694240Y-109679319D01*
X47678376Y-109695637D01*
X47662944Y-109714021D01*
X47649860Y-109732154D01*
X47641041Y-109747722D01*
X47639954Y-109750334D01*
X47632942Y-109768693D01*
X47660187Y-109808672D01*
X47692418Y-109857732D01*
X47726542Y-109912917D01*
X47762044Y-109973205D01*
X47798414Y-110037575D01*
X47835136Y-110105004D01*
X47871700Y-110174469D01*
X47907590Y-110244949D01*
X47942295Y-110315423D01*
X47975302Y-110384866D01*
X48006097Y-110452259D01*
X48034167Y-110516578D01*
X48059001Y-110576802D01*
X48080084Y-110631908D01*
X48095054Y-110675132D01*
X48108084Y-110718133D01*
X48120878Y-110765754D01*
X48132621Y-110814653D01*
X48142497Y-110861490D01*
X48147995Y-110892059D01*
X48152854Y-110935274D01*
X48152166Y-110972795D01*
X48145759Y-111005467D01*
X48133465Y-111034134D01*
X48115111Y-111059644D01*
X48113980Y-111060909D01*
X48091093Y-111080443D01*
X48063277Y-111095021D01*
X48032630Y-111104101D01*
X48001246Y-111107144D01*
X47971222Y-111103609D01*
X47960648Y-111100444D01*
X47941055Y-111092216D01*
X47922295Y-111081548D01*
X47903536Y-111067664D01*
X47883946Y-111049790D01*
X47862694Y-111027151D01*
X47838947Y-110998974D01*
X47811874Y-110964482D01*
X47805159Y-110955667D01*
X47745507Y-110871079D01*
X47690206Y-110780305D01*
X47638956Y-110682816D01*
X47595874Y-110588501D01*
X47585234Y-110563057D01*
X47573100Y-110532992D01*
X47559321Y-110497908D01*
X47543748Y-110457408D01*
X47526231Y-110411094D01*
X47506621Y-110358570D01*
X47484767Y-110299437D01*
X47460519Y-110233299D01*
X47433729Y-110159757D01*
X47419151Y-110119583D01*
X47401286Y-110070497D01*
X47385984Y-110028920D01*
X47373049Y-109994357D01*
X47362284Y-109966313D01*
X47353494Y-109944293D01*
X47346484Y-109927801D01*
X47341056Y-109916343D01*
X47337016Y-109909422D01*
X47335117Y-109907189D01*
X47319415Y-109898120D01*
X47297863Y-109892433D01*
X47272402Y-109890203D01*
X47244974Y-109891501D01*
X47217522Y-109896400D01*
X47199136Y-109902085D01*
X47172718Y-109916232D01*
X47148476Y-109937578D01*
X47127582Y-109964916D01*
X47114598Y-109989104D01*
X47099154Y-110022290D01*
X47084519Y-110051880D01*
X47071279Y-110076766D01*
X47060020Y-110095841D01*
X47052264Y-110106882D01*
X47043918Y-110115479D01*
X47034434Y-110121134D01*
X47022385Y-110124014D01*
X47006347Y-110124286D01*
X46984894Y-110122119D01*
X46958132Y-110117942D01*
X46926959Y-110112138D01*
X46903220Y-110106500D01*
X46885896Y-110100675D01*
X46873969Y-110094311D01*
X46866423Y-110087056D01*
X46865663Y-110085957D01*
X46859912Y-110072533D01*
X46855042Y-110051102D01*
X46851037Y-110021547D01*
X46847878Y-109983750D01*
X46846435Y-109958175D01*
X46845072Y-109932698D01*
X46843635Y-109913884D01*
X46841825Y-109899933D01*
X46839341Y-109889046D01*
X46835885Y-109879422D01*
X46831912Y-109870793D01*
X46814901Y-109844930D01*
X46791498Y-109822074D01*
X46763594Y-109803466D01*
X46733077Y-109790346D01*
X46701839Y-109783955D01*
X46699408Y-109783774D01*
X46692944Y-109783352D01*
X46687191Y-109783213D01*
X46681393Y-109783682D01*
X46674790Y-109785088D01*
X46666627Y-109787757D01*
X46656145Y-109792015D01*
X46642586Y-109798190D01*
X46625193Y-109806608D01*
X46603209Y-109817596D01*
X46575876Y-109831482D01*
X46542436Y-109848592D01*
X46506618Y-109866952D01*
X46489726Y-109874925D01*
X46477717Y-109878708D01*
X46468493Y-109878901D01*
X46466420Y-109878470D01*
X46459210Y-109874396D01*
X46447523Y-109865265D01*
X46432588Y-109852276D01*
X46415631Y-109836627D01*
X46397881Y-109819519D01*
X46380565Y-109802150D01*
X46364911Y-109785719D01*
X46352146Y-109771427D01*
X46343499Y-109760471D01*
X46340612Y-109755577D01*
X46338610Y-109749686D01*
X46338445Y-109744019D01*
X46340755Y-109736960D01*
X46346177Y-109726896D01*
X46355350Y-109712212D01*
X46361525Y-109702660D01*
X46376033Y-109680684D01*
X46392770Y-109655898D01*
X46408993Y-109632347D01*
X46415487Y-109623098D01*
X46436221Y-109590758D01*
X46449886Y-109561857D01*
X46456674Y-109535478D01*
X46456777Y-109510705D01*
X46450387Y-109486621D01*
X46446080Y-109477024D01*
X46430137Y-109446141D01*
X46416822Y-109422721D01*
X46406235Y-109406924D01*
X46398613Y-109399006D01*
X46392032Y-109396846D01*
X46378093Y-109393876D01*
X46357846Y-109390272D01*
X46332344Y-109386211D01*
X46302637Y-109381870D01*
X46274010Y-109377982D01*
X46235354Y-109372752D01*
X46204679Y-109368253D01*
X46181540Y-109364406D01*
X46165488Y-109361131D01*
X46156079Y-109358350D01*
X46153151Y-109356590D01*
X46150169Y-109349365D01*
X46147296Y-109336568D01*
X46145306Y-109322250D01*
X46143610Y-109305985D01*
X46141299Y-109284520D01*
X46138722Y-109261066D01*
X46136971Y-109245400D01*
X46134469Y-109222955D01*
X46133277Y-109205725D01*
X46134260Y-109192530D01*
X46138285Y-109182188D01*
X46146217Y-109173518D01*
X46158923Y-109165338D01*
X46177268Y-109156467D01*
X46202119Y-109145724D01*
X46213619Y-109140832D01*
X46238361Y-109130362D01*
X46251804Y-109124750D01*
X46676733Y-109124750D01*
X46680839Y-109188669D01*
X46693026Y-109250396D01*
X46713100Y-109309438D01*
X46740863Y-109365304D01*
X46776121Y-109417501D01*
X46807959Y-109454574D01*
X46854968Y-109498233D01*
X46906110Y-109534688D01*
X46960816Y-109563743D01*
X47018518Y-109585202D01*
X47078647Y-109598869D01*
X47140636Y-109604548D01*
X47203915Y-109602044D01*
X47227066Y-109599076D01*
X47288309Y-109585646D01*
X47346642Y-109564687D01*
X47401431Y-109536723D01*
X47452040Y-109502279D01*
X47497836Y-109461880D01*
X47538184Y-109416051D01*
X47572451Y-109365316D01*
X47600001Y-109310202D01*
X47610984Y-109281383D01*
X47627788Y-109219803D01*
X47636207Y-109157670D01*
X47636270Y-109095397D01*
X47628003Y-109033402D01*
X47611435Y-108972099D01*
X47586872Y-108912482D01*
X47556205Y-108858520D01*
X47519704Y-108810170D01*
X47478039Y-108767622D01*
X47431882Y-108731066D01*
X47381901Y-108700695D01*
X47328768Y-108676699D01*
X47273153Y-108659268D01*
X47215725Y-108648593D01*
X47157156Y-108644866D01*
X47098116Y-108648277D01*
X47039274Y-108659018D01*
X46981302Y-108677278D01*
X46924869Y-108703249D01*
X46900781Y-108717118D01*
X46879375Y-108732030D01*
X46855044Y-108751871D01*
X46829618Y-108774873D01*
X46804930Y-108799272D01*
X46782810Y-108823300D01*
X46765088Y-108845192D01*
X46759075Y-108853816D01*
X46726391Y-108911225D01*
X46701896Y-108970631D01*
X46685630Y-109031911D01*
X46677628Y-109094941D01*
X46676733Y-109124750D01*
X46251804Y-109124750D01*
X46262189Y-109120415D01*
X46283296Y-109111735D01*
X46299875Y-109105066D01*
X46308651Y-109101684D01*
X46329210Y-109091989D01*
X46345722Y-109078928D01*
X46359224Y-109061182D01*
X46370756Y-109037430D01*
X46379930Y-109011062D01*
X46387705Y-108973652D01*
X46387312Y-108938422D01*
X46379755Y-108907950D01*
X46375868Y-108898736D01*
X46370788Y-108889648D01*
X46363634Y-108879601D01*
X46353527Y-108867511D01*
X46339586Y-108852295D01*
X46320931Y-108832869D01*
X46308296Y-108819950D01*
X46289142Y-108800134D01*
X46271694Y-108781504D01*
X46256968Y-108765191D01*
X46245980Y-108752327D01*
X46239746Y-108744042D01*
X46239090Y-108742902D01*
X46233398Y-108726685D01*
X46233458Y-108710110D01*
X46239406Y-108690776D01*
X46242473Y-108683834D01*
X46248949Y-108671467D01*
X46258324Y-108655476D01*
X46269441Y-108637628D01*
X46281140Y-108619692D01*
X46292265Y-108603436D01*
X46301655Y-108590629D01*
X46308154Y-108583039D01*
X46308950Y-108582346D01*
X46317098Y-108577704D01*
X46327498Y-108575676D01*
X46341746Y-108576274D01*
X46361439Y-108579510D01*
X46377191Y-108582871D01*
X46421677Y-108592632D01*
X46460250Y-108600600D01*
X46492461Y-108606695D01*
X46517864Y-108610840D01*
X46536009Y-108612953D01*
X46546450Y-108612956D01*
X46546790Y-108612893D01*
X46559365Y-108608163D01*
X46576318Y-108598694D01*
X46595980Y-108585674D01*
X46616680Y-108570289D01*
X46636748Y-108553725D01*
X46654514Y-108537170D01*
X46657145Y-108534484D01*
X46670396Y-108520589D01*
X46678721Y-108510978D01*
X46683091Y-108503865D01*
X46684482Y-108497460D01*
X46683865Y-108489977D01*
X46683302Y-108486447D01*
X46681951Y-108477341D01*
X46679710Y-108461218D01*
X46676766Y-108439459D01*
X46673304Y-108413445D01*
X46669511Y-108384558D01*
X46666607Y-108362214D01*
X46652851Y-108255844D01*
X46733584Y-108217487D01*
X46814316Y-108179130D01*
X46898983Y-108264915D01*
X46924129Y-108290303D01*
X46944201Y-108310295D01*
X46960000Y-108325587D01*
X46972327Y-108336878D01*
X46981985Y-108344866D01*
X46989775Y-108350249D01*
X46996498Y-108353724D01*
X47002957Y-108355991D01*
X47003868Y-108356247D01*
X47024334Y-108359507D01*
X47049605Y-108360089D01*
X47076527Y-108358200D01*
X47101945Y-108354049D01*
X47120933Y-108348547D01*
X47135220Y-108342207D01*
X47147663Y-108334413D01*
X47159102Y-108324120D01*
X47170382Y-108310282D01*
X47182343Y-108291857D01*
X47195828Y-108267798D01*
X47211679Y-108237062D01*
X47213096Y-108234240D01*
X47226549Y-108208177D01*
X47239434Y-108184628D01*
X47250956Y-108164961D01*
X47260320Y-108150546D01*
X47265569Y-108143876D01*
X47273364Y-108136420D01*
X47281250Y-108131361D01*
X47290660Y-108128590D01*
X47303029Y-108127998D01*
X47319791Y-108129477D01*
X47319791Y-108129477D01*
G37*
X47319791Y-108129477D02*
X47342379Y-108132916D01*
X47362745Y-108136490D01*
X47393190Y-108142570D01*
X47416242Y-108148695D01*
X47432964Y-108155323D01*
X47444419Y-108162913D01*
X47451669Y-108171924D01*
X47453480Y-108175663D01*
X47457937Y-108190619D01*
X47461899Y-108211989D01*
X47465117Y-108237722D01*
X47467345Y-108265770D01*
X47468338Y-108294082D01*
X47468366Y-108299429D01*
X47471053Y-108339269D01*
X47479370Y-108373108D01*
X47493703Y-108401591D01*
X47514437Y-108425363D01*
X47541959Y-108445069D01*
X47561303Y-108454945D01*
X47581562Y-108462569D01*
X47602685Y-108468038D01*
X47613826Y-108469711D01*
X47621615Y-108470330D01*
X47628536Y-108470357D01*
X47635685Y-108469379D01*
X47644160Y-108466986D01*
X47655056Y-108462766D01*
X47669473Y-108456308D01*
X47688506Y-108447201D01*
X47713252Y-108435034D01*
X47734756Y-108424379D01*
X47830740Y-108376784D01*
X47849241Y-108381766D01*
X47857648Y-108384853D01*
X47866854Y-108390200D01*
X47878006Y-108398710D01*
X47892252Y-108411287D01*
X47910741Y-108428837D01*
X47918232Y-108436132D01*
X47935617Y-108453471D01*
X47951174Y-108469613D01*
X47963724Y-108483287D01*
X47972091Y-108493223D01*
X47974733Y-108497086D01*
X47976329Y-108500640D01*
X47976957Y-108504429D01*
X47976176Y-108509304D01*
X47973546Y-108516120D01*
X47968626Y-108525729D01*
X47960976Y-108538984D01*
X47950154Y-108556738D01*
X47935721Y-108579844D01*
X47917235Y-108609155D01*
X47915054Y-108612606D01*
X47898243Y-108639478D01*
X47883022Y-108664323D01*
X47869963Y-108686166D01*
X47859638Y-108704032D01*
X47852620Y-108716946D01*
X47849480Y-108723932D01*
X47849366Y-108724584D01*
X47851317Y-108732720D01*
X47856598Y-108746378D01*
X47864357Y-108763863D01*
X47873738Y-108783479D01*
X47883888Y-108803531D01*
X47893952Y-108822325D01*
X47903075Y-108838164D01*
X47910404Y-108849354D01*
X47914550Y-108853922D01*
X47922417Y-108856725D01*
X47938424Y-108860254D01*
X47962282Y-108864458D01*
X47993700Y-108869286D01*
X48032388Y-108874690D01*
X48043716Y-108876198D01*
X48162874Y-108891916D01*
X48166702Y-108906733D01*
X48168562Y-108916653D01*
X48170727Y-108932472D01*
X48173049Y-108952538D01*
X48175378Y-108975195D01*
X48177568Y-108998791D01*
X48179468Y-109021670D01*
X48180932Y-109042180D01*
X48181811Y-109058666D01*
X48181956Y-109069475D01*
X48181586Y-109072677D01*
X48177004Y-109076448D01*
X48165994Y-109082697D01*
X48149992Y-109090768D01*
X48130433Y-109100003D01*
X48108756Y-109109748D01*
X48086396Y-109119346D01*
X48064791Y-109128142D01*
X48045375Y-109135478D01*
X48039785Y-109137436D01*
X48012100Y-109147891D01*
X47990786Y-109158459D01*
X47973809Y-109170280D01*
X47962860Y-109180483D01*
X47955176Y-109188811D01*
X47949111Y-109196732D01*
X47944321Y-109205484D01*
X47940463Y-109216302D01*
X47937196Y-109230423D01*
X47934176Y-109249084D01*
X47931061Y-109273521D01*
X47927509Y-109304971D01*
X47926945Y-109310116D01*
X47926187Y-109324887D01*
X47926906Y-109338041D01*
X47927573Y-109341720D01*
X47931474Y-109348299D01*
X47940880Y-109360051D01*
X47955183Y-109376293D01*
X47973774Y-109396343D01*
X47996044Y-109419517D01*
X48006038Y-109429704D01*
X48032007Y-109456397D01*
X48053191Y-109478956D01*
X48069239Y-109496986D01*
X48079803Y-109510093D01*
X48084532Y-109517884D01*
X48084662Y-109518321D01*
X48084135Y-109529700D01*
X48078640Y-109547098D01*
X48068450Y-109569887D01*
X48053837Y-109597435D01*
X48040654Y-109619990D01*
X48024885Y-109644285D01*
X48011097Y-109661333D01*
X47998501Y-109671888D01*
X47986305Y-109676704D01*
X47980656Y-109677200D01*
X47967908Y-109676010D01*
X47947926Y-109672566D01*
X47921584Y-109667054D01*
X47889754Y-109659660D01*
X47853312Y-109650570D01*
X47841114Y-109647411D01*
X47804981Y-109640859D01*
X47772465Y-109641381D01*
X47742241Y-109649177D01*
X47712985Y-109664447D01*
X47708618Y-109667381D01*
X47694240Y-109679319D01*
X47678376Y-109695637D01*
X47662944Y-109714021D01*
X47649860Y-109732154D01*
X47641041Y-109747722D01*
X47639954Y-109750334D01*
X47632942Y-109768693D01*
X47660187Y-109808672D01*
X47692418Y-109857732D01*
X47726542Y-109912917D01*
X47762044Y-109973205D01*
X47798414Y-110037575D01*
X47835136Y-110105004D01*
X47871700Y-110174469D01*
X47907590Y-110244949D01*
X47942295Y-110315423D01*
X47975302Y-110384866D01*
X48006097Y-110452259D01*
X48034167Y-110516578D01*
X48059001Y-110576802D01*
X48080084Y-110631908D01*
X48095054Y-110675132D01*
X48108084Y-110718133D01*
X48120878Y-110765754D01*
X48132621Y-110814653D01*
X48142497Y-110861490D01*
X48147995Y-110892059D01*
X48152854Y-110935274D01*
X48152166Y-110972795D01*
X48145759Y-111005467D01*
X48133465Y-111034134D01*
X48115111Y-111059644D01*
X48113980Y-111060909D01*
X48091093Y-111080443D01*
X48063277Y-111095021D01*
X48032630Y-111104101D01*
X48001246Y-111107144D01*
X47971222Y-111103609D01*
X47960648Y-111100444D01*
X47941055Y-111092216D01*
X47922295Y-111081548D01*
X47903536Y-111067664D01*
X47883946Y-111049790D01*
X47862694Y-111027151D01*
X47838947Y-110998974D01*
X47811874Y-110964482D01*
X47805159Y-110955667D01*
X47745507Y-110871079D01*
X47690206Y-110780305D01*
X47638956Y-110682816D01*
X47595874Y-110588501D01*
X47585234Y-110563057D01*
X47573100Y-110532992D01*
X47559321Y-110497908D01*
X47543748Y-110457408D01*
X47526231Y-110411094D01*
X47506621Y-110358570D01*
X47484767Y-110299437D01*
X47460519Y-110233299D01*
X47433729Y-110159757D01*
X47419151Y-110119583D01*
X47401286Y-110070497D01*
X47385984Y-110028920D01*
X47373049Y-109994357D01*
X47362284Y-109966313D01*
X47353494Y-109944293D01*
X47346484Y-109927801D01*
X47341056Y-109916343D01*
X47337016Y-109909422D01*
X47335117Y-109907189D01*
X47319415Y-109898120D01*
X47297863Y-109892433D01*
X47272402Y-109890203D01*
X47244974Y-109891501D01*
X47217522Y-109896400D01*
X47199136Y-109902085D01*
X47172718Y-109916232D01*
X47148476Y-109937578D01*
X47127582Y-109964916D01*
X47114598Y-109989104D01*
X47099154Y-110022290D01*
X47084519Y-110051880D01*
X47071279Y-110076766D01*
X47060020Y-110095841D01*
X47052264Y-110106882D01*
X47043918Y-110115479D01*
X47034434Y-110121134D01*
X47022385Y-110124014D01*
X47006347Y-110124286D01*
X46984894Y-110122119D01*
X46958132Y-110117942D01*
X46926959Y-110112138D01*
X46903220Y-110106500D01*
X46885896Y-110100675D01*
X46873969Y-110094311D01*
X46866423Y-110087056D01*
X46865663Y-110085957D01*
X46859912Y-110072533D01*
X46855042Y-110051102D01*
X46851037Y-110021547D01*
X46847878Y-109983750D01*
X46846435Y-109958175D01*
X46845072Y-109932698D01*
X46843635Y-109913884D01*
X46841825Y-109899933D01*
X46839341Y-109889046D01*
X46835885Y-109879422D01*
X46831912Y-109870793D01*
X46814901Y-109844930D01*
X46791498Y-109822074D01*
X46763594Y-109803466D01*
X46733077Y-109790346D01*
X46701839Y-109783955D01*
X46699408Y-109783774D01*
X46692944Y-109783352D01*
X46687191Y-109783213D01*
X46681393Y-109783682D01*
X46674790Y-109785088D01*
X46666627Y-109787757D01*
X46656145Y-109792015D01*
X46642586Y-109798190D01*
X46625193Y-109806608D01*
X46603209Y-109817596D01*
X46575876Y-109831482D01*
X46542436Y-109848592D01*
X46506618Y-109866952D01*
X46489726Y-109874925D01*
X46477717Y-109878708D01*
X46468493Y-109878901D01*
X46466420Y-109878470D01*
X46459210Y-109874396D01*
X46447523Y-109865265D01*
X46432588Y-109852276D01*
X46415631Y-109836627D01*
X46397881Y-109819519D01*
X46380565Y-109802150D01*
X46364911Y-109785719D01*
X46352146Y-109771427D01*
X46343499Y-109760471D01*
X46340612Y-109755577D01*
X46338610Y-109749686D01*
X46338445Y-109744019D01*
X46340755Y-109736960D01*
X46346177Y-109726896D01*
X46355350Y-109712212D01*
X46361525Y-109702660D01*
X46376033Y-109680684D01*
X46392770Y-109655898D01*
X46408993Y-109632347D01*
X46415487Y-109623098D01*
X46436221Y-109590758D01*
X46449886Y-109561857D01*
X46456674Y-109535478D01*
X46456777Y-109510705D01*
X46450387Y-109486621D01*
X46446080Y-109477024D01*
X46430137Y-109446141D01*
X46416822Y-109422721D01*
X46406235Y-109406924D01*
X46398613Y-109399006D01*
X46392032Y-109396846D01*
X46378093Y-109393876D01*
X46357846Y-109390272D01*
X46332344Y-109386211D01*
X46302637Y-109381870D01*
X46274010Y-109377982D01*
X46235354Y-109372752D01*
X46204679Y-109368253D01*
X46181540Y-109364406D01*
X46165488Y-109361131D01*
X46156079Y-109358350D01*
X46153151Y-109356590D01*
X46150169Y-109349365D01*
X46147296Y-109336568D01*
X46145306Y-109322250D01*
X46143610Y-109305985D01*
X46141299Y-109284520D01*
X46138722Y-109261066D01*
X46136971Y-109245400D01*
X46134469Y-109222955D01*
X46133277Y-109205725D01*
X46134260Y-109192530D01*
X46138285Y-109182188D01*
X46146217Y-109173518D01*
X46158923Y-109165338D01*
X46177268Y-109156467D01*
X46202119Y-109145724D01*
X46213619Y-109140832D01*
X46238361Y-109130362D01*
X46251804Y-109124750D01*
X46676733Y-109124750D01*
X46680839Y-109188669D01*
X46693026Y-109250396D01*
X46713100Y-109309438D01*
X46740863Y-109365304D01*
X46776121Y-109417501D01*
X46807959Y-109454574D01*
X46854968Y-109498233D01*
X46906110Y-109534688D01*
X46960816Y-109563743D01*
X47018518Y-109585202D01*
X47078647Y-109598869D01*
X47140636Y-109604548D01*
X47203915Y-109602044D01*
X47227066Y-109599076D01*
X47288309Y-109585646D01*
X47346642Y-109564687D01*
X47401431Y-109536723D01*
X47452040Y-109502279D01*
X47497836Y-109461880D01*
X47538184Y-109416051D01*
X47572451Y-109365316D01*
X47600001Y-109310202D01*
X47610984Y-109281383D01*
X47627788Y-109219803D01*
X47636207Y-109157670D01*
X47636270Y-109095397D01*
X47628003Y-109033402D01*
X47611435Y-108972099D01*
X47586872Y-108912482D01*
X47556205Y-108858520D01*
X47519704Y-108810170D01*
X47478039Y-108767622D01*
X47431882Y-108731066D01*
X47381901Y-108700695D01*
X47328768Y-108676699D01*
X47273153Y-108659268D01*
X47215725Y-108648593D01*
X47157156Y-108644866D01*
X47098116Y-108648277D01*
X47039274Y-108659018D01*
X46981302Y-108677278D01*
X46924869Y-108703249D01*
X46900781Y-108717118D01*
X46879375Y-108732030D01*
X46855044Y-108751871D01*
X46829618Y-108774873D01*
X46804930Y-108799272D01*
X46782810Y-108823300D01*
X46765088Y-108845192D01*
X46759075Y-108853816D01*
X46726391Y-108911225D01*
X46701896Y-108970631D01*
X46685630Y-109031911D01*
X46677628Y-109094941D01*
X46676733Y-109124750D01*
X46251804Y-109124750D01*
X46262189Y-109120415D01*
X46283296Y-109111735D01*
X46299875Y-109105066D01*
X46308651Y-109101684D01*
X46329210Y-109091989D01*
X46345722Y-109078928D01*
X46359224Y-109061182D01*
X46370756Y-109037430D01*
X46379930Y-109011062D01*
X46387705Y-108973652D01*
X46387312Y-108938422D01*
X46379755Y-108907950D01*
X46375868Y-108898736D01*
X46370788Y-108889648D01*
X46363634Y-108879601D01*
X46353527Y-108867511D01*
X46339586Y-108852295D01*
X46320931Y-108832869D01*
X46308296Y-108819950D01*
X46289142Y-108800134D01*
X46271694Y-108781504D01*
X46256968Y-108765191D01*
X46245980Y-108752327D01*
X46239746Y-108744042D01*
X46239090Y-108742902D01*
X46233398Y-108726685D01*
X46233458Y-108710110D01*
X46239406Y-108690776D01*
X46242473Y-108683834D01*
X46248949Y-108671467D01*
X46258324Y-108655476D01*
X46269441Y-108637628D01*
X46281140Y-108619692D01*
X46292265Y-108603436D01*
X46301655Y-108590629D01*
X46308154Y-108583039D01*
X46308950Y-108582346D01*
X46317098Y-108577704D01*
X46327498Y-108575676D01*
X46341746Y-108576274D01*
X46361439Y-108579510D01*
X46377191Y-108582871D01*
X46421677Y-108592632D01*
X46460250Y-108600600D01*
X46492461Y-108606695D01*
X46517864Y-108610840D01*
X46536009Y-108612953D01*
X46546450Y-108612956D01*
X46546790Y-108612893D01*
X46559365Y-108608163D01*
X46576318Y-108598694D01*
X46595980Y-108585674D01*
X46616680Y-108570289D01*
X46636748Y-108553725D01*
X46654514Y-108537170D01*
X46657145Y-108534484D01*
X46670396Y-108520589D01*
X46678721Y-108510978D01*
X46683091Y-108503865D01*
X46684482Y-108497460D01*
X46683865Y-108489977D01*
X46683302Y-108486447D01*
X46681951Y-108477341D01*
X46679710Y-108461218D01*
X46676766Y-108439459D01*
X46673304Y-108413445D01*
X46669511Y-108384558D01*
X46666607Y-108362214D01*
X46652851Y-108255844D01*
X46733584Y-108217487D01*
X46814316Y-108179130D01*
X46898983Y-108264915D01*
X46924129Y-108290303D01*
X46944201Y-108310295D01*
X46960000Y-108325587D01*
X46972327Y-108336878D01*
X46981985Y-108344866D01*
X46989775Y-108350249D01*
X46996498Y-108353724D01*
X47002957Y-108355991D01*
X47003868Y-108356247D01*
X47024334Y-108359507D01*
X47049605Y-108360089D01*
X47076527Y-108358200D01*
X47101945Y-108354049D01*
X47120933Y-108348547D01*
X47135220Y-108342207D01*
X47147663Y-108334413D01*
X47159102Y-108324120D01*
X47170382Y-108310282D01*
X47182343Y-108291857D01*
X47195828Y-108267798D01*
X47211679Y-108237062D01*
X47213096Y-108234240D01*
X47226549Y-108208177D01*
X47239434Y-108184628D01*
X47250956Y-108164961D01*
X47260320Y-108150546D01*
X47265569Y-108143876D01*
X47273364Y-108136420D01*
X47281250Y-108131361D01*
X47290660Y-108128590D01*
X47303029Y-108127998D01*
X47319791Y-108129477D01*
G36*
X51114852Y-110008689D02*
X51144661Y-110011135D01*
X51164657Y-110014078D01*
X51217259Y-110028192D01*
X51266416Y-110049825D01*
X51311710Y-110078591D01*
X51352729Y-110114106D01*
X51389056Y-110155984D01*
X51420278Y-110203838D01*
X51445978Y-110257282D01*
X51456412Y-110285340D01*
X51473440Y-110346266D01*
X51485120Y-110411540D01*
X51491434Y-110479391D01*
X51492367Y-110548044D01*
X51487902Y-110615726D01*
X51478022Y-110680665D01*
X51462711Y-110741088D01*
X51460753Y-110747200D01*
X51436597Y-110809800D01*
X51407228Y-110866070D01*
X51372798Y-110915856D01*
X51333455Y-110959003D01*
X51289347Y-110995358D01*
X51240625Y-111024765D01*
X51187436Y-111047070D01*
X51164462Y-111054102D01*
X51139084Y-111059150D01*
X51107812Y-111062383D01*
X51073021Y-111063804D01*
X51037086Y-111063417D01*
X51002382Y-111061226D01*
X50971283Y-111057233D01*
X50954516Y-111053772D01*
X50918434Y-111042495D01*
X50881550Y-111026881D01*
X50846822Y-111008360D01*
X50817204Y-110988365D01*
X50813758Y-110985631D01*
X50787300Y-110964168D01*
X50787300Y-111429800D01*
X50609500Y-111429800D01*
X50609500Y-110319750D01*
X50787300Y-110319750D01*
X50787300Y-110802589D01*
X50811641Y-110824489D01*
X50854184Y-110858213D01*
X50899071Y-110885278D01*
X50945454Y-110905425D01*
X50992483Y-110918390D01*
X51039309Y-110923913D01*
X51085084Y-110921732D01*
X51111150Y-110916752D01*
X51144650Y-110904360D01*
X51177055Y-110884619D01*
X51207092Y-110858643D01*
X51233489Y-110827549D01*
X51254974Y-110792451D01*
X51256563Y-110789257D01*
X51272769Y-110751391D01*
X51285323Y-110711095D01*
X51294449Y-110667137D01*
X51300371Y-110618285D01*
X51303313Y-110563306D01*
X51303741Y-110529464D01*
X51302839Y-110476988D01*
X51299919Y-110431328D01*
X51294721Y-110391020D01*
X51286983Y-110354597D01*
X51276441Y-110320596D01*
X51262834Y-110287548D01*
X51259039Y-110279504D01*
X51235800Y-110239905D01*
X51207984Y-110207134D01*
X51176201Y-110181329D01*
X51141068Y-110162631D01*
X51103196Y-110151177D01*
X51063199Y-110147109D01*
X51021691Y-110150564D01*
X50979285Y-110161682D01*
X50936595Y-110180604D01*
X50905833Y-110199268D01*
X50888238Y-110212735D01*
X50867572Y-110230941D01*
X50845898Y-110251895D01*
X50825279Y-110273602D01*
X50808033Y-110293750D01*
X50787300Y-110319750D01*
X50609500Y-110319750D01*
X50609500Y-110032800D01*
X50787300Y-110032800D01*
X50787300Y-110146690D01*
X50817991Y-110116100D01*
X50858691Y-110080436D01*
X50902502Y-110051129D01*
X50948231Y-110028861D01*
X50994683Y-110014310D01*
X50998190Y-110013543D01*
X51021584Y-110010117D01*
X51050621Y-110008171D01*
X51082607Y-110007698D01*
X51114852Y-110008689D01*
X51114852Y-110008689D01*
G37*
X51114852Y-110008689D02*
X51144661Y-110011135D01*
X51164657Y-110014078D01*
X51217259Y-110028192D01*
X51266416Y-110049825D01*
X51311710Y-110078591D01*
X51352729Y-110114106D01*
X51389056Y-110155984D01*
X51420278Y-110203838D01*
X51445978Y-110257282D01*
X51456412Y-110285340D01*
X51473440Y-110346266D01*
X51485120Y-110411540D01*
X51491434Y-110479391D01*
X51492367Y-110548044D01*
X51487902Y-110615726D01*
X51478022Y-110680665D01*
X51462711Y-110741088D01*
X51460753Y-110747200D01*
X51436597Y-110809800D01*
X51407228Y-110866070D01*
X51372798Y-110915856D01*
X51333455Y-110959003D01*
X51289347Y-110995358D01*
X51240625Y-111024765D01*
X51187436Y-111047070D01*
X51164462Y-111054102D01*
X51139084Y-111059150D01*
X51107812Y-111062383D01*
X51073021Y-111063804D01*
X51037086Y-111063417D01*
X51002382Y-111061226D01*
X50971283Y-111057233D01*
X50954516Y-111053772D01*
X50918434Y-111042495D01*
X50881550Y-111026881D01*
X50846822Y-111008360D01*
X50817204Y-110988365D01*
X50813758Y-110985631D01*
X50787300Y-110964168D01*
X50787300Y-111429800D01*
X50609500Y-111429800D01*
X50609500Y-110319750D01*
X50787300Y-110319750D01*
X50787300Y-110802589D01*
X50811641Y-110824489D01*
X50854184Y-110858213D01*
X50899071Y-110885278D01*
X50945454Y-110905425D01*
X50992483Y-110918390D01*
X51039309Y-110923913D01*
X51085084Y-110921732D01*
X51111150Y-110916752D01*
X51144650Y-110904360D01*
X51177055Y-110884619D01*
X51207092Y-110858643D01*
X51233489Y-110827549D01*
X51254974Y-110792451D01*
X51256563Y-110789257D01*
X51272769Y-110751391D01*
X51285323Y-110711095D01*
X51294449Y-110667137D01*
X51300371Y-110618285D01*
X51303313Y-110563306D01*
X51303741Y-110529464D01*
X51302839Y-110476988D01*
X51299919Y-110431328D01*
X51294721Y-110391020D01*
X51286983Y-110354597D01*
X51276441Y-110320596D01*
X51262834Y-110287548D01*
X51259039Y-110279504D01*
X51235800Y-110239905D01*
X51207984Y-110207134D01*
X51176201Y-110181329D01*
X51141068Y-110162631D01*
X51103196Y-110151177D01*
X51063199Y-110147109D01*
X51021691Y-110150564D01*
X50979285Y-110161682D01*
X50936595Y-110180604D01*
X50905833Y-110199268D01*
X50888238Y-110212735D01*
X50867572Y-110230941D01*
X50845898Y-110251895D01*
X50825279Y-110273602D01*
X50808033Y-110293750D01*
X50787300Y-110319750D01*
X50609500Y-110319750D01*
X50609500Y-110032800D01*
X50787300Y-110032800D01*
X50787300Y-110146690D01*
X50817991Y-110116100D01*
X50858691Y-110080436D01*
X50902502Y-110051129D01*
X50948231Y-110028861D01*
X50994683Y-110014310D01*
X50998190Y-110013543D01*
X51021584Y-110010117D01*
X51050621Y-110008171D01*
X51082607Y-110007698D01*
X51114852Y-110008689D01*
G36*
X58009438Y-111894340D02*
X58050144Y-111902969D01*
X58085138Y-111917847D01*
X58114398Y-111938952D01*
X58137901Y-111966265D01*
X58155625Y-111999765D01*
X58167549Y-112039432D01*
X58167784Y-112040559D01*
X58169480Y-112050136D01*
X58170875Y-112061478D01*
X58171997Y-112075435D01*
X58172871Y-112092861D01*
X58173525Y-112114606D01*
X58173985Y-112141523D01*
X58174277Y-112174462D01*
X58174429Y-112214275D01*
X58174466Y-112255121D01*
X58174466Y-112437333D01*
X58107291Y-112437333D01*
X58105730Y-112252125D01*
X58105306Y-112204754D01*
X58104835Y-112165010D01*
X58104218Y-112132054D01*
X58103355Y-112105047D01*
X58102144Y-112083150D01*
X58100485Y-112065523D01*
X58098279Y-112051327D01*
X58095426Y-112039723D01*
X58091825Y-112029872D01*
X58087375Y-112020935D01*
X58081978Y-112012071D01*
X58076002Y-112003134D01*
X58056713Y-111981629D01*
X58032365Y-111966620D01*
X58002600Y-111957919D01*
X57986201Y-111955921D01*
X57948293Y-111956716D01*
X57914263Y-111964995D01*
X57884387Y-111980577D01*
X57858945Y-112003282D01*
X57838213Y-112032930D01*
X57825832Y-112059856D01*
X57823596Y-112066093D01*
X57821751Y-112072459D01*
X57820252Y-112079819D01*
X57819054Y-112089038D01*
X57818112Y-112100980D01*
X57817382Y-112116512D01*
X57816820Y-112136496D01*
X57816380Y-112161799D01*
X57816018Y-112193285D01*
X57815690Y-112231819D01*
X57815476Y-112260592D01*
X57814203Y-112437333D01*
X57743140Y-112437333D01*
X57741829Y-112245775D01*
X57741507Y-112200438D01*
X57741190Y-112162751D01*
X57740837Y-112131898D01*
X57740409Y-112107062D01*
X57739865Y-112087428D01*
X57739163Y-112072178D01*
X57738265Y-112060497D01*
X57737129Y-112051568D01*
X57735715Y-112044575D01*
X57733983Y-112038701D01*
X57731891Y-112033130D01*
X57731211Y-112031452D01*
X57716073Y-112001394D01*
X57698197Y-111979116D01*
X57677088Y-111964234D01*
X57652253Y-111956366D01*
X57632600Y-111954825D01*
X57594269Y-111958753D01*
X57559094Y-111970183D01*
X57527871Y-111988630D01*
X57501393Y-112013607D01*
X57480455Y-112044630D01*
X57478095Y-112049257D01*
X57471378Y-112063483D01*
X57465850Y-112076952D01*
X57461397Y-112090665D01*
X57457903Y-112105622D01*
X57455253Y-112122823D01*
X57453333Y-112143269D01*
X57452028Y-112167959D01*
X57451222Y-112197894D01*
X57450800Y-112234075D01*
X57450648Y-112277501D01*
X57450640Y-112288108D01*
X57450566Y-112437333D01*
X57383964Y-112437333D01*
X57381129Y-112188625D01*
X57380597Y-112142992D01*
X57380066Y-112099492D01*
X57379549Y-112058932D01*
X57379057Y-112022122D01*
X57378600Y-111989869D01*
X57378191Y-111962980D01*
X57377841Y-111942264D01*
X57377561Y-111928529D01*
X57377388Y-111922983D01*
X57376483Y-111906050D01*
X57411408Y-111904820D01*
X57446333Y-111903591D01*
X57446333Y-111950329D01*
X57446609Y-111969078D01*
X57447359Y-111984240D01*
X57448462Y-111994111D01*
X57449603Y-111997066D01*
X57453472Y-111993690D01*
X57459151Y-111985259D01*
X57461049Y-111981887D01*
X57472620Y-111965696D01*
X57489772Y-111948248D01*
X57510255Y-111931498D01*
X57531816Y-111917402D01*
X57540635Y-111912752D01*
X57575442Y-111899651D01*
X57611115Y-111893096D01*
X57646512Y-111892778D01*
X57680494Y-111898389D01*
X57711923Y-111909621D01*
X57739658Y-111926164D01*
X57762561Y-111947712D01*
X57779490Y-111973956D01*
X57781262Y-111977855D01*
X57787014Y-111990212D01*
X57791728Y-111998688D01*
X57794011Y-112001228D01*
X57797204Y-111997779D01*
X57801576Y-111989218D01*
X57802279Y-111987541D01*
X57807982Y-111977660D01*
X57817723Y-111964579D01*
X57829475Y-111951005D01*
X57830393Y-111950030D01*
X57859147Y-111925723D01*
X57892882Y-111907814D01*
X57930737Y-111896573D01*
X57971856Y-111892264D01*
X58009438Y-111894340D01*
X58009438Y-111894340D01*
G37*
X58009438Y-111894340D02*
X58050144Y-111902969D01*
X58085138Y-111917847D01*
X58114398Y-111938952D01*
X58137901Y-111966265D01*
X58155625Y-111999765D01*
X58167549Y-112039432D01*
X58167784Y-112040559D01*
X58169480Y-112050136D01*
X58170875Y-112061478D01*
X58171997Y-112075435D01*
X58172871Y-112092861D01*
X58173525Y-112114606D01*
X58173985Y-112141523D01*
X58174277Y-112174462D01*
X58174429Y-112214275D01*
X58174466Y-112255121D01*
X58174466Y-112437333D01*
X58107291Y-112437333D01*
X58105730Y-112252125D01*
X58105306Y-112204754D01*
X58104835Y-112165010D01*
X58104218Y-112132054D01*
X58103355Y-112105047D01*
X58102144Y-112083150D01*
X58100485Y-112065523D01*
X58098279Y-112051327D01*
X58095426Y-112039723D01*
X58091825Y-112029872D01*
X58087375Y-112020935D01*
X58081978Y-112012071D01*
X58076002Y-112003134D01*
X58056713Y-111981629D01*
X58032365Y-111966620D01*
X58002600Y-111957919D01*
X57986201Y-111955921D01*
X57948293Y-111956716D01*
X57914263Y-111964995D01*
X57884387Y-111980577D01*
X57858945Y-112003282D01*
X57838213Y-112032930D01*
X57825832Y-112059856D01*
X57823596Y-112066093D01*
X57821751Y-112072459D01*
X57820252Y-112079819D01*
X57819054Y-112089038D01*
X57818112Y-112100980D01*
X57817382Y-112116512D01*
X57816820Y-112136496D01*
X57816380Y-112161799D01*
X57816018Y-112193285D01*
X57815690Y-112231819D01*
X57815476Y-112260592D01*
X57814203Y-112437333D01*
X57743140Y-112437333D01*
X57741829Y-112245775D01*
X57741507Y-112200438D01*
X57741190Y-112162751D01*
X57740837Y-112131898D01*
X57740409Y-112107062D01*
X57739865Y-112087428D01*
X57739163Y-112072178D01*
X57738265Y-112060497D01*
X57737129Y-112051568D01*
X57735715Y-112044575D01*
X57733983Y-112038701D01*
X57731891Y-112033130D01*
X57731211Y-112031452D01*
X57716073Y-112001394D01*
X57698197Y-111979116D01*
X57677088Y-111964234D01*
X57652253Y-111956366D01*
X57632600Y-111954825D01*
X57594269Y-111958753D01*
X57559094Y-111970183D01*
X57527871Y-111988630D01*
X57501393Y-112013607D01*
X57480455Y-112044630D01*
X57478095Y-112049257D01*
X57471378Y-112063483D01*
X57465850Y-112076952D01*
X57461397Y-112090665D01*
X57457903Y-112105622D01*
X57455253Y-112122823D01*
X57453333Y-112143269D01*
X57452028Y-112167959D01*
X57451222Y-112197894D01*
X57450800Y-112234075D01*
X57450648Y-112277501D01*
X57450640Y-112288108D01*
X57450566Y-112437333D01*
X57383964Y-112437333D01*
X57381129Y-112188625D01*
X57380597Y-112142992D01*
X57380066Y-112099492D01*
X57379549Y-112058932D01*
X57379057Y-112022122D01*
X57378600Y-111989869D01*
X57378191Y-111962980D01*
X57377841Y-111942264D01*
X57377561Y-111928529D01*
X57377388Y-111922983D01*
X57376483Y-111906050D01*
X57411408Y-111904820D01*
X57446333Y-111903591D01*
X57446333Y-111950329D01*
X57446609Y-111969078D01*
X57447359Y-111984240D01*
X57448462Y-111994111D01*
X57449603Y-111997066D01*
X57453472Y-111993690D01*
X57459151Y-111985259D01*
X57461049Y-111981887D01*
X57472620Y-111965696D01*
X57489772Y-111948248D01*
X57510255Y-111931498D01*
X57531816Y-111917402D01*
X57540635Y-111912752D01*
X57575442Y-111899651D01*
X57611115Y-111893096D01*
X57646512Y-111892778D01*
X57680494Y-111898389D01*
X57711923Y-111909621D01*
X57739658Y-111926164D01*
X57762561Y-111947712D01*
X57779490Y-111973956D01*
X57781262Y-111977855D01*
X57787014Y-111990212D01*
X57791728Y-111998688D01*
X57794011Y-112001228D01*
X57797204Y-111997779D01*
X57801576Y-111989218D01*
X57802279Y-111987541D01*
X57807982Y-111977660D01*
X57817723Y-111964579D01*
X57829475Y-111951005D01*
X57830393Y-111950030D01*
X57859147Y-111925723D01*
X57892882Y-111907814D01*
X57930737Y-111896573D01*
X57971856Y-111892264D01*
X58009438Y-111894340D01*
G36*
X55102837Y-111893123D02*
X55127352Y-111896186D01*
X55124622Y-111920168D01*
X55122417Y-111940073D01*
X55120249Y-111953096D01*
X55116643Y-111960688D01*
X55110128Y-111964298D01*
X55099232Y-111965377D01*
X55082482Y-111965374D01*
X55078720Y-111965370D01*
X55058252Y-111965777D01*
X55043230Y-111967289D01*
X55030653Y-111970442D01*
X55017520Y-111975772D01*
X55015658Y-111976632D01*
X54984662Y-111995615D01*
X54959100Y-112020845D01*
X54939427Y-112051727D01*
X54926095Y-112087662D01*
X54923711Y-112097817D01*
X54922378Y-112108810D01*
X54921248Y-112127713D01*
X54920334Y-112153969D01*
X54919651Y-112187024D01*
X54919214Y-112226322D01*
X54919036Y-112271308D01*
X54919033Y-112278792D01*
X54919033Y-112437333D01*
X54852431Y-112437333D01*
X54849596Y-112188625D01*
X54849063Y-112142992D01*
X54848533Y-112099492D01*
X54848016Y-112058932D01*
X54847524Y-112022122D01*
X54847067Y-111989869D01*
X54846658Y-111962980D01*
X54846308Y-111942264D01*
X54846027Y-111928529D01*
X54845855Y-111922983D01*
X54844950Y-111906050D01*
X54879875Y-111904820D01*
X54914800Y-111903591D01*
X54914800Y-111948212D01*
X54915080Y-111966482D01*
X54915838Y-111981111D01*
X54916950Y-111990359D01*
X54917975Y-111992719D01*
X54921854Y-111989351D01*
X54928129Y-111980920D01*
X54931733Y-111975305D01*
X54945658Y-111957045D01*
X54964587Y-111938212D01*
X54985667Y-111921380D01*
X55004020Y-111910121D01*
X55031010Y-111899868D01*
X55061708Y-111893678D01*
X55092055Y-111892250D01*
X55102837Y-111893123D01*
X55102837Y-111893123D01*
G37*
X55102837Y-111893123D02*
X55127352Y-111896186D01*
X55124622Y-111920168D01*
X55122417Y-111940073D01*
X55120249Y-111953096D01*
X55116643Y-111960688D01*
X55110128Y-111964298D01*
X55099232Y-111965377D01*
X55082482Y-111965374D01*
X55078720Y-111965370D01*
X55058252Y-111965777D01*
X55043230Y-111967289D01*
X55030653Y-111970442D01*
X55017520Y-111975772D01*
X55015658Y-111976632D01*
X54984662Y-111995615D01*
X54959100Y-112020845D01*
X54939427Y-112051727D01*
X54926095Y-112087662D01*
X54923711Y-112097817D01*
X54922378Y-112108810D01*
X54921248Y-112127713D01*
X54920334Y-112153969D01*
X54919651Y-112187024D01*
X54919214Y-112226322D01*
X54919036Y-112271308D01*
X54919033Y-112278792D01*
X54919033Y-112437333D01*
X54852431Y-112437333D01*
X54849596Y-112188625D01*
X54849063Y-112142992D01*
X54848533Y-112099492D01*
X54848016Y-112058932D01*
X54847524Y-112022122D01*
X54847067Y-111989869D01*
X54846658Y-111962980D01*
X54846308Y-111942264D01*
X54846027Y-111928529D01*
X54845855Y-111922983D01*
X54844950Y-111906050D01*
X54879875Y-111904820D01*
X54914800Y-111903591D01*
X54914800Y-111948212D01*
X54915080Y-111966482D01*
X54915838Y-111981111D01*
X54916950Y-111990359D01*
X54917975Y-111992719D01*
X54921854Y-111989351D01*
X54928129Y-111980920D01*
X54931733Y-111975305D01*
X54945658Y-111957045D01*
X54964587Y-111938212D01*
X54985667Y-111921380D01*
X55004020Y-111910121D01*
X55031010Y-111899868D01*
X55061708Y-111893678D01*
X55092055Y-111892250D01*
X55102837Y-111893123D01*
G36*
X53974999Y-112437333D02*
X53903033Y-112437333D01*
X53903033Y-111569500D01*
X53974999Y-111569500D01*
X53974999Y-112437333D01*
X53974999Y-112437333D01*
G37*
X53974999Y-112437333D02*
X53903033Y-112437333D01*
X53903033Y-111569500D01*
X53974999Y-111569500D01*
X53974999Y-112437333D01*
G36*
X52747291Y-112003726D02*
X52770409Y-112034969D01*
X52789705Y-112060362D01*
X52804977Y-112079655D01*
X52816024Y-112092599D01*
X52822645Y-112098944D01*
X52824450Y-112099443D01*
X52827923Y-112095059D01*
X52835674Y-112084738D01*
X52847021Y-112069406D01*
X52861282Y-112049989D01*
X52877775Y-112027411D01*
X52895819Y-112002598D01*
X52897190Y-112000709D01*
X52965855Y-111906050D01*
X53008994Y-111904843D01*
X53026941Y-111904581D01*
X53041235Y-111904827D01*
X53050103Y-111905523D01*
X53052133Y-111906260D01*
X53049644Y-111910115D01*
X53042571Y-111919884D01*
X53031505Y-111934782D01*
X53017037Y-111954020D01*
X52999759Y-111976813D01*
X52980261Y-112002374D01*
X52963242Y-112024571D01*
X52942252Y-112051974D01*
X52922896Y-112077404D01*
X52905787Y-112100045D01*
X52891537Y-112119081D01*
X52880757Y-112133695D01*
X52874060Y-112143070D01*
X52872058Y-112146234D01*
X52874060Y-112151038D01*
X52881051Y-112161868D01*
X52892649Y-112178206D01*
X52908472Y-112199535D01*
X52928139Y-112225337D01*
X52951267Y-112255093D01*
X52968358Y-112276792D01*
X52991257Y-112305732D01*
X53013038Y-112333267D01*
X53033012Y-112358523D01*
X53050490Y-112380630D01*
X53064782Y-112398717D01*
X53075199Y-112411911D01*
X53081053Y-112419341D01*
X53081064Y-112419354D01*
X53095178Y-112437333D01*
X53003402Y-112437333D01*
X52912409Y-112318871D01*
X52891248Y-112291397D01*
X52871711Y-112266174D01*
X52854396Y-112243962D01*
X52839898Y-112225521D01*
X52828814Y-112211610D01*
X52821741Y-112202987D01*
X52819299Y-112200376D01*
X52816355Y-112203630D01*
X52808932Y-112212898D01*
X52797623Y-112227411D01*
X52783019Y-112246400D01*
X52765711Y-112269099D01*
X52746290Y-112294737D01*
X52728283Y-112318639D01*
X52639383Y-112436937D01*
X52598108Y-112437135D01*
X52580581Y-112436983D01*
X52566750Y-112436414D01*
X52558429Y-112435527D01*
X52556833Y-112434853D01*
X52559330Y-112431075D01*
X52566464Y-112421304D01*
X52577699Y-112406250D01*
X52592499Y-112386621D01*
X52610327Y-112363129D01*
X52630649Y-112336482D01*
X52652927Y-112307391D01*
X52664764Y-112291978D01*
X52687823Y-112261934D01*
X52709199Y-112233991D01*
X52728354Y-112208856D01*
X52744754Y-112187237D01*
X52757861Y-112169841D01*
X52767141Y-112157375D01*
X52772058Y-112150548D01*
X52772713Y-112149466D01*
X52770208Y-112145755D01*
X52763075Y-112136134D01*
X52751896Y-112121368D01*
X52737256Y-112102220D01*
X52719738Y-112079453D01*
X52699925Y-112053830D01*
X52679598Y-112027654D01*
X52658152Y-112000037D01*
X52638448Y-111974558D01*
X52621069Y-111951980D01*
X52606598Y-111933066D01*
X52595620Y-111918578D01*
X52588717Y-111909278D01*
X52586466Y-111905945D01*
X52590406Y-111905114D01*
X52601051Y-111904450D01*
X52616642Y-111904034D01*
X52630337Y-111903933D01*
X52674207Y-111903933D01*
X52747291Y-112003726D01*
X52747291Y-112003726D01*
G37*
X52747291Y-112003726D02*
X52770409Y-112034969D01*
X52789705Y-112060362D01*
X52804977Y-112079655D01*
X52816024Y-112092599D01*
X52822645Y-112098944D01*
X52824450Y-112099443D01*
X52827923Y-112095059D01*
X52835674Y-112084738D01*
X52847021Y-112069406D01*
X52861282Y-112049989D01*
X52877775Y-112027411D01*
X52895819Y-112002598D01*
X52897190Y-112000709D01*
X52965855Y-111906050D01*
X53008994Y-111904843D01*
X53026941Y-111904581D01*
X53041235Y-111904827D01*
X53050103Y-111905523D01*
X53052133Y-111906260D01*
X53049644Y-111910115D01*
X53042571Y-111919884D01*
X53031505Y-111934782D01*
X53017037Y-111954020D01*
X52999759Y-111976813D01*
X52980261Y-112002374D01*
X52963242Y-112024571D01*
X52942252Y-112051974D01*
X52922896Y-112077404D01*
X52905787Y-112100045D01*
X52891537Y-112119081D01*
X52880757Y-112133695D01*
X52874060Y-112143070D01*
X52872058Y-112146234D01*
X52874060Y-112151038D01*
X52881051Y-112161868D01*
X52892649Y-112178206D01*
X52908472Y-112199535D01*
X52928139Y-112225337D01*
X52951267Y-112255093D01*
X52968358Y-112276792D01*
X52991257Y-112305732D01*
X53013038Y-112333267D01*
X53033012Y-112358523D01*
X53050490Y-112380630D01*
X53064782Y-112398717D01*
X53075199Y-112411911D01*
X53081053Y-112419341D01*
X53081064Y-112419354D01*
X53095178Y-112437333D01*
X53003402Y-112437333D01*
X52912409Y-112318871D01*
X52891248Y-112291397D01*
X52871711Y-112266174D01*
X52854396Y-112243962D01*
X52839898Y-112225521D01*
X52828814Y-112211610D01*
X52821741Y-112202987D01*
X52819299Y-112200376D01*
X52816355Y-112203630D01*
X52808932Y-112212898D01*
X52797623Y-112227411D01*
X52783019Y-112246400D01*
X52765711Y-112269099D01*
X52746290Y-112294737D01*
X52728283Y-112318639D01*
X52639383Y-112436937D01*
X52598108Y-112437135D01*
X52580581Y-112436983D01*
X52566750Y-112436414D01*
X52558429Y-112435527D01*
X52556833Y-112434853D01*
X52559330Y-112431075D01*
X52566464Y-112421304D01*
X52577699Y-112406250D01*
X52592499Y-112386621D01*
X52610327Y-112363129D01*
X52630649Y-112336482D01*
X52652927Y-112307391D01*
X52664764Y-112291978D01*
X52687823Y-112261934D01*
X52709199Y-112233991D01*
X52728354Y-112208856D01*
X52744754Y-112187237D01*
X52757861Y-112169841D01*
X52767141Y-112157375D01*
X52772058Y-112150548D01*
X52772713Y-112149466D01*
X52770208Y-112145755D01*
X52763075Y-112136134D01*
X52751896Y-112121368D01*
X52737256Y-112102220D01*
X52719738Y-112079453D01*
X52699925Y-112053830D01*
X52679598Y-112027654D01*
X52658152Y-112000037D01*
X52638448Y-111974558D01*
X52621069Y-111951980D01*
X52606598Y-111933066D01*
X52595620Y-111918578D01*
X52588717Y-111909278D01*
X52586466Y-111905945D01*
X52590406Y-111905114D01*
X52601051Y-111904450D01*
X52616642Y-111904034D01*
X52630337Y-111903933D01*
X52674207Y-111903933D01*
X52747291Y-112003726D01*
G36*
X55923867Y-112335353D02*
X55942385Y-112346732D01*
X55946289Y-112350376D01*
X55955474Y-112361060D01*
X55959565Y-112371380D01*
X55960433Y-112384203D01*
X55957318Y-112407317D01*
X55948064Y-112424611D01*
X55932807Y-112435949D01*
X55911683Y-112441195D01*
X55903070Y-112441567D01*
X55889210Y-112440489D01*
X55879041Y-112436014D01*
X55869242Y-112427423D01*
X55856089Y-112409292D01*
X55850837Y-112389926D01*
X55853512Y-112370582D01*
X55864139Y-112352516D01*
X55867625Y-112348759D01*
X55885231Y-112336341D01*
X55904397Y-112331880D01*
X55923867Y-112335353D01*
X55923867Y-112335353D01*
G37*
X55923867Y-112335353D02*
X55942385Y-112346732D01*
X55946289Y-112350376D01*
X55955474Y-112361060D01*
X55959565Y-112371380D01*
X55960433Y-112384203D01*
X55957318Y-112407317D01*
X55948064Y-112424611D01*
X55932807Y-112435949D01*
X55911683Y-112441195D01*
X55903070Y-112441567D01*
X55889210Y-112440489D01*
X55879041Y-112436014D01*
X55869242Y-112427423D01*
X55856089Y-112409292D01*
X55850837Y-112389926D01*
X55853512Y-112370582D01*
X55864139Y-112352516D01*
X55867625Y-112348759D01*
X55885231Y-112336341D01*
X55904397Y-112331880D01*
X55923867Y-112335353D01*
G36*
X57010473Y-111898252D02*
X57055431Y-111911106D01*
X57096894Y-111930539D01*
X57121836Y-111946972D01*
X57156829Y-111978195D01*
X57184703Y-112014000D01*
X57205457Y-112054383D01*
X57219087Y-112099338D01*
X57225592Y-112148862D01*
X57226200Y-112170633D01*
X57222867Y-112220934D01*
X57212720Y-112266494D01*
X57195535Y-112307885D01*
X57171089Y-112345681D01*
X57147522Y-112372348D01*
X57113362Y-112400796D01*
X57074197Y-112423058D01*
X57031089Y-112438849D01*
X56985103Y-112447890D01*
X56937300Y-112449896D01*
X56888744Y-112444587D01*
X56881183Y-112443083D01*
X56836427Y-112429467D01*
X56795663Y-112408672D01*
X56759503Y-112381284D01*
X56728557Y-112347884D01*
X56703434Y-112309057D01*
X56684745Y-112265387D01*
X56680388Y-112251082D01*
X56674277Y-112219621D01*
X56671531Y-112183618D01*
X56672118Y-112148621D01*
X56740698Y-112148621D01*
X56740712Y-112190389D01*
X56747837Y-112232033D01*
X56762092Y-112272107D01*
X56782892Y-112306858D01*
X56810027Y-112336064D01*
X56843284Y-112359501D01*
X56882453Y-112376949D01*
X56887300Y-112378552D01*
X56910815Y-112383641D01*
X56938855Y-112386032D01*
X56967911Y-112385688D01*
X56994470Y-112382573D01*
X57006356Y-112379779D01*
X57045340Y-112364172D01*
X57080080Y-112341822D01*
X57109551Y-112313516D01*
X57130162Y-112284568D01*
X57139990Y-112263374D01*
X57148452Y-112236946D01*
X57154749Y-112208498D01*
X57158080Y-112181242D01*
X57158404Y-112171014D01*
X57154502Y-112128028D01*
X57143425Y-112088286D01*
X57125815Y-112052453D01*
X57102314Y-112021192D01*
X57073565Y-111995165D01*
X57040210Y-111975037D01*
X57002892Y-111961470D01*
X56962253Y-111955128D01*
X56948916Y-111954733D01*
X56907514Y-111958604D01*
X56869459Y-111969735D01*
X56835274Y-111987406D01*
X56805482Y-112010896D01*
X56780605Y-112039483D01*
X56761167Y-112072447D01*
X56747690Y-112109067D01*
X56740698Y-112148621D01*
X56672118Y-112148621D01*
X56672157Y-112146305D01*
X56676165Y-112110914D01*
X56679981Y-112092780D01*
X56695558Y-112048122D01*
X56718019Y-112007800D01*
X56746722Y-111972465D01*
X56781023Y-111942771D01*
X56820280Y-111919367D01*
X56863850Y-111902907D01*
X56868483Y-111901651D01*
X56915614Y-111893278D01*
X56963406Y-111892227D01*
X57010473Y-111898252D01*
X57010473Y-111898252D01*
G37*
X57010473Y-111898252D02*
X57055431Y-111911106D01*
X57096894Y-111930539D01*
X57121836Y-111946972D01*
X57156829Y-111978195D01*
X57184703Y-112014000D01*
X57205457Y-112054383D01*
X57219087Y-112099338D01*
X57225592Y-112148862D01*
X57226200Y-112170633D01*
X57222867Y-112220934D01*
X57212720Y-112266494D01*
X57195535Y-112307885D01*
X57171089Y-112345681D01*
X57147522Y-112372348D01*
X57113362Y-112400796D01*
X57074197Y-112423058D01*
X57031089Y-112438849D01*
X56985103Y-112447890D01*
X56937300Y-112449896D01*
X56888744Y-112444587D01*
X56881183Y-112443083D01*
X56836427Y-112429467D01*
X56795663Y-112408672D01*
X56759503Y-112381284D01*
X56728557Y-112347884D01*
X56703434Y-112309057D01*
X56684745Y-112265387D01*
X56680388Y-112251082D01*
X56674277Y-112219621D01*
X56671531Y-112183618D01*
X56672118Y-112148621D01*
X56740698Y-112148621D01*
X56740712Y-112190389D01*
X56747837Y-112232033D01*
X56762092Y-112272107D01*
X56782892Y-112306858D01*
X56810027Y-112336064D01*
X56843284Y-112359501D01*
X56882453Y-112376949D01*
X56887300Y-112378552D01*
X56910815Y-112383641D01*
X56938855Y-112386032D01*
X56967911Y-112385688D01*
X56994470Y-112382573D01*
X57006356Y-112379779D01*
X57045340Y-112364172D01*
X57080080Y-112341822D01*
X57109551Y-112313516D01*
X57130162Y-112284568D01*
X57139990Y-112263374D01*
X57148452Y-112236946D01*
X57154749Y-112208498D01*
X57158080Y-112181242D01*
X57158404Y-112171014D01*
X57154502Y-112128028D01*
X57143425Y-112088286D01*
X57125815Y-112052453D01*
X57102314Y-112021192D01*
X57073565Y-111995165D01*
X57040210Y-111975037D01*
X57002892Y-111961470D01*
X56962253Y-111955128D01*
X56948916Y-111954733D01*
X56907514Y-111958604D01*
X56869459Y-111969735D01*
X56835274Y-111987406D01*
X56805482Y-112010896D01*
X56780605Y-112039483D01*
X56761167Y-112072447D01*
X56747690Y-112109067D01*
X56740698Y-112148621D01*
X56672118Y-112148621D01*
X56672157Y-112146305D01*
X56676165Y-112110914D01*
X56679981Y-112092780D01*
X56695558Y-112048122D01*
X56718019Y-112007800D01*
X56746722Y-111972465D01*
X56781023Y-111942771D01*
X56820280Y-111919367D01*
X56863850Y-111902907D01*
X56868483Y-111901651D01*
X56915614Y-111893278D01*
X56963406Y-111892227D01*
X57010473Y-111898252D01*
G36*
X56457251Y-111899268D02*
X56499982Y-111913261D01*
X56539270Y-111934279D01*
X56571027Y-111959156D01*
X56583734Y-111971135D01*
X56591003Y-111978838D01*
X56593664Y-111983678D01*
X56592544Y-111987073D01*
X56589083Y-111989995D01*
X56580945Y-111996081D01*
X56569303Y-112004939D01*
X56561668Y-112010803D01*
X56542719Y-112025416D01*
X56517218Y-112004182D01*
X56482616Y-111979780D01*
X56447303Y-111963737D01*
X56410926Y-111955951D01*
X56373130Y-111956322D01*
X56357412Y-111958756D01*
X56317960Y-111970439D01*
X56282922Y-111988828D01*
X56252754Y-112013140D01*
X56227914Y-112042597D01*
X56208857Y-112076418D01*
X56196040Y-112113823D01*
X56189920Y-112154031D01*
X56190953Y-112196263D01*
X56197504Y-112232033D01*
X56211699Y-112271664D01*
X56232344Y-112306292D01*
X56258716Y-112335379D01*
X56290092Y-112358393D01*
X56325751Y-112374797D01*
X56364969Y-112384058D01*
X56405054Y-112385741D01*
X56425841Y-112384214D01*
X56441775Y-112381393D01*
X56456456Y-112376423D01*
X56469610Y-112370378D01*
X56487981Y-112359758D01*
X56507145Y-112346243D01*
X56519606Y-112335774D01*
X56541980Y-112314767D01*
X56554948Y-112324880D01*
X56566979Y-112334513D01*
X56580003Y-112345292D01*
X56582230Y-112347179D01*
X56596544Y-112359365D01*
X56567686Y-112385808D01*
X56531965Y-112412951D01*
X56492273Y-112432807D01*
X56449176Y-112445240D01*
X56403234Y-112450113D01*
X56355013Y-112447290D01*
X56330850Y-112443083D01*
X56286093Y-112429467D01*
X56245330Y-112408672D01*
X56209170Y-112381284D01*
X56178223Y-112347884D01*
X56153100Y-112309057D01*
X56134412Y-112265387D01*
X56130055Y-112251082D01*
X56123944Y-112219621D01*
X56121198Y-112183618D01*
X56121824Y-112146305D01*
X56125832Y-112110914D01*
X56129648Y-112092780D01*
X56145225Y-112048122D01*
X56167686Y-112007800D01*
X56196388Y-111972465D01*
X56230689Y-111942771D01*
X56269947Y-111919367D01*
X56313517Y-111902907D01*
X56318150Y-111901651D01*
X56365360Y-111893241D01*
X56412052Y-111892521D01*
X56457251Y-111899268D01*
X56457251Y-111899268D01*
G37*
X56457251Y-111899268D02*
X56499982Y-111913261D01*
X56539270Y-111934279D01*
X56571027Y-111959156D01*
X56583734Y-111971135D01*
X56591003Y-111978838D01*
X56593664Y-111983678D01*
X56592544Y-111987073D01*
X56589083Y-111989995D01*
X56580945Y-111996081D01*
X56569303Y-112004939D01*
X56561668Y-112010803D01*
X56542719Y-112025416D01*
X56517218Y-112004182D01*
X56482616Y-111979780D01*
X56447303Y-111963737D01*
X56410926Y-111955951D01*
X56373130Y-111956322D01*
X56357412Y-111958756D01*
X56317960Y-111970439D01*
X56282922Y-111988828D01*
X56252754Y-112013140D01*
X56227914Y-112042597D01*
X56208857Y-112076418D01*
X56196040Y-112113823D01*
X56189920Y-112154031D01*
X56190953Y-112196263D01*
X56197504Y-112232033D01*
X56211699Y-112271664D01*
X56232344Y-112306292D01*
X56258716Y-112335379D01*
X56290092Y-112358393D01*
X56325751Y-112374797D01*
X56364969Y-112384058D01*
X56405054Y-112385741D01*
X56425841Y-112384214D01*
X56441775Y-112381393D01*
X56456456Y-112376423D01*
X56469610Y-112370378D01*
X56487981Y-112359758D01*
X56507145Y-112346243D01*
X56519606Y-112335774D01*
X56541980Y-112314767D01*
X56554948Y-112324880D01*
X56566979Y-112334513D01*
X56580003Y-112345292D01*
X56582230Y-112347179D01*
X56596544Y-112359365D01*
X56567686Y-112385808D01*
X56531965Y-112412951D01*
X56492273Y-112432807D01*
X56449176Y-112445240D01*
X56403234Y-112450113D01*
X56355013Y-112447290D01*
X56330850Y-112443083D01*
X56286093Y-112429467D01*
X56245330Y-112408672D01*
X56209170Y-112381284D01*
X56178223Y-112347884D01*
X56153100Y-112309057D01*
X56134412Y-112265387D01*
X56130055Y-112251082D01*
X56123944Y-112219621D01*
X56121198Y-112183618D01*
X56121824Y-112146305D01*
X56125832Y-112110914D01*
X56129648Y-112092780D01*
X56145225Y-112048122D01*
X56167686Y-112007800D01*
X56196388Y-111972465D01*
X56230689Y-111942771D01*
X56269947Y-111919367D01*
X56313517Y-111902907D01*
X56318150Y-111901651D01*
X56365360Y-111893241D01*
X56412052Y-111892521D01*
X56457251Y-111899268D01*
G36*
X55472132Y-111893784D02*
X55507077Y-111898099D01*
X55533899Y-111904823D01*
X55575075Y-111922680D01*
X55610869Y-111946848D01*
X55640962Y-111976852D01*
X55665035Y-112012217D01*
X55682769Y-112052469D01*
X55693847Y-112097132D01*
X55697949Y-112145733D01*
X55697966Y-112149244D01*
X55697966Y-112187567D01*
X55253466Y-112187567D01*
X55253529Y-112197092D01*
X55255247Y-112212290D01*
X55259663Y-112232030D01*
X55265897Y-112253176D01*
X55273073Y-112272592D01*
X55277150Y-112281489D01*
X55290700Y-112302920D01*
X55309329Y-112325263D01*
X55330486Y-112345753D01*
X55350317Y-112360802D01*
X55379415Y-112374895D01*
X55413159Y-112383536D01*
X55449564Y-112386540D01*
X55486648Y-112383721D01*
X55517863Y-112376408D01*
X55554851Y-112361416D01*
X55586178Y-112341341D01*
X55612517Y-112316336D01*
X55632646Y-112293752D01*
X55656839Y-112313355D01*
X55668639Y-112323644D01*
X55677252Y-112332546D01*
X55680991Y-112338295D01*
X55681033Y-112338663D01*
X55678207Y-112343905D01*
X55670585Y-112353509D01*
X55659445Y-112365943D01*
X55650341Y-112375407D01*
X55621402Y-112400996D01*
X55590640Y-112420512D01*
X55556702Y-112434483D01*
X55518232Y-112443436D01*
X55473877Y-112447898D01*
X55463016Y-112448335D01*
X55436249Y-112448715D01*
X55415163Y-112447841D01*
X55397039Y-112445504D01*
X55381652Y-112442143D01*
X55342309Y-112429408D01*
X55308288Y-112411995D01*
X55277097Y-112388491D01*
X55261892Y-112374120D01*
X55236630Y-112345482D01*
X55217464Y-112315767D01*
X55202954Y-112282397D01*
X55194126Y-112252895D01*
X55189156Y-112225765D01*
X55186354Y-112193707D01*
X55185755Y-112159838D01*
X55187396Y-112127276D01*
X55188339Y-112120496D01*
X55253466Y-112120496D01*
X55257558Y-112121235D01*
X55269267Y-112121923D01*
X55287745Y-112122542D01*
X55312141Y-112123078D01*
X55341608Y-112123514D01*
X55375295Y-112123834D01*
X55412353Y-112124022D01*
X55442041Y-112124066D01*
X55630616Y-112124066D01*
X55627952Y-112108191D01*
X55617402Y-112070126D01*
X55599300Y-112035736D01*
X55573969Y-112005631D01*
X55572587Y-112004315D01*
X55543615Y-111982517D01*
X55510414Y-111966951D01*
X55474560Y-111957803D01*
X55437627Y-111955257D01*
X55401191Y-111959498D01*
X55366827Y-111970713D01*
X55351947Y-111978382D01*
X55332256Y-111992503D01*
X55311797Y-112011441D01*
X55293393Y-112032346D01*
X55281371Y-112049703D01*
X55274825Y-112062288D01*
X55267790Y-112077989D01*
X55261253Y-112094307D01*
X55256199Y-112108740D01*
X55253613Y-112118788D01*
X55253466Y-112120496D01*
X55188339Y-112120496D01*
X55191311Y-112099140D01*
X55192328Y-112094497D01*
X55206711Y-112051340D01*
X55228318Y-112011412D01*
X55256271Y-111975661D01*
X55289691Y-111945037D01*
X55327699Y-111920488D01*
X55369416Y-111902962D01*
X55369883Y-111902815D01*
X55400467Y-111896104D01*
X55435573Y-111893107D01*
X55472132Y-111893784D01*
X55472132Y-111893784D01*
G37*
X55472132Y-111893784D02*
X55507077Y-111898099D01*
X55533899Y-111904823D01*
X55575075Y-111922680D01*
X55610869Y-111946848D01*
X55640962Y-111976852D01*
X55665035Y-112012217D01*
X55682769Y-112052469D01*
X55693847Y-112097132D01*
X55697949Y-112145733D01*
X55697966Y-112149244D01*
X55697966Y-112187567D01*
X55253466Y-112187567D01*
X55253529Y-112197092D01*
X55255247Y-112212290D01*
X55259663Y-112232030D01*
X55265897Y-112253176D01*
X55273073Y-112272592D01*
X55277150Y-112281489D01*
X55290700Y-112302920D01*
X55309329Y-112325263D01*
X55330486Y-112345753D01*
X55350317Y-112360802D01*
X55379415Y-112374895D01*
X55413159Y-112383536D01*
X55449564Y-112386540D01*
X55486648Y-112383721D01*
X55517863Y-112376408D01*
X55554851Y-112361416D01*
X55586178Y-112341341D01*
X55612517Y-112316336D01*
X55632646Y-112293752D01*
X55656839Y-112313355D01*
X55668639Y-112323644D01*
X55677252Y-112332546D01*
X55680991Y-112338295D01*
X55681033Y-112338663D01*
X55678207Y-112343905D01*
X55670585Y-112353509D01*
X55659445Y-112365943D01*
X55650341Y-112375407D01*
X55621402Y-112400996D01*
X55590640Y-112420512D01*
X55556702Y-112434483D01*
X55518232Y-112443436D01*
X55473877Y-112447898D01*
X55463016Y-112448335D01*
X55436249Y-112448715D01*
X55415163Y-112447841D01*
X55397039Y-112445504D01*
X55381652Y-112442143D01*
X55342309Y-112429408D01*
X55308288Y-112411995D01*
X55277097Y-112388491D01*
X55261892Y-112374120D01*
X55236630Y-112345482D01*
X55217464Y-112315767D01*
X55202954Y-112282397D01*
X55194126Y-112252895D01*
X55189156Y-112225765D01*
X55186354Y-112193707D01*
X55185755Y-112159838D01*
X55187396Y-112127276D01*
X55188339Y-112120496D01*
X55253466Y-112120496D01*
X55257558Y-112121235D01*
X55269267Y-112121923D01*
X55287745Y-112122542D01*
X55312141Y-112123078D01*
X55341608Y-112123514D01*
X55375295Y-112123834D01*
X55412353Y-112124022D01*
X55442041Y-112124066D01*
X55630616Y-112124066D01*
X55627952Y-112108191D01*
X55617402Y-112070126D01*
X55599300Y-112035736D01*
X55573969Y-112005631D01*
X55572587Y-112004315D01*
X55543615Y-111982517D01*
X55510414Y-111966951D01*
X55474560Y-111957803D01*
X55437627Y-111955257D01*
X55401191Y-111959498D01*
X55366827Y-111970713D01*
X55351947Y-111978382D01*
X55332256Y-111992503D01*
X55311797Y-112011441D01*
X55293393Y-112032346D01*
X55281371Y-112049703D01*
X55274825Y-112062288D01*
X55267790Y-112077989D01*
X55261253Y-112094307D01*
X55256199Y-112108740D01*
X55253613Y-112118788D01*
X55253466Y-112120496D01*
X55188339Y-112120496D01*
X55191311Y-112099140D01*
X55192328Y-112094497D01*
X55206711Y-112051340D01*
X55228318Y-112011412D01*
X55256271Y-111975661D01*
X55289691Y-111945037D01*
X55327699Y-111920488D01*
X55369416Y-111902962D01*
X55369883Y-111902815D01*
X55400467Y-111896104D01*
X55435573Y-111893107D01*
X55472132Y-111893784D01*
G36*
X54478940Y-111898252D02*
X54523898Y-111911106D01*
X54565361Y-111930539D01*
X54590303Y-111946972D01*
X54625296Y-111978195D01*
X54653170Y-112014000D01*
X54673924Y-112054383D01*
X54687554Y-112099338D01*
X54694059Y-112148862D01*
X54694666Y-112170633D01*
X54691334Y-112220934D01*
X54681187Y-112266494D01*
X54664002Y-112307885D01*
X54639556Y-112345681D01*
X54615989Y-112372348D01*
X54581829Y-112400796D01*
X54542663Y-112423058D01*
X54499556Y-112438849D01*
X54453570Y-112447890D01*
X54405767Y-112449896D01*
X54357211Y-112444587D01*
X54349649Y-112443083D01*
X54304893Y-112429467D01*
X54264130Y-112408672D01*
X54227970Y-112381284D01*
X54197023Y-112347884D01*
X54171900Y-112309057D01*
X54153212Y-112265387D01*
X54148855Y-112251082D01*
X54142744Y-112219621D01*
X54139998Y-112183618D01*
X54140585Y-112148621D01*
X54209164Y-112148621D01*
X54209178Y-112190389D01*
X54216304Y-112232033D01*
X54230558Y-112272107D01*
X54251359Y-112306858D01*
X54278494Y-112336064D01*
X54311751Y-112359501D01*
X54350920Y-112376949D01*
X54355767Y-112378552D01*
X54379281Y-112383641D01*
X54407322Y-112386032D01*
X54436377Y-112385688D01*
X54462937Y-112382573D01*
X54474823Y-112379779D01*
X54513807Y-112364172D01*
X54548546Y-112341822D01*
X54578018Y-112313516D01*
X54598629Y-112284568D01*
X54608457Y-112263374D01*
X54616919Y-112236946D01*
X54623215Y-112208498D01*
X54626547Y-112181242D01*
X54626870Y-112171014D01*
X54622969Y-112128028D01*
X54611892Y-112088286D01*
X54594281Y-112052453D01*
X54570781Y-112021192D01*
X54542032Y-111995165D01*
X54508677Y-111975037D01*
X54471359Y-111961470D01*
X54430719Y-111955128D01*
X54417383Y-111954733D01*
X54375981Y-111958604D01*
X54337926Y-111969735D01*
X54303741Y-111987406D01*
X54273949Y-112010896D01*
X54249072Y-112039483D01*
X54229634Y-112072447D01*
X54216157Y-112109067D01*
X54209164Y-112148621D01*
X54140585Y-112148621D01*
X54140624Y-112146305D01*
X54144632Y-112110914D01*
X54148448Y-112092780D01*
X54164025Y-112048122D01*
X54186486Y-112007800D01*
X54215188Y-111972465D01*
X54249489Y-111942771D01*
X54288747Y-111919367D01*
X54332317Y-111902907D01*
X54336949Y-111901651D01*
X54384081Y-111893278D01*
X54431872Y-111892227D01*
X54478940Y-111898252D01*
X54478940Y-111898252D01*
G37*
X54478940Y-111898252D02*
X54523898Y-111911106D01*
X54565361Y-111930539D01*
X54590303Y-111946972D01*
X54625296Y-111978195D01*
X54653170Y-112014000D01*
X54673924Y-112054383D01*
X54687554Y-112099338D01*
X54694059Y-112148862D01*
X54694666Y-112170633D01*
X54691334Y-112220934D01*
X54681187Y-112266494D01*
X54664002Y-112307885D01*
X54639556Y-112345681D01*
X54615989Y-112372348D01*
X54581829Y-112400796D01*
X54542663Y-112423058D01*
X54499556Y-112438849D01*
X54453570Y-112447890D01*
X54405767Y-112449896D01*
X54357211Y-112444587D01*
X54349649Y-112443083D01*
X54304893Y-112429467D01*
X54264130Y-112408672D01*
X54227970Y-112381284D01*
X54197023Y-112347884D01*
X54171900Y-112309057D01*
X54153212Y-112265387D01*
X54148855Y-112251082D01*
X54142744Y-112219621D01*
X54139998Y-112183618D01*
X54140585Y-112148621D01*
X54209164Y-112148621D01*
X54209178Y-112190389D01*
X54216304Y-112232033D01*
X54230558Y-112272107D01*
X54251359Y-112306858D01*
X54278494Y-112336064D01*
X54311751Y-112359501D01*
X54350920Y-112376949D01*
X54355767Y-112378552D01*
X54379281Y-112383641D01*
X54407322Y-112386032D01*
X54436377Y-112385688D01*
X54462937Y-112382573D01*
X54474823Y-112379779D01*
X54513807Y-112364172D01*
X54548546Y-112341822D01*
X54578018Y-112313516D01*
X54598629Y-112284568D01*
X54608457Y-112263374D01*
X54616919Y-112236946D01*
X54623215Y-112208498D01*
X54626547Y-112181242D01*
X54626870Y-112171014D01*
X54622969Y-112128028D01*
X54611892Y-112088286D01*
X54594281Y-112052453D01*
X54570781Y-112021192D01*
X54542032Y-111995165D01*
X54508677Y-111975037D01*
X54471359Y-111961470D01*
X54430719Y-111955128D01*
X54417383Y-111954733D01*
X54375981Y-111958604D01*
X54337926Y-111969735D01*
X54303741Y-111987406D01*
X54273949Y-112010896D01*
X54249072Y-112039483D01*
X54229634Y-112072447D01*
X54216157Y-112109067D01*
X54209164Y-112148621D01*
X54140585Y-112148621D01*
X54140624Y-112146305D01*
X54144632Y-112110914D01*
X54148448Y-112092780D01*
X54164025Y-112048122D01*
X54186486Y-112007800D01*
X54215188Y-111972465D01*
X54249489Y-111942771D01*
X54288747Y-111919367D01*
X54332317Y-111902907D01*
X54336949Y-111901651D01*
X54384081Y-111893278D01*
X54431872Y-111892227D01*
X54478940Y-111898252D01*
G36*
X52366333Y-111903933D02*
X52518733Y-111903933D01*
X52518733Y-111967433D01*
X52365997Y-111967433D01*
X52367223Y-112152641D01*
X52367534Y-112197200D01*
X52367848Y-112234090D01*
X52368203Y-112264110D01*
X52368639Y-112288057D01*
X52369194Y-112306730D01*
X52369906Y-112320926D01*
X52370816Y-112331444D01*
X52371961Y-112339083D01*
X52373380Y-112344639D01*
X52375113Y-112348911D01*
X52376916Y-112352224D01*
X52387386Y-112367178D01*
X52399041Y-112376810D01*
X52413964Y-112382112D01*
X52434239Y-112384075D01*
X52443916Y-112384152D01*
X52467418Y-112382870D01*
X52487762Y-112379682D01*
X52497401Y-112376931D01*
X52508726Y-112373131D01*
X52516216Y-112371318D01*
X52517713Y-112371403D01*
X52518746Y-112376014D01*
X52520118Y-112386804D01*
X52521544Y-112401506D01*
X52521639Y-112402627D01*
X52524137Y-112432424D01*
X52501327Y-112439489D01*
X52481810Y-112443971D01*
X52458473Y-112446989D01*
X52433995Y-112448428D01*
X52411055Y-112448177D01*
X52392330Y-112446122D01*
X52385383Y-112444382D01*
X52358025Y-112433017D01*
X52337214Y-112418649D01*
X52321157Y-112399742D01*
X52310468Y-112380183D01*
X52308187Y-112375080D01*
X52306288Y-112370024D01*
X52304729Y-112364220D01*
X52303472Y-112356868D01*
X52302474Y-112347173D01*
X52301697Y-112334336D01*
X52301099Y-112317559D01*
X52300641Y-112296047D01*
X52300282Y-112269000D01*
X52299981Y-112235621D01*
X52299699Y-112195114D01*
X52299498Y-112163225D01*
X52298279Y-111967433D01*
X52184300Y-111967433D01*
X52184300Y-111903933D01*
X52298600Y-111903933D01*
X52298600Y-111751533D01*
X52366333Y-111751533D01*
X52366333Y-111903933D01*
X52366333Y-111903933D01*
G37*
X52366333Y-111903933D02*
X52518733Y-111903933D01*
X52518733Y-111967433D01*
X52365997Y-111967433D01*
X52367223Y-112152641D01*
X52367534Y-112197200D01*
X52367848Y-112234090D01*
X52368203Y-112264110D01*
X52368639Y-112288057D01*
X52369194Y-112306730D01*
X52369906Y-112320926D01*
X52370816Y-112331444D01*
X52371961Y-112339083D01*
X52373380Y-112344639D01*
X52375113Y-112348911D01*
X52376916Y-112352224D01*
X52387386Y-112367178D01*
X52399041Y-112376810D01*
X52413964Y-112382112D01*
X52434239Y-112384075D01*
X52443916Y-112384152D01*
X52467418Y-112382870D01*
X52487762Y-112379682D01*
X52497401Y-112376931D01*
X52508726Y-112373131D01*
X52516216Y-112371318D01*
X52517713Y-112371403D01*
X52518746Y-112376014D01*
X52520118Y-112386804D01*
X52521544Y-112401506D01*
X52521639Y-112402627D01*
X52524137Y-112432424D01*
X52501327Y-112439489D01*
X52481810Y-112443971D01*
X52458473Y-112446989D01*
X52433995Y-112448428D01*
X52411055Y-112448177D01*
X52392330Y-112446122D01*
X52385383Y-112444382D01*
X52358025Y-112433017D01*
X52337214Y-112418649D01*
X52321157Y-112399742D01*
X52310468Y-112380183D01*
X52308187Y-112375080D01*
X52306288Y-112370024D01*
X52304729Y-112364220D01*
X52303472Y-112356868D01*
X52302474Y-112347173D01*
X52301697Y-112334336D01*
X52301099Y-112317559D01*
X52300641Y-112296047D01*
X52300282Y-112269000D01*
X52299981Y-112235621D01*
X52299699Y-112195114D01*
X52299498Y-112163225D01*
X52298279Y-111967433D01*
X52184300Y-111967433D01*
X52184300Y-111903933D01*
X52298600Y-111903933D01*
X52298600Y-111751533D01*
X52366333Y-111751533D01*
X52366333Y-111903933D01*
G36*
X53493529Y-111894292D02*
X53512299Y-111895626D01*
X53528240Y-111898160D01*
X53544163Y-111902279D01*
X53553783Y-111905308D01*
X53598792Y-111924191D01*
X53638237Y-111949233D01*
X53671796Y-111979943D01*
X53699149Y-112015831D01*
X53719973Y-112056409D01*
X53733946Y-112101184D01*
X53740748Y-112149669D01*
X53740839Y-112190266D01*
X53734320Y-112239047D01*
X53720637Y-112284199D01*
X53700221Y-112325141D01*
X53673505Y-112361292D01*
X53640921Y-112392071D01*
X53602901Y-112416896D01*
X53559877Y-112435186D01*
X53558348Y-112435681D01*
X53522267Y-112444303D01*
X53482590Y-112448813D01*
X53442770Y-112449022D01*
X53406257Y-112444739D01*
X53403499Y-112444179D01*
X53366109Y-112433158D01*
X53330208Y-112416653D01*
X53297678Y-112395804D01*
X53270398Y-112371754D01*
X53256256Y-112354783D01*
X53247134Y-112342083D01*
X53247000Y-112520942D01*
X53246866Y-112699800D01*
X53179133Y-112699800D01*
X53179133Y-112166123D01*
X53242503Y-112166123D01*
X53245333Y-112205789D01*
X53249115Y-112223374D01*
X53263155Y-112260992D01*
X53284379Y-112295646D01*
X53311724Y-112326273D01*
X53344123Y-112351813D01*
X53380511Y-112371203D01*
X53406426Y-112380180D01*
X53428705Y-112384185D01*
X53455615Y-112385869D01*
X53483644Y-112385237D01*
X53509283Y-112382292D01*
X53519768Y-112380044D01*
X53558172Y-112365899D01*
X53591832Y-112344976D01*
X53620284Y-112317802D01*
X53643066Y-112284904D01*
X53659713Y-112246808D01*
X53668699Y-112210703D01*
X53671935Y-112188962D01*
X53673022Y-112171305D01*
X53672045Y-112153650D01*
X53670185Y-112139157D01*
X53660987Y-112097257D01*
X53646244Y-112061244D01*
X53625431Y-112030185D01*
X53598021Y-112003146D01*
X53589796Y-111996695D01*
X53557245Y-111976379D01*
X53522630Y-111963248D01*
X53483980Y-111956588D01*
X53477583Y-111956094D01*
X53436124Y-111957217D01*
X53396979Y-111965673D01*
X53360799Y-111980699D01*
X53328237Y-112001532D01*
X53299945Y-112027410D01*
X53276573Y-112057570D01*
X53258775Y-112091251D01*
X53247201Y-112127689D01*
X53242503Y-112166123D01*
X53179133Y-112166123D01*
X53179133Y-111903933D01*
X53246866Y-111903933D01*
X53246866Y-111996897D01*
X53277558Y-111965826D01*
X53297558Y-111946972D01*
X53316009Y-111933026D01*
X53335924Y-111921767D01*
X53339999Y-111919806D01*
X53365869Y-111908602D01*
X53389376Y-111900958D01*
X53413278Y-111896316D01*
X53440331Y-111894122D01*
X53469116Y-111893775D01*
X53493529Y-111894292D01*
X53493529Y-111894292D01*
G37*
X53493529Y-111894292D02*
X53512299Y-111895626D01*
X53528240Y-111898160D01*
X53544163Y-111902279D01*
X53553783Y-111905308D01*
X53598792Y-111924191D01*
X53638237Y-111949233D01*
X53671796Y-111979943D01*
X53699149Y-112015831D01*
X53719973Y-112056409D01*
X53733946Y-112101184D01*
X53740748Y-112149669D01*
X53740839Y-112190266D01*
X53734320Y-112239047D01*
X53720637Y-112284199D01*
X53700221Y-112325141D01*
X53673505Y-112361292D01*
X53640921Y-112392071D01*
X53602901Y-112416896D01*
X53559877Y-112435186D01*
X53558348Y-112435681D01*
X53522267Y-112444303D01*
X53482590Y-112448813D01*
X53442770Y-112449022D01*
X53406257Y-112444739D01*
X53403499Y-112444179D01*
X53366109Y-112433158D01*
X53330208Y-112416653D01*
X53297678Y-112395804D01*
X53270398Y-112371754D01*
X53256256Y-112354783D01*
X53247134Y-112342083D01*
X53247000Y-112520942D01*
X53246866Y-112699800D01*
X53179133Y-112699800D01*
X53179133Y-112166123D01*
X53242503Y-112166123D01*
X53245333Y-112205789D01*
X53249115Y-112223374D01*
X53263155Y-112260992D01*
X53284379Y-112295646D01*
X53311724Y-112326273D01*
X53344123Y-112351813D01*
X53380511Y-112371203D01*
X53406426Y-112380180D01*
X53428705Y-112384185D01*
X53455615Y-112385869D01*
X53483644Y-112385237D01*
X53509283Y-112382292D01*
X53519768Y-112380044D01*
X53558172Y-112365899D01*
X53591832Y-112344976D01*
X53620284Y-112317802D01*
X53643066Y-112284904D01*
X53659713Y-112246808D01*
X53668699Y-112210703D01*
X53671935Y-112188962D01*
X53673022Y-112171305D01*
X53672045Y-112153650D01*
X53670185Y-112139157D01*
X53660987Y-112097257D01*
X53646244Y-112061244D01*
X53625431Y-112030185D01*
X53598021Y-112003146D01*
X53589796Y-111996695D01*
X53557245Y-111976379D01*
X53522630Y-111963248D01*
X53483980Y-111956588D01*
X53477583Y-111956094D01*
X53436124Y-111957217D01*
X53396979Y-111965673D01*
X53360799Y-111980699D01*
X53328237Y-112001532D01*
X53299945Y-112027410D01*
X53276573Y-112057570D01*
X53258775Y-112091251D01*
X53247201Y-112127689D01*
X53242503Y-112166123D01*
X53179133Y-112166123D01*
X53179133Y-111903933D01*
X53246866Y-111903933D01*
X53246866Y-111996897D01*
X53277558Y-111965826D01*
X53297558Y-111946972D01*
X53316009Y-111933026D01*
X53335924Y-111921767D01*
X53339999Y-111919806D01*
X53365869Y-111908602D01*
X53389376Y-111900958D01*
X53413278Y-111896316D01*
X53440331Y-111894122D01*
X53469116Y-111893775D01*
X53493529Y-111894292D01*
G04 #@! TO.C,C2*
D14*
X58269142Y-115609666D02*
X58316761Y-115657285D01*
X58364380Y-115800142D01*
X58364380Y-115895380D01*
X58316761Y-116038238D01*
X58221523Y-116133476D01*
X58126285Y-116181095D01*
X57935809Y-116228714D01*
X57792952Y-116228714D01*
X57602476Y-116181095D01*
X57507238Y-116133476D01*
X57412000Y-116038238D01*
X57364380Y-115895380D01*
X57364380Y-115800142D01*
X57412000Y-115657285D01*
X57459619Y-115609666D01*
X57459619Y-115228714D02*
X57412000Y-115181095D01*
X57364380Y-115085857D01*
X57364380Y-114847761D01*
X57412000Y-114752523D01*
X57459619Y-114704904D01*
X57554857Y-114657285D01*
X57650095Y-114657285D01*
X57792952Y-114704904D01*
X58364380Y-115276333D01*
X58364380Y-114657285D01*
G04 #@! TO.C,D1*
X50696904Y-145105380D02*
X50696904Y-144105380D01*
X50935000Y-144105380D01*
X51077857Y-144153000D01*
X51173095Y-144248238D01*
X51220714Y-144343476D01*
X51268333Y-144533952D01*
X51268333Y-144676809D01*
X51220714Y-144867285D01*
X51173095Y-144962523D01*
X51077857Y-145057761D01*
X50935000Y-145105380D01*
X50696904Y-145105380D01*
X52220714Y-145105380D02*
X51649285Y-145105380D01*
X51935000Y-145105380D02*
X51935000Y-144105380D01*
X51839761Y-144248238D01*
X51744523Y-144343476D01*
X51649285Y-144391095D01*
X38854095Y-143005380D02*
X38854095Y-142005380D01*
X39425523Y-143005380D02*
X38996952Y-142433952D01*
X39425523Y-142005380D02*
X38854095Y-142576809D01*
G04 #@! TO.C,D2*
X50696904Y-140406380D02*
X50696904Y-139406380D01*
X50935000Y-139406380D01*
X51077857Y-139454000D01*
X51173095Y-139549238D01*
X51220714Y-139644476D01*
X51268333Y-139834952D01*
X51268333Y-139977809D01*
X51220714Y-140168285D01*
X51173095Y-140263523D01*
X51077857Y-140358761D01*
X50935000Y-140406380D01*
X50696904Y-140406380D01*
X51649285Y-139501619D02*
X51696904Y-139454000D01*
X51792142Y-139406380D01*
X52030238Y-139406380D01*
X52125476Y-139454000D01*
X52173095Y-139501619D01*
X52220714Y-139596857D01*
X52220714Y-139692095D01*
X52173095Y-139834952D01*
X51601666Y-140406380D01*
X52220714Y-140406380D01*
X38854095Y-138264046D02*
X38854095Y-137264046D01*
X39425523Y-138264046D02*
X38996952Y-137692618D01*
X39425523Y-137264046D02*
X38854095Y-137835475D01*
G04 #@! TO.C,D3*
X50696904Y-135707380D02*
X50696904Y-134707380D01*
X50935000Y-134707380D01*
X51077857Y-134755000D01*
X51173095Y-134850238D01*
X51220714Y-134945476D01*
X51268333Y-135135952D01*
X51268333Y-135278809D01*
X51220714Y-135469285D01*
X51173095Y-135564523D01*
X51077857Y-135659761D01*
X50935000Y-135707380D01*
X50696904Y-135707380D01*
X51601666Y-134707380D02*
X52220714Y-134707380D01*
X51887380Y-135088333D01*
X52030238Y-135088333D01*
X52125476Y-135135952D01*
X52173095Y-135183571D01*
X52220714Y-135278809D01*
X52220714Y-135516904D01*
X52173095Y-135612142D01*
X52125476Y-135659761D01*
X52030238Y-135707380D01*
X51744523Y-135707380D01*
X51649285Y-135659761D01*
X51601666Y-135612142D01*
X38854095Y-133522713D02*
X38854095Y-132522713D01*
X39425523Y-133522713D02*
X38996952Y-132951285D01*
X39425523Y-132522713D02*
X38854095Y-133094142D01*
G04 #@! TO.C,D4*
X50696904Y-130881380D02*
X50696904Y-129881380D01*
X50935000Y-129881380D01*
X51077857Y-129929000D01*
X51173095Y-130024238D01*
X51220714Y-130119476D01*
X51268333Y-130309952D01*
X51268333Y-130452809D01*
X51220714Y-130643285D01*
X51173095Y-130738523D01*
X51077857Y-130833761D01*
X50935000Y-130881380D01*
X50696904Y-130881380D01*
X52125476Y-130214714D02*
X52125476Y-130881380D01*
X51887380Y-129833761D02*
X51649285Y-130548047D01*
X52268333Y-130548047D01*
X38854095Y-128781380D02*
X38854095Y-127781380D01*
X39425523Y-128781380D02*
X38996952Y-128209952D01*
X39425523Y-127781380D02*
X38854095Y-128352809D01*
G04 #@! TO.C,D5*
X55649904Y-146121380D02*
X55649904Y-145121380D01*
X55888000Y-145121380D01*
X56030857Y-145169000D01*
X56126095Y-145264238D01*
X56173714Y-145359476D01*
X56221333Y-145549952D01*
X56221333Y-145692809D01*
X56173714Y-145883285D01*
X56126095Y-145978523D01*
X56030857Y-146073761D01*
X55888000Y-146121380D01*
X55649904Y-146121380D01*
X57126095Y-145121380D02*
X56649904Y-145121380D01*
X56602285Y-145597571D01*
X56649904Y-145549952D01*
X56745142Y-145502333D01*
X56983238Y-145502333D01*
X57078476Y-145549952D01*
X57126095Y-145597571D01*
X57173714Y-145692809D01*
X57173714Y-145930904D01*
X57126095Y-146026142D01*
X57078476Y-146073761D01*
X56983238Y-146121380D01*
X56745142Y-146121380D01*
X56649904Y-146073761D01*
X56602285Y-146026142D01*
G04 #@! TO.C,D6*
X55522904Y-118689380D02*
X55522904Y-117689380D01*
X55761000Y-117689380D01*
X55903857Y-117737000D01*
X55999095Y-117832238D01*
X56046714Y-117927476D01*
X56094333Y-118117952D01*
X56094333Y-118260809D01*
X56046714Y-118451285D01*
X55999095Y-118546523D01*
X55903857Y-118641761D01*
X55761000Y-118689380D01*
X55522904Y-118689380D01*
X56951476Y-117689380D02*
X56761000Y-117689380D01*
X56665761Y-117737000D01*
X56618142Y-117784619D01*
X56522904Y-117927476D01*
X56475285Y-118117952D01*
X56475285Y-118498904D01*
X56522904Y-118594142D01*
X56570523Y-118641761D01*
X56665761Y-118689380D01*
X56856238Y-118689380D01*
X56951476Y-118641761D01*
X56999095Y-118594142D01*
X57046714Y-118498904D01*
X57046714Y-118260809D01*
X56999095Y-118165571D01*
X56951476Y-118117952D01*
X56856238Y-118070333D01*
X56665761Y-118070333D01*
X56570523Y-118117952D01*
X56522904Y-118165571D01*
X56475285Y-118260809D01*
G04 #@! TO.C,J1*
X42651666Y-157856380D02*
X42651666Y-158570666D01*
X42604047Y-158713523D01*
X42508809Y-158808761D01*
X42365952Y-158856380D01*
X42270714Y-158856380D01*
X43651666Y-158856380D02*
X43080238Y-158856380D01*
X43365952Y-158856380D02*
X43365952Y-157856380D01*
X43270714Y-157999238D01*
X43175476Y-158094476D01*
X43080238Y-158142095D01*
G04 #@! TO.C,J2*
X59864666Y-157440380D02*
X59864666Y-158154666D01*
X59817047Y-158297523D01*
X59721809Y-158392761D01*
X59578952Y-158440380D01*
X59483714Y-158440380D01*
X60293238Y-157535619D02*
X60340857Y-157488000D01*
X60436095Y-157440380D01*
X60674190Y-157440380D01*
X60769428Y-157488000D01*
X60817047Y-157535619D01*
X60864666Y-157630857D01*
X60864666Y-157726095D01*
X60817047Y-157868952D01*
X60245619Y-158440380D01*
X60864666Y-158440380D01*
G04 #@! TO.C,J3*
X60118666Y-108418380D02*
X60118666Y-109132666D01*
X60071047Y-109275523D01*
X59975809Y-109370761D01*
X59832952Y-109418380D01*
X59737714Y-109418380D01*
X60499619Y-108418380D02*
X61118666Y-108418380D01*
X60785333Y-108799333D01*
X60928190Y-108799333D01*
X61023428Y-108846952D01*
X61071047Y-108894571D01*
X61118666Y-108989809D01*
X61118666Y-109227904D01*
X61071047Y-109323142D01*
X61023428Y-109370761D01*
X60928190Y-109418380D01*
X60642476Y-109418380D01*
X60547238Y-109370761D01*
X60499619Y-109323142D01*
G04 #@! TO.C,R1*
X55316380Y-152312666D02*
X54840190Y-152646000D01*
X55316380Y-152884095D02*
X54316380Y-152884095D01*
X54316380Y-152503142D01*
X54364000Y-152407904D01*
X54411619Y-152360285D01*
X54506857Y-152312666D01*
X54649714Y-152312666D01*
X54744952Y-152360285D01*
X54792571Y-152407904D01*
X54840190Y-152503142D01*
X54840190Y-152884095D01*
X55316380Y-151360285D02*
X55316380Y-151931714D01*
X55316380Y-151646000D02*
X54316380Y-151646000D01*
X54459238Y-151741238D01*
X54554476Y-151836476D01*
X54602095Y-151931714D01*
G04 #@! TO.C,R2*
X53622380Y-123610666D02*
X53146190Y-123944000D01*
X53622380Y-124182095D02*
X52622380Y-124182095D01*
X52622380Y-123801142D01*
X52670000Y-123705904D01*
X52717619Y-123658285D01*
X52812857Y-123610666D01*
X52955714Y-123610666D01*
X53050952Y-123658285D01*
X53098571Y-123705904D01*
X53146190Y-123801142D01*
X53146190Y-124182095D01*
X52717619Y-123229714D02*
X52670000Y-123182095D01*
X52622380Y-123086857D01*
X52622380Y-122848761D01*
X52670000Y-122753523D01*
X52717619Y-122705904D01*
X52812857Y-122658285D01*
X52908095Y-122658285D01*
X53050952Y-122705904D01*
X53622380Y-123277333D01*
X53622380Y-122658285D01*
G04 #@! TO.C,SW1*
X53645761Y-133082333D02*
X53693380Y-132939476D01*
X53693380Y-132701380D01*
X53645761Y-132606142D01*
X53598142Y-132558523D01*
X53502904Y-132510904D01*
X53407666Y-132510904D01*
X53312428Y-132558523D01*
X53264809Y-132606142D01*
X53217190Y-132701380D01*
X53169571Y-132891857D01*
X53121952Y-132987095D01*
X53074333Y-133034714D01*
X52979095Y-133082333D01*
X52883857Y-133082333D01*
X52788619Y-133034714D01*
X52741000Y-132987095D01*
X52693380Y-132891857D01*
X52693380Y-132653761D01*
X52741000Y-132510904D01*
X52693380Y-132177571D02*
X53693380Y-131939476D01*
X52979095Y-131749000D01*
X53693380Y-131558523D01*
X52693380Y-131320428D01*
X53693380Y-130415666D02*
X53693380Y-130987095D01*
X53693380Y-130701380D02*
X52693380Y-130701380D01*
X52836238Y-130796619D01*
X52931476Y-130891857D01*
X52979095Y-130987095D01*
G04 #@! TO.C,U1*
X42418095Y-118880380D02*
X42418095Y-119689904D01*
X42465714Y-119785142D01*
X42513333Y-119832761D01*
X42608571Y-119880380D01*
X42799047Y-119880380D01*
X42894285Y-119832761D01*
X42941904Y-119785142D01*
X42989523Y-119689904D01*
X42989523Y-118880380D01*
X43989523Y-119880380D02*
X43418095Y-119880380D01*
X43703809Y-119880380D02*
X43703809Y-118880380D01*
X43608571Y-119023238D01*
X43513333Y-119118476D01*
X43418095Y-119166095D01*
G04 #@! TO.C,C1*
X47474142Y-117768666D02*
X47521761Y-117816285D01*
X47569380Y-117959142D01*
X47569380Y-118054380D01*
X47521761Y-118197238D01*
X47426523Y-118292476D01*
X47331285Y-118340095D01*
X47140809Y-118387714D01*
X46997952Y-118387714D01*
X46807476Y-118340095D01*
X46712238Y-118292476D01*
X46617000Y-118197238D01*
X46569380Y-118054380D01*
X46569380Y-117959142D01*
X46617000Y-117816285D01*
X46664619Y-117768666D01*
X47569380Y-116816285D02*
X47569380Y-117387714D01*
X47569380Y-117102000D02*
X46569380Y-117102000D01*
X46712238Y-117197238D01*
X46807476Y-117292476D01*
X46855095Y-117387714D01*
G04 #@! TD*
M02*
