G04 #@! TF.GenerationSoftware,KiCad,Pcbnew,5.0.0-fee4fd1~66~ubuntu18.04.1*
G04 #@! TF.CreationDate,2018-08-15T18:58:20-07:00*
G04 #@! TF.ProjectId,BreadboardPowerSupply_v2,4272656164626F617264506F77657253,2*
G04 #@! TF.SameCoordinates,Original*
G04 #@! TF.FileFunction,Copper,L1,Top,Signal*
G04 #@! TF.FilePolarity,Positive*
%FSLAX46Y46*%
G04 Gerber Fmt 4.6, Leading zero omitted, Abs format (unit mm)*
G04 Created by KiCad (PCBNEW 5.0.0-fee4fd1~66~ubuntu18.04.1) date Wed Aug 15 18:58:20 2018*
%MOMM*%
%LPD*%
G01*
G04 APERTURE LIST*
G04 #@! TA.AperFunction,ComponentPad*
%ADD10R,1.600000X1.600000*%
G04 #@! TD*
G04 #@! TA.AperFunction,ComponentPad*
%ADD11C,1.600000*%
G04 #@! TD*
G04 #@! TA.AperFunction,ComponentPad*
%ADD12R,2.200000X2.200000*%
G04 #@! TD*
G04 #@! TA.AperFunction,ComponentPad*
%ADD13O,2.200000X2.200000*%
G04 #@! TD*
G04 #@! TA.AperFunction,ComponentPad*
%ADD14C,1.800000*%
G04 #@! TD*
G04 #@! TA.AperFunction,ComponentPad*
%ADD15R,1.800000X1.800000*%
G04 #@! TD*
G04 #@! TA.AperFunction,ComponentPad*
%ADD16R,2.600000X2.600000*%
G04 #@! TD*
G04 #@! TA.AperFunction,ComponentPad*
%ADD17C,2.600000*%
G04 #@! TD*
G04 #@! TA.AperFunction,ComponentPad*
%ADD18O,1.700000X1.700000*%
G04 #@! TD*
G04 #@! TA.AperFunction,ComponentPad*
%ADD19R,1.700000X1.700000*%
G04 #@! TD*
G04 #@! TA.AperFunction,ComponentPad*
%ADD20O,1.600000X1.600000*%
G04 #@! TD*
G04 #@! TA.AperFunction,ComponentPad*
%ADD21R,1.900000X1.900000*%
G04 #@! TD*
G04 #@! TA.AperFunction,ComponentPad*
%ADD22C,1.900000*%
G04 #@! TD*
G04 #@! TA.AperFunction,ComponentPad*
%ADD23R,1.905000X2.000000*%
G04 #@! TD*
G04 #@! TA.AperFunction,ComponentPad*
%ADD24O,1.905000X2.000000*%
G04 #@! TD*
G04 #@! TA.AperFunction,ComponentPad*
%ADD25R,2.000000X2.000000*%
G04 #@! TD*
G04 #@! TA.AperFunction,ComponentPad*
%ADD26C,2.000000*%
G04 #@! TD*
G04 #@! TA.AperFunction,Conductor*
%ADD27C,0.300000*%
G04 #@! TD*
G04 #@! TA.AperFunction,Conductor*
%ADD28C,0.250000*%
G04 #@! TD*
G04 APERTURE END LIST*
D10*
G04 #@! TO.P,C2,1*
G04 #@! TO.N,/Vout1*
X54229000Y-112014000D03*
D11*
G04 #@! TO.P,C2,2*
G04 #@! TO.N,/V-*
X54229000Y-114514000D03*
G04 #@! TD*
D12*
G04 #@! TO.P,D1,1*
G04 #@! TO.N,/Vin*
X39116000Y-144653000D03*
D13*
G04 #@! TO.P,D1,2*
G04 #@! TO.N,/V1*
X49276000Y-144653000D03*
G04 #@! TD*
G04 #@! TO.P,D2,2*
G04 #@! TO.N,/V-*
X49276000Y-139911666D03*
D12*
G04 #@! TO.P,D2,1*
G04 #@! TO.N,/V1*
X39116000Y-139911666D03*
G04 #@! TD*
G04 #@! TO.P,D3,1*
G04 #@! TO.N,/Vin*
X39116000Y-135170333D03*
D13*
G04 #@! TO.P,D3,2*
G04 #@! TO.N,/V2*
X49276000Y-135170333D03*
G04 #@! TD*
G04 #@! TO.P,D4,2*
G04 #@! TO.N,/V-*
X49276000Y-130429000D03*
D12*
G04 #@! TO.P,D4,1*
G04 #@! TO.N,/V2*
X39116000Y-130429000D03*
G04 #@! TD*
D14*
G04 #@! TO.P,D5,2*
G04 #@! TO.N,Net-(D5-Pad2)*
X57531000Y-141986000D03*
D15*
G04 #@! TO.P,D5,1*
G04 #@! TO.N,/V-*
X54991000Y-141986000D03*
G04 #@! TD*
G04 #@! TO.P,D6,1*
G04 #@! TO.N,/V-*
X54991000Y-121793000D03*
D14*
G04 #@! TO.P,D6,2*
G04 #@! TO.N,Net-(D6-Pad2)*
X57531000Y-121793000D03*
G04 #@! TD*
D16*
G04 #@! TO.P,J1,1*
G04 #@! TO.N,/V1*
X51435000Y-152654000D03*
D17*
G04 #@! TO.P,J1,2*
G04 #@! TO.N,/V2*
X45435000Y-152654000D03*
G04 #@! TO.P,J1,3*
G04 #@! TO.N,Net-(J1-Pad3)*
X48435000Y-157354000D03*
G04 #@! TD*
D18*
G04 #@! TO.P,J2,4*
G04 #@! TO.N,/V-*
X62484000Y-154686000D03*
G04 #@! TO.P,J2,3*
X65024000Y-154686000D03*
G04 #@! TO.P,J2,2*
G04 #@! TO.N,/Vout2*
X62484000Y-157226000D03*
D19*
G04 #@! TO.P,J2,1*
X65024000Y-157226000D03*
G04 #@! TD*
G04 #@! TO.P,J3,1*
G04 #@! TO.N,/Vout2*
X65024000Y-112268000D03*
D18*
G04 #@! TO.P,J3,2*
X62484000Y-112268000D03*
G04 #@! TO.P,J3,3*
G04 #@! TO.N,/V-*
X65024000Y-109728000D03*
G04 #@! TO.P,J3,4*
X62484000Y-109728000D03*
G04 #@! TD*
D11*
G04 #@! TO.P,R1,1*
G04 #@! TO.N,/Vout1*
X56769000Y-156464000D03*
D20*
G04 #@! TO.P,R1,2*
G04 #@! TO.N,Net-(D5-Pad2)*
X56769000Y-148844000D03*
G04 #@! TD*
G04 #@! TO.P,R2,2*
G04 #@! TO.N,Net-(D6-Pad2)*
X50800000Y-127254000D03*
D11*
G04 #@! TO.P,R2,1*
G04 #@! TO.N,/Vout2*
X50800000Y-119634000D03*
G04 #@! TD*
D21*
G04 #@! TO.P,SW1,1*
G04 #@! TO.N,/Vout2*
X56261000Y-134239000D03*
D22*
G04 #@! TO.P,SW1,2*
G04 #@! TO.N,/Vout1*
X56261000Y-131739000D03*
G04 #@! TO.P,SW1,3*
G04 #@! TO.N,Net-(SW1-Pad3)*
X56261000Y-129239000D03*
G04 #@! TD*
D23*
G04 #@! TO.P,U1,1*
G04 #@! TO.N,/Vin*
X40640000Y-123698000D03*
D24*
G04 #@! TO.P,U1,2*
G04 #@! TO.N,/V-*
X43180000Y-123698000D03*
G04 #@! TO.P,U1,3*
G04 #@! TO.N,/Vout1*
X45720000Y-123698000D03*
G04 #@! TD*
D25*
G04 #@! TO.P,C1,1*
G04 #@! TO.N,/Vin*
X43307000Y-110617000D03*
D26*
G04 #@! TO.P,C1,2*
G04 #@! TO.N,/V-*
X43307000Y-115617000D03*
G04 #@! TD*
D27*
G04 #@! TO.N,/Vin*
X37482010Y-141619010D02*
X39116000Y-143253000D01*
X37482010Y-138204323D02*
X37482010Y-141619010D01*
X39116000Y-136570333D02*
X37482010Y-138204323D01*
X39116000Y-143253000D02*
X39116000Y-144653000D01*
X39116000Y-135170333D02*
X39116000Y-136570333D01*
X39116000Y-133770333D02*
X42164000Y-130722333D01*
X39116000Y-135170333D02*
X39116000Y-133770333D01*
X42164000Y-130722333D02*
X42164000Y-127889000D01*
X40640000Y-126365000D02*
X40640000Y-123698000D01*
X42164000Y-127889000D02*
X40640000Y-126365000D01*
X42007000Y-110617000D02*
X43307000Y-110617000D01*
X40132000Y-112649000D02*
X41783000Y-110998000D01*
X40640000Y-122398000D02*
X40132000Y-121890000D01*
X40640000Y-123698000D02*
X40640000Y-122398000D01*
X40132000Y-121890000D02*
X40132000Y-112649000D01*
X41783000Y-110841000D02*
X42007000Y-110617000D01*
X41783000Y-110998000D02*
X41783000Y-110841000D01*
D28*
G04 #@! TO.N,Net-(D5-Pad2)*
X56769000Y-148844000D02*
X56769000Y-145542000D01*
X57531000Y-144780000D02*
X57531000Y-141986000D01*
X56769000Y-145542000D02*
X57531000Y-144780000D01*
G04 #@! TO.N,Net-(D6-Pad2)*
X57531000Y-123065792D02*
X56769000Y-123827792D01*
X57531000Y-121793000D02*
X57531000Y-123065792D01*
X54226208Y-123827792D02*
X50800000Y-127254000D01*
X56769000Y-123827792D02*
X54226208Y-123827792D01*
D27*
G04 #@! TO.N,/V1*
X51435000Y-146812000D02*
X49276000Y-144653000D01*
X51435000Y-152654000D02*
X51435000Y-146812000D01*
X44534666Y-139911666D02*
X39116000Y-139911666D01*
X49276000Y-144653000D02*
X44534666Y-139911666D01*
G04 #@! TO.N,/Vout2*
X51599999Y-118834001D02*
X54774999Y-118834001D01*
X50800000Y-119634000D02*
X51599999Y-118834001D01*
X54774999Y-118834001D02*
X59309000Y-114300000D01*
X59309000Y-114300000D02*
X59309000Y-113284000D01*
X60325000Y-112268000D02*
X62484000Y-112268000D01*
X59309000Y-113284000D02*
X60325000Y-112268000D01*
X62484000Y-112268000D02*
X65024000Y-112268000D01*
X59309000Y-132441000D02*
X59309000Y-114300000D01*
X57511000Y-134239000D02*
X59309000Y-132441000D01*
X56261000Y-134239000D02*
X57511000Y-134239000D01*
X59309000Y-155253081D02*
X59309000Y-132441000D01*
X61281919Y-157226000D02*
X59309000Y-155253081D01*
X62484000Y-157226000D02*
X61281919Y-157226000D01*
X65024000Y-157226000D02*
X62484000Y-157226000D01*
G04 #@! TO.N,/Vout1*
X45720000Y-122398000D02*
X45720000Y-123698000D01*
X45720000Y-119423000D02*
X45720000Y-122398000D01*
X53129000Y-112014000D02*
X45720000Y-119423000D01*
X54229000Y-112014000D02*
X53129000Y-112014000D01*
X45720000Y-124998000D02*
X45720000Y-123698000D01*
X49600999Y-128878999D02*
X45720000Y-124998000D01*
X53400999Y-128878999D02*
X49600999Y-128878999D01*
X56261000Y-131739000D02*
X53400999Y-128878999D01*
X56769000Y-155332630D02*
X53975000Y-152538630D01*
X56769000Y-156464000D02*
X56769000Y-155332630D01*
X53975000Y-152538630D02*
X53975000Y-146177000D01*
X53975000Y-146177000D02*
X52832000Y-145034000D01*
X52832000Y-145034000D02*
X52832000Y-133350000D01*
X54443000Y-131739000D02*
X56261000Y-131739000D01*
X52832000Y-133350000D02*
X54443000Y-131739000D01*
G04 #@! TD*
M02*
