M48
INCH,TZ
T1C0.0315
T2C0.0354
T3C0.0394
T4C0.0433
T5C0.0630
%
G90
G05
T1
X20000Y-47100
X20000Y-50100
X21350Y-44100
X21350Y-45084
X22350Y-58600
X22350Y-61600
T2
X22150Y-50881
X22150Y-51866
X22150Y-52850
X21650Y-47950
X22650Y-47950
X21650Y-55900
X22650Y-55900
T3
X24600Y-43200
X24600Y-44200
X25600Y-43200
X25600Y-44200
X17050Y-43550
X17050Y-45519
X24600Y-60900
X24600Y-61900
X25600Y-60900
X25600Y-61900
T4
X15400Y-51350
X19400Y-51350
X15400Y-55083
X19400Y-55083
X15400Y-56950
X19400Y-56950
X15400Y-53217
X19400Y-53217
X16000Y-48700
X17000Y-48700
X18000Y-48700
T5
X17888Y-60100
X19069Y-61950
X20250Y-60100
T0
M30
